<?xml version="1.0" encoding="utf-8" standalone="yes"?>
<!DOCTYPE svg PUBLIC "-//W3C//DTD SVG 1.1//EN" "http://www.w3.org/Graphics/SVG/1.1/DTD/svg11.dtd">
<svg width="600" height="456" viewBox="0 0 600 456" style="fill:none;stroke:none;fill-rule:evenodd;clip-rule:evenodd;stroke-linecap:round;stroke-linejoin:round;stroke-miterlimit:1.5;" version="1.1" xmlns="http://www.w3.org/2000/svg" xmlns:xlink="http://www.w3.org/1999/xlink"><style id="fontImports">@import url("https://fonts.googleapis.com/css2?family=Roboto:wght@400;700&amp;display=block");</style><rect id="" x="0" y="0" width="600" height="456" style="fill: #ffffff;"></rect><g id="items" style="isolation: isolate"><g id="blend" style="mix-blend-mode:normal"><g id="g-root-3.cu_sy_1utna12ua7rbi-fill" data-item-order="999930125" data-item-id="3.cu_sy_1utna12ua7rbi" data-item-class="Part Indexed Fill Stroke" data-item-index="3" data-renderer-id="0" transform="translate(167.67889404296875, 223.5001220703125)"><g id="3.cu_sy_1utna12ua7rbi-fill" stroke="none" fill="#93c131"><g><path d="M 139.825 10L 203.345 47.4061C 200.688 51.9819 197.725 56.3399 194.501 60.4363L 206.308 82.1823C 198.379 90.811 189.361 98.3937 179.428 104.7127L 160.128 89.3728C 150.979 94.2973 141.046 97.9579 130.59 100.1369L 125.667 124.323C 119.96 125.064 114.079 125.5 108.1537 125.5C 102.2287 125.5 96.3911 125.064 90.6404 124.323L 85.7174 100.1369C 75.2181 97.9579 65.3285 94.2973 56.1797 89.3728L 36.88 104.7127C 26.947 98.3937 17.8854 90.811 10 82.1823L 21.8062 60.4363C 18.5387 56.2963 15.5764 51.9819 12.9625 47.4061L 76.8172 10C 83.1261 20.8423 94.8456 28.1452 108.321 28.1452C 121.796 28.1452 133.536 20.8423 139.825 10Z"></path></g></g></g><g id="g-root-2.cu_sy_1qdtrwmua7s3r-fill" data-item-order="999930129" data-item-id="2.cu_sy_1qdtrwmua7s3r" data-item-class="Part Indexed Fill Stroke" data-item-index="2" data-renderer-id="0" transform="translate(265.87579345703125, 76.087158203125)"><g id="2.cu_sy_1qdtrwmua7s3r-fill" stroke="none" fill="#3bc482"><g><path d="M 105.1479 194.863C 107.7619 190.33 110.071 185.624 112.031 180.699L 136.777 180.046C 140.262 169.064 142.309 157.515 142.832 145.488L 119.83 136.423C 119.481 125.659 117.608 115.287 114.427 105.4819L 132.943 89.0961C 128.412 78.1578 122.487 68.0038 115.386 58.765L 91.9473 66.6093C 84.9768 58.8086 76.8737 51.9667 67.8992 46.4322L 71.5586 21.9843C 61.277 16.624 50.2549 12.5276 38.6228 10L 25.6839 31.0923C 20.5431 30.3515 15.315 29.9592 10 29.9592L 10.1243 102.9128C 30.1538 102.9128 46.3808 119.279 46.3808 139.481L 46.3604 139.44C 46.3604 146.105 44.5709 152.319 41.4801 157.713L 105.1479 194.863Z"></path></g></g></g><g id="g-root-1.cu_sy_1d2zqmeua7qiw-fill" data-item-order="999930133" data-item-id="1.cu_sy_1d2zqmeua7qiw" data-item-class="Part Indexed Indexed_1 Fill Stroke" data-item-index="1" data-renderer-id="0" transform="translate(133, 76)"><g id="1.cu_sy_1d2zqmeua7qiw-fill" stroke="none" fill="#17b0e3"><g><path d="M 143 103.3079C 122.97 103.3079 106.7436 119.486 106.7436 139.455L 106.7638 139.415C 106.7638 146.004 108.5533 152.167 111.644 157.479L 47.6846 194.863C 45.0706 190.33 42.7615 185.624 40.8011 180.699L 16.0557 180.046C 12.5705 169.064 10.4792 157.472 10 145.488L 33.0029 136.423C 33.3079 125.615 35.1811 115.244 38.405 105.4819L 19.8895 89.0961C 24.4204 78.2013 30.3452 68.0038 37.4464 58.765L 60.8849 66.6093C 67.899 58.8086 76.0023 52.0103 84.9333 46.4322L 81.2737 21.9843C 91.5552 16.624 102.5773 12.5712 114.209 10L 127.149 31.0923C 132.246 30.3515 137.517 29.9592 142.832 29.9592L 143 103.3079Z"></path></g></g></g><g id="g-root-tx_workmate_18n68hyua7rb5-fill" data-item-order="1000000000" data-item-id="tx_workmate_18n68hyua7rb5" data-item-class="Label Stroke Title ColorStrokeBlack" data-item-index="none" data-renderer-id="0" transform="translate(104, 2)"><g id="tx_workmate_18n68hyua7rb5-fill" stroke="none" fill="#484848"><g><text style="font: 20px Roboto, sans-serif; white-space: pre;" font-weight="20px" font-size="Roboto," font-family="sans-serif"><tspan x="17.18" y="34" dominant-baseline="ideographic">Workmate's Key Features Overview</tspan></text></g></g></g><g id="g-root-tx_livedema_i0vs06ua0rgs-fill" data-item-order="1000000000" data-item-id="tx_livedema_i0vs06ua0rgs" data-item-class="Label Stroke Indexed Indexed_1 ColorStrokeBlack" data-item-index="1" data-renderer-id="0" transform="translate(2, 98)"><g id="tx_livedema_i0vs06ua0rgs-fill" stroke="none" fill="#484848"><g><text style="font: 20px Roboto, sans-serif; white-space: pre;" font-weight="20px" font-size="Roboto," font-family="sans-serif"><tspan x="12.84" y="34" dominant-baseline="ideographic">Live Demand </tspan><tspan x="33.16" y="58" dominant-baseline="ideographic">Simulation</tspan></text></g></g></g><g id="g-root-tx_business_1q5poxyua25u6-fill" data-item-order="1000000000" data-item-id="tx_business_1q5poxyua25u6" data-item-class="Label Stroke Indexed ColorStrokeBlack" data-item-index="2" data-renderer-id="0" transform="translate(410, 98)"><g id="tx_business_1q5poxyua25u6-fill" stroke="none" fill="#484848"><g><text style="font: 20px Roboto, sans-serif; white-space: pre;" font-weight="20px" font-size="Roboto," font-family="sans-serif"><tspan x="12" y="34" dominant-baseline="ideographic">Business-User </tspan><tspan x="12" y="58" dominant-baseline="ideographic">Focused Interface</tspan></text></g></g></g><g id="g-root-char_1q87i4muahlhm-fill" data-item-order="1000000000" data-item-id="char_1q87i4muahlhm" data-item-class="Icon Stroke Indexed Indexed_1 InsideFill InsideColorFill" data-item-index="1" data-renderer-id="0" transform="translate(182, 152)"></g><g id="g-root-rule_vccadiua0pvv-fill" data-item-order="1000000000" data-item-id="rule_vccadiua0pvv" data-item-class="Icon Stroke Indexed InsideFill InsideColorFill" data-item-index="2" data-renderer-id="0" transform="translate(314, 152)"></g><g id="g-root-fore_1hckhvquals0d-fill" data-item-order="1000000000" data-item-id="fore_1hckhvquals0d" data-item-class="Icon Stroke Indexed InsideFill InsideColorFill" data-item-index="3" data-renderer-id="0" transform="translate(248, 261)"></g><g id="g-root-tx_highlyco_4g25c6ua24gd-fill" data-item-order="1000000000" data-item-id="tx_highlyco_4g25c6ua24gd" data-item-class="Label Stroke Indexed ColorStrokeBlack" data-item-index="3" data-renderer-id="0" transform="translate(200, 362)"><g id="tx_highlyco_4g25c6ua24gd-fill" stroke="none" fill="#484848"><g><text style="font: 20px Roboto, sans-serif; white-space: pre;" font-weight="20px" font-size="Roboto," font-family="sans-serif"><tspan x="45.69" y="34" dominant-baseline="ideographic">Highly </tspan><tspan x="17.16" y="58" dominant-baseline="ideographic">Configurable </tspan><tspan x="32.16" y="82" dominant-baseline="ideographic">Modeling</tspan></text></g></g></g><g id="g-root-3.cu_sy_1utna12ua7rbi-stroke" data-item-order="999930125" data-item-id="3.cu_sy_1utna12ua7rbi" data-item-class="Part Indexed Fill Stroke" data-item-index="3" data-renderer-id="0" transform="translate(167.67889404296875, 223.5001220703125)"><g id="3.cu_sy_1utna12ua7rbi-stroke" fill="none" stroke-linecap="round" stroke-linejoin="round" stroke-miterlimit="4" stroke="#ffffff" stroke-width="2"><g><path d="M 139.8247 10L 203.3452 47.4061C 200.6877 51.9819 197.7251 56.3399 194.5012 60.4363L 206.3076 82.1823C 198.3787 90.811 189.3606 98.3937 179.4276 104.7127L 160.1277 89.3728C 150.9789 94.2973 141.046 97.9579 130.5902 100.1369L 125.6672 124.3233C 119.9601 125.0642 114.0786 125.5 108.1537 125.5C 102.2287 125.5 96.3911 125.0642 90.6404 124.3233L 85.7174 100.1369C 75.2181 97.9579 65.3285 94.2973 56.1797 89.3728L 36.88 104.7127C 26.947 98.3937 17.8854 90.811 10 82.1823L 21.8062 60.4363C 18.5387 56.2963 15.5764 51.9819 12.9624 47.4061L 76.8172 10C 83.1261 20.8423 94.8456 28.1452 108.321 28.1452C 121.7963 28.1452 133.5362 20.8423 139.8247 10Z"></path></g></g></g><g id="g-root-2.cu_sy_1qdtrwmua7s3r-stroke" data-item-order="999930129" data-item-id="2.cu_sy_1qdtrwmua7s3r" data-item-class="Part Indexed Fill Stroke" data-item-index="2" data-renderer-id="0" transform="translate(265.87579345703125, 76.087158203125)"><g id="2.cu_sy_1qdtrwmua7s3r-stroke" fill="none" stroke-linecap="round" stroke-linejoin="round" stroke-miterlimit="4" stroke="#ffffff" stroke-width="2"><g><path d="M 105.1479 194.8627C 107.7619 190.3304 110.0707 185.6239 112.0311 180.6995L 136.7768 180.0458C 140.262 169.0638 142.3094 157.5154 142.8322 145.4875L 119.8296 136.4231C 119.4811 125.659 117.6078 115.2872 114.4275 105.4819L 132.943 89.0961C 128.4121 78.1578 122.487 68.0038 115.3858 58.765L 91.9473 66.6093C 84.9768 58.8086 76.8737 51.9667 67.8992 46.4322L 71.5586 21.9843C 61.277 16.624 50.2549 12.5276 38.6228 10L 25.6839 31.0923C 20.5431 30.3515 15.315 29.9592 10 29.9592L 10.1243 102.9128C 30.1538 102.9128 46.3808 119.2792 46.3808 139.4807L 46.3604 139.4397C 46.3604 146.1052 44.5709 152.3195 41.4801 157.7134L 105.1479 194.8627Z"></path></g></g></g><g id="g-root-1.cu_sy_1d2zqmeua7qiw-stroke" data-item-order="999930133" data-item-id="1.cu_sy_1d2zqmeua7qiw" data-item-class="Part Indexed Indexed_1 Fill Stroke" data-item-index="1" data-renderer-id="0" transform="translate(133, 76)"><g id="1.cu_sy_1d2zqmeua7qiw-stroke" fill="none" stroke-linecap="round" stroke-linejoin="round" stroke-miterlimit="4" stroke="#ffffff" stroke-width="2"><g><path d="M 143 103.3079C 122.9705 103.3079 106.7436 119.4861 106.7436 139.4554L 106.7638 139.4149C 106.7638 146.0038 108.5533 152.1669 111.6442 157.4785L 47.6846 194.8627C 45.0706 190.3304 42.7615 185.6239 40.8011 180.6994L 16.0557 180.0457C 12.5704 169.0638 10.4792 157.4718 10 145.4875L 33.0029 136.4231C 33.3079 125.6154 35.1811 115.2436 38.405 105.4819L 19.8895 89.0961C 24.4204 78.2013 30.3452 68.0038 37.4464 58.765L 60.8849 66.6093C 67.899 58.8086 76.0023 52.0103 84.9333 46.4322L 81.2737 21.9843C 91.5552 16.624 102.5773 12.5712 114.2094 10L 127.1486 31.0923C 132.2458 30.3515 137.5172 29.9592 142.8322 29.9592L 143 103.3079Z"></path></g></g></g><g id="g-root-tx_workmate_18n68hyua7rb5-stroke" data-item-order="1000000000" data-item-id="tx_workmate_18n68hyua7rb5" data-item-class="Label Stroke Title ColorStrokeBlack" data-item-index="none" data-renderer-id="0" transform="translate(104, 2)"></g><g id="g-root-tx_livedema_i0vs06ua0rgs-stroke" data-item-order="1000000000" data-item-id="tx_livedema_i0vs06ua0rgs" data-item-class="Label Stroke Indexed Indexed_1 ColorStrokeBlack" data-item-index="1" data-renderer-id="0" transform="translate(2, 98)"></g><g id="g-root-tx_business_1q5poxyua25u6-stroke" data-item-order="1000000000" data-item-id="tx_business_1q5poxyua25u6" data-item-class="Label Stroke Indexed ColorStrokeBlack" data-item-index="2" data-renderer-id="0" transform="translate(410, 98)"></g><g id="g-root-char_1q87i4muahlhm-stroke" data-item-order="1000000000" data-item-id="char_1q87i4muahlhm" data-item-class="Icon Stroke Indexed Indexed_1 InsideFill InsideColorFill" data-item-index="1" data-renderer-id="0" transform="translate(182, 152)"><g id="char_1q87i4muahlhm-stroke" fill="none" stroke-linecap="round" stroke-linejoin="round" stroke-miterlimit="4" stroke="#ffffff" stroke-width="2"><g><path d="M 42.142857 44.714287L 13.857142 44.714287C 13.857142 44.714287 11.285714 44.714287 11.285714 42.142857L 11.285714 13.857142C 11.285714 13.857142 11.285714 11.285714 13.857142 11.285714L 42.142857 11.285714C 42.142857 11.285714 44.714287 11.285714 44.714287 13.857142L 44.714287 42.142857C 44.714287 42.142857 44.714287 44.714287 42.142857 44.714287M 17.714285 17.714285L 22.857143 17.714285M 17.714285 24.142857L 29.285713 24.142857M 39.571426 24.142857L 31.857143 37L 22.857143 31.857143L 17.714285 39.571426"></path></g></g></g><g id="g-root-rule_vccadiua0pvv-stroke" data-item-order="1000000000" data-item-id="rule_vccadiua0pvv" data-item-class="Icon Stroke Indexed InsideFill InsideColorFill" data-item-index="2" data-renderer-id="0" transform="translate(314, 152)"><g id="rule_vccadiua0pvv-stroke" fill="none" stroke-linecap="round" stroke-linejoin="round" stroke-miterlimit="4" stroke="#ffffff" stroke-width="2"><g><path d="M 11.288759 34.41851L 34.43539 11.271874L 44.726826 21.563307L 21.580189 44.709942ZM 29.285713 16.428572L 33.142857 20.285713M 22.857143 22.857143L 26.714285 26.714285M 16.428572 29.285713L 20.285713 33.142857"></path></g></g></g><g id="g-root-fore_1hckhvquals0d-stroke" data-item-order="1000000000" data-item-id="fore_1hckhvquals0d" data-item-class="Icon Stroke Indexed InsideFill InsideColorFill" data-item-index="3" data-renderer-id="0" transform="translate(248, 261)"><g id="fore_1hckhvquals0d-stroke" fill="none" stroke-linecap="round" stroke-linejoin="round" stroke-miterlimit="4" stroke="#ffffff" stroke-width="2"><g><path d="M 10.75 11.5255L 10.75 44.474499L 45.25 44.474499M 41.321503 27.608501C 38.399456 32.021919 33.486031 34.707123 28.193501 34.783001C 22.901247 34.706085 17.988274 32.021126 15.0655 27.608501C 14.849422 27.253819 14.849422 26.808182 15.0655 26.453501C 17.987385 22.039707 22.900757 19.353971 28.193501 19.2775C 33.486515 19.352928 38.400345 22.038914 41.321503 26.453499C 41.538952 26.807795 41.538952 27.254206 41.321503 27.6085ZM 23.431 27.031C 23.430773 29.661415 25.563084 31.793911 28.193501 31.793911C 30.823917 31.793911 32.956226 29.661415 32.956001 27.031C 32.956226 24.400583 30.823917 22.268089 28.193501 22.268089C 25.563084 22.268089 23.430773 24.400583 23.431 27.031M 11.137 44.087502L 19.018 36.206501M 36.592003 11.5255L 43.698997 11.5255L 43.698997 18.6325M 37.879002 17.345499L 43.698997 11.5255"></path></g></g></g><g id="g-root-tx_highlyco_4g25c6ua24gd-stroke" data-item-order="1000000000" data-item-id="tx_highlyco_4g25c6ua24gd" data-item-class="Label Stroke Indexed ColorStrokeBlack" data-item-index="3" data-renderer-id="0" transform="translate(200, 362)"></g></g></g></svg>