<?xml version="1.0" encoding="utf-8" standalone="yes"?>
<!DOCTYPE svg PUBLIC "-//W3C//DTD SVG 1.1//EN" "http://www.w3.org/Graphics/SVG/1.1/DTD/svg11.dtd">
<svg width="819" height="397" viewBox="0 0 819 397" style="fill:none;stroke:none;fill-rule:evenodd;clip-rule:evenodd;stroke-linecap:round;stroke-linejoin:round;stroke-miterlimit:1.5;" version="1.1" xmlns="http://www.w3.org/2000/svg" xmlns:xlink="http://www.w3.org/1999/xlink"><style id="fontImports">@import url("https://fonts.googleapis.com/css2?family=Shantell+Sans:wght@300..800&amp;display=block");</style><rect id="" x="0" y="0" width="818" height="397" style="fill: #ffffff;"></rect><g id="items" style="isolation: isolate"><g id="blend" style="mix-blend-mode:normal"><g id="g-root-0.cu_sy_qun6omsm603s-fill" data-item-order="999771910" data-item-id="0.cu_sy_qun6omsm603s" data-item-class="Part Indexed_0 Fill Stroke ColorFillGray ColorStrokeBlack" data-item-index="0" data-renderer-id="0" transform="translate(3, 110)"><g id="0.cu_sy_qun6omsm603s-fill" stroke="none" fill="#eaeaea"><g><path d="M 250 130C 250 196.274 196.274 250 130 250C 63.7258 250 10 196.274 10 130C 10 63.7258 63.7258 10 130 10C 196.274 10 250 63.7258 250 130Z"></path></g></g></g><g id="g-root-3.cu_sy_mfg5nasm5xq9-fill" data-item-order="999771914" data-item-id="3.cu_sy_mfg5nasm5xq9" data-item-class="Part Indexed Fill Stroke" data-item-index="3" data-renderer-id="0" transform="translate(230.1923828125, 248)"><g id="3.cu_sy_mfg5nasm5xq9-fill" stroke="none" fill="#ecf7d5"><g><path d="M 574.807 40L 154.807 40L 21.4665 10C 19.5456 22.7701 15.6123 34.8811 10 46L 154.807 136L 574.807 136L 574.807 40Z"></path></g></g></g><g id="g-root-2.cu_sy_93zn9ysm5zb6-fill" data-item-order="999771918" data-item-id="2.cu_sy_93zn9ysm5zb6" data-item-class="Part Indexed Fill Stroke" data-item-index="2" data-renderer-id="0" transform="translate(241.6591796875, 182)"><g id="2.cu_sy_93zn9ysm5zb6-fill" stroke="none" fill="#d5f7e8"><g><path d="M 563.341 10L 143.341 10L 10 40C 10.8832 45.8715 11.341 51.8823 11.341 58C 11.341 64.1177 10.8832 70.1285 10 76L 143.341 106L 563.341 106L 563.341 10Z"></path></g></g></g><g id="g-root-1.cu_sy_1utn6vqsm60oz-fill" data-item-order="999771922" data-item-id="1.cu_sy_1utn6vqsm60oz" data-item-class="Part Indexed Indexed_1 Fill Stroke" data-item-index="1" data-renderer-id="0" transform="translate(230.1923828125, 86)"><g id="1.cu_sy_1utn6vqsm60oz-fill" stroke="none" fill="#cef3ff"><g><path d="M 574.807 10L 154.807 10L 10 100C 15.6123 111.119 19.5456 123.23 21.4665 136L 154.807 106L 574.807 106L 574.807 10Z"></path></g></g></g><g id="g-root-tx_unveilin_1lymnpysm5ybw-fill" data-item-order="1000000000" data-item-id="tx_unveilin_1lymnpysm5ybw" data-item-class="Label Stroke Title ColorStrokeBlack" data-item-index="none" data-renderer-id="0" transform="translate(159, 2)"><g id="tx_unveilin_1lymnpysm5ybw-fill" stroke="none" fill="#484848"><g><text style="font: 20px &quot;Shantell Sans&quot;, cursive; white-space: pre;" font-weight="20px" font-size="&quot;Shantell" font-family="Sans', cursive"><tspan x="14.48" y="35.6" dominant-baseline="ideographic">Unveiling the Dimensions of Demand Forecasting</tspan></text></g></g></g><g id="g-root-tx_demandfo_147cn86sm60p1-fill" data-item-order="1000000000" data-item-id="tx_demandfo_147cn86sm60p1" data-item-class="Label Stroke InsideFill ColorFillBlack ColorStrokeBlack" data-item-index="none" data-renderer-id="0" transform="translate(51, 194)"><g id="tx_demandfo_147cn86sm60p1-fill" stroke="none" fill="#484848"><g><text style="font: bold 20px &quot;Shantell Sans&quot;, cursive; white-space: pre;" font-weight="bold" font-size="20" font-family="'Shantell Sans', cursive"><tspan x="36.14" y="35.6" dominant-baseline="ideographic">Demand </tspan><tspan x="17.24" y="59.6" dominant-baseline="ideographic">Forecasting </tspan><tspan x="21.42" y="83.6" dominant-baseline="ideographic">Dashboard</tspan></text></g></g></g><g id="g-root-0.cu_sy_qun6omsm603s-stroke" data-item-order="999771910" data-item-id="0.cu_sy_qun6omsm603s" data-item-class="Part Indexed_0 Fill Stroke ColorFillGray ColorStrokeBlack" data-item-index="0" data-renderer-id="0" transform="translate(3, 110)"><g id="0.cu_sy_qun6omsm603s-stroke" fill="none" stroke-linecap="round" stroke-linejoin="round" stroke-miterlimit="4" stroke="#ffffff" stroke-width="2"><g><path d="M 250 130C 250 196.2742 196.2742 250 130 250C 63.7258 250 10 196.2742 10 130C 10 63.7258 63.7258 10 130 10C 196.2742 10 250 63.7258 250 130Z"></path></g></g></g><g id="g-root-3.cu_sy_mfg5nasm5xq9-stroke" data-item-order="999771914" data-item-id="3.cu_sy_mfg5nasm5xq9" data-item-class="Part Indexed Fill Stroke" data-item-index="3" data-renderer-id="0" transform="translate(230.1923828125, 248)"><g id="3.cu_sy_mfg5nasm5xq9-stroke" fill="none" stroke-linecap="round" stroke-linejoin="round" stroke-miterlimit="4" stroke="#ffffff" stroke-width="2"><g><path d="M 574.8075 40L 154.8075 40L 21.4665 10C 19.5456 22.7701 15.6123 34.8811 10 46L 154.8075 136L 574.8075 136L 574.8075 40Z"></path></g></g></g><g id="g-root-2.cu_sy_93zn9ysm5zb6-stroke" data-item-order="999771918" data-item-id="2.cu_sy_93zn9ysm5zb6" data-item-class="Part Indexed Fill Stroke" data-item-index="2" data-renderer-id="0" transform="translate(241.6591796875, 182)"><g id="2.cu_sy_93zn9ysm5zb6-stroke" fill="none" stroke-linecap="round" stroke-linejoin="round" stroke-miterlimit="4" stroke="#ffffff" stroke-width="2"><g><path d="M 563.341 10L 143.341 10L 10 40C 10.8832 45.8715 11.341 51.8823 11.341 58C 11.341 64.1177 10.8832 70.1285 10 76L 143.341 106L 563.341 106L 563.341 10Z"></path></g></g></g><g id="g-root-1.cu_sy_1utn6vqsm60oz-stroke" data-item-order="999771922" data-item-id="1.cu_sy_1utn6vqsm60oz" data-item-class="Part Indexed Indexed_1 Fill Stroke" data-item-index="1" data-renderer-id="0" transform="translate(230.1923828125, 86)"><g id="1.cu_sy_1utn6vqsm60oz-stroke" fill="none" stroke-linecap="round" stroke-linejoin="round" stroke-miterlimit="4" stroke="#ffffff" stroke-width="2"><g><path d="M 574.8075 10L 154.8075 10L 10 100C 15.6123 111.1189 19.5456 123.2299 21.4665 136L 154.8075 106L 574.8075 106L 574.8075 10Z"></path></g></g></g><g id="g-root-tx_unveilin_1lymnpysm5ybw-stroke" data-item-order="1000000000" data-item-id="tx_unveilin_1lymnpysm5ybw" data-item-class="Label Stroke Title ColorStrokeBlack" data-item-index="none" data-renderer-id="0" transform="translate(159, 2)"></g><g id="g-root-tx_demandfo_147cn86sm60p1-stroke" data-item-order="1000000000" data-item-id="tx_demandfo_147cn86sm60p1" data-item-class="Label Stroke InsideFill ColorFillBlack ColorStrokeBlack" data-item-index="none" data-renderer-id="0" transform="translate(51, 194)"></g></g></g></svg>