<?xml version="1.0" encoding="utf-8" standalone="yes"?>
<!DOCTYPE svg PUBLIC "-//W3C//DTD SVG 1.1//EN" "http://www.w3.org/Graphics/SVG/1.1/DTD/svg11.dtd">
<svg width="516" height="528" viewBox="0 0 516 528" style="fill:none;stroke:none;fill-rule:evenodd;clip-rule:evenodd;stroke-linecap:round;stroke-linejoin:round;stroke-miterlimit:1.5;" version="1.1" xmlns="http://www.w3.org/2000/svg" xmlns:xlink="http://www.w3.org/1999/xlink"><style id="fontImports">@import url("https://fonts.googleapis.com/css2?family=Roboto:wght@400;700&amp;display=block");</style><rect id="" x="0" y="0" width="516" height="528" style="fill: #ffffff;"></rect><g id="items" style="isolation: isolate"><g id="blend" style="mix-blend-mode:normal"><g id="g-root-3.cu_sy_mdlymursl7gn-fill" data-item-order="999915278" data-item-id="3.cu_sy_mdlymursl7gn" data-item-class="Part Indexed Fill Stroke" data-item-index="3" data-renderer-id="0" transform="translate(301.666015625, 274.4619140625)"><g id="3.cu_sy_mdlymursl7gn-fill" stroke="none" fill="#93c131"><g><path d="M 10.0071 113.523C 10.1785 113.471 10.35 113.42 10.5216 113.368C 17.2332 109.4816 22.3455 87.811 22.3455 61.7569C 22.3455 35.5585 17.1542 13.8288 10.388 10.1182L 10 10C 32.7658 16.8442 57.0146 21.9534 82.3337 25.5382C 88.9611 25.5382 94.3337 41.7563 94.3337 61.7624C 94.3337 81.7684 88.9611 97.9865 82.3337 97.9865C 57.2079 101.544 33.136 106.6026 10.5216 113.368C 10.519 113.37 10.5163 113.371 10.5136 113.373L 10.0071 113.523Z"></path></g></g></g><g id="g-root-3.line_sy_hxsgiersl88w-fill" data-item-order="999915283" data-item-id="3.line_sy_hxsgiersl88w" data-item-class="Curve Stroke Part LeaderLine Indexed ColorStrokeBlack" data-item-index="3" data-renderer-id="0" transform="translate(338, 242)"></g><g id="g-root-2.cu_sy_925g9irsl91l-fill" data-item-order="999915286" data-item-id="2.cu_sy_925g9irsl91l" data-item-class="Part Indexed Fill Stroke" data-item-index="2" data-renderer-id="0" transform="translate(227.896484375, 242.6083984375)"><g id="2.cu_sy_925g9irsl91l-fill" stroke="none" fill="#3bc482"><g><path d="M 83.7774 145.376C 57.0113 153.422 32.2952 163.867 10.3 177.052L 10.7305 176.789C 18.3369 170.28 24.1029 135.487 24.1029 93.6104C 24.1029 51.5914 18.2623 16.709 10.6179 10.3704C 10.4117 10.2471 10.2057 10.1237 10 10L 10.5361 10.3037C 10.5634 10.3256 10.5907 10.3478 10.6179 10.3704C 32.5313 23.4642 57.1358 33.8462 83.7703 41.8534L 84.1575 41.9717C 90.9237 45.6823 96.115 67.412 96.115 93.6104C 96.115 119.675 90.9987 141.352 84.2832 145.226L 83.7774 145.376Z"></path></g></g></g><g id="g-root-2.line_sy_4mby52rsl9tu-fill" data-item-order="999915291" data-item-id="2.line_sy_4mby52rsl9tu" data-item-class="Curve Stroke Part LeaderLine Indexed ColorStrokeBlack" data-item-index="2" data-renderer-id="0" transform="translate(266, 390.822265625)"></g><g id="g-root-1.cu_sy_1usfgyersl79n-fill" data-item-order="999915294" data-item-id="1.cu_sy_1usfgyersl79n" data-item-class="Part Indexed Indexed_1 Fill Stroke" data-item-index="1" data-renderer-id="0" transform="translate(134, 170.22412109375)"><g id="1.cu_sy_1usfgyersl79n-fill" stroke="none" fill="#17b0e3"><g><path d="M 32.0945 317.946C 30.7791 320.598 29.4085 322 28 322C 18.0589 322 10 252.156 10 166C 10 79.8436 18.0589 10 28 10C 29.2637 10 30.497 11.1286 31.6872 13.2759L 32.1311 14.1106C 50.1498 42.2836 74.6012 64.771 103.8952 82.384L 104.4325 82.6877C 112.117 88.8446 117.999 123.826 117.999 165.994C 117.999 207.871 112.233 242.664 104.6269 249.173L 104.1952 249.435C 74.818 267.045 50.2945 289.543 32.2231 317.745L 32.0945 317.946Z"></path></g></g></g><g id="g-root-1.line_sy_1hgyyl2rsl8uk-fill" data-item-order="999915299" data-item-id="1.line_sy_1hgyyl2rsl8uk" data-item-class="Curve Stroke Part LeaderLine Indexed Indexed_1 ColorStrokeBlack" data-item-index="1" data-renderer-id="0" transform="translate(194, 146)"></g><g id="g-root-tx_forecast_dfftsms2kv0r-fill" data-item-order="1000000000" data-item-id="tx_forecast_dfftsms2kv0r" data-item-class="Label Stroke Title ColorFillBlack ColorStrokeBlack" data-item-index="none" data-renderer-id="0" transform="translate(128, 2)"><g id="tx_forecast_dfftsms2kv0r-fill" stroke="none" fill="#484848"><g><text style="font: bold 20px Roboto, sans-serif; white-space: pre;" font-weight="bold" font-size="20" font-family="Roboto, sans-serif"><tspan x="13.1" y="34" dominant-baseline="ideographic">Forecast Simulation Process</tspan></text></g></g></g><g id="g-root-tx_identify_1hd6vtis2ktft-fill" data-item-order="1000000000" data-item-id="tx_identify_1hd6vtis2ktft" data-item-class="Label Stroke Indexed Indexed_1 ColorStrokeBlack" data-item-index="1" data-renderer-id="0" transform="translate(128, 110)"><g id="tx_identify_1hd6vtis2ktft-fill" stroke="none" fill="#484848"><g><text style="font: 20px Roboto, sans-serif; white-space: pre;" font-weight="20px" font-size="Roboto," font-family="sans-serif"><tspan x="12.67" y="34" dominant-baseline="ideographic">Identify Inputs</tspan></text></g></g></g><g id="g-root-tx_runsimul_de6vmes2ksun-fill" data-item-order="1000000000" data-item-id="tx_runsimul_de6vmes2ksun" data-item-class="Label Stroke Indexed ColorStrokeBlack" data-item-index="3" data-renderer-id="0" transform="translate(266, 206)"><g id="tx_runsimul_de6vmes2ksun-fill" stroke="none" fill="#484848"><g><text style="font: 20px Roboto, sans-serif; white-space: pre;" font-weight="20px" font-size="Roboto," font-family="sans-serif"><tspan x="14.92" y="34" dominant-baseline="ideographic">Run Simulation</tspan></text></g></g></g><g id="g-root-tx_userquer_qqwc5ys2ktfu-fill" data-item-order="1000000000" data-item-id="tx_userquer_qqwc5ys2ktfu" data-item-class="Label Stroke ColorStrokeBlack" data-item-index="none" data-renderer-id="0" transform="translate(2, 314)"><g id="tx_userquer_qqwc5ys2ktfu-fill" stroke="none" fill="#484848"><g><text style="font: 20px Roboto, sans-serif; white-space: pre;" font-weight="20px" font-size="Roboto," font-family="sans-serif"><tspan x="14.5" y="34" dominant-baseline="ideographic">User Queries</tspan></text></g></g></g><g id="g-root-add_1cvhyfqs2kv7p-fill" data-item-order="1000000000" data-item-id="add_1cvhyfqs2kv7p" data-item-class="Icon Stroke Indexed Indexed_1 InsideFill InsideColorFill" data-item-index="1" data-renderer-id="0" transform="translate(182, 302)"></g><g id="g-root-1_14489sms2cff0-fill" data-item-order="1000000000" data-item-id="1_14489sms2cff0" data-item-class="Icon Stroke Indexed InsideFill InsideColorFill" data-item-index="2" data-renderer-id="0" transform="translate(254, 302)"></g><g id="g-root-circ_140iqomrspez3-fill" data-item-order="1000000000" data-item-id="circ_140iqomrspez3" data-item-class="Icon Stroke Indexed InsideFill InsideColorFill" data-item-index="3" data-renderer-id="0" transform="translate(326, 302)"></g><g id="g-root-tx_forecast_zknx5is2ktmu-fill" data-item-order="1000000000" data-item-id="tx_forecast_zknx5is2ktmu" data-item-class="Label Stroke ColorStrokeBlack" data-item-index="none" data-renderer-id="0" transform="translate(398, 302)"><g id="tx_forecast_zknx5is2ktmu-fill" stroke="none" fill="#484848"><g><text style="font: 20px Roboto, sans-serif; white-space: pre;" font-weight="20px" font-size="Roboto," font-family="sans-serif"><tspan x="12" y="34" dominant-baseline="ideographic">Forecast </tspan><tspan x="12" y="58" dominant-baseline="ideographic">Results</tspan></text></g></g></g><g id="g-root-tx_paramete_4ijvdis2kuf4-fill" data-item-order="1000000000" data-item-id="tx_paramete_4ijvdis2kuf4" data-item-class="Label Stroke Indexed ColorStrokeBlack" data-item-index="2" data-renderer-id="0" transform="translate(212, 458)"><g id="tx_paramete_4ijvdis2kuf4-fill" stroke="none" fill="#484848"><g><text style="font: 20px Roboto, sans-serif; white-space: pre;" font-weight="20px" font-size="Roboto," font-family="sans-serif"><tspan x="15.18" y="34" dominant-baseline="ideographic">Parameter </tspan><tspan x="22.47" y="58" dominant-baseline="ideographic">Changes</tspan></text></g></g></g><g id="g-root-3.cu_sy_mdlymursl7gn-stroke" data-item-order="999915278" data-item-id="3.cu_sy_mdlymursl7gn" data-item-class="Part Indexed Fill Stroke" data-item-index="3" data-renderer-id="0" transform="translate(301.666015625, 274.4619140625)"><g id="3.cu_sy_mdlymursl7gn-stroke" fill="none" stroke-linecap="round" stroke-linejoin="round" stroke-miterlimit="4" stroke="#ffffff" stroke-width="2"><g><path d="M 10.0071 113.5226C 32.7708 106.6795 57.0172 101.571 82.3337 97.9865C 88.9611 97.9865 94.3337 81.7684 94.3337 61.7624C 94.3337 41.7563 88.9611 25.5382 82.3337 25.5382C 57.0146 21.9534 32.7658 16.8442 10 10L 10.388 10.1182C 17.1541 13.8288 22.3455 35.5585 22.3455 61.7569C 22.3455 87.8214 17.2291 109.4988 10.5136 113.3729L 10.0071 113.5226Z"></path></g></g></g><g id="g-root-3.line_sy_hxsgiersl88w-stroke" data-item-order="999915283" data-item-id="3.line_sy_hxsgiersl88w" data-item-class="Curve Stroke Part LeaderLine Indexed ColorStrokeBlack" data-item-index="3" data-renderer-id="0" transform="translate(338, 242)"><g id="3.line_sy_hxsgiersl88w-stroke" fill="none" stroke-linecap="round" stroke-linejoin="round" stroke-miterlimit="4" stroke="#484848" stroke-width="2"><g><path d="M 10 10L 10 49.57"></path><path d="M 3.5 43.6L 10 50.1L 16.5 43.6" stroke-dasharray="none"></path></g></g></g><g id="g-root-2.cu_sy_925g9irsl91l-stroke" data-item-order="999915286" data-item-id="2.cu_sy_925g9irsl91l" data-item-class="Part Indexed Fill Stroke" data-item-index="2" data-renderer-id="0" transform="translate(227.896484375, 242.6083984375)"><g id="2.cu_sy_925g9irsl91l-stroke" fill="none" stroke-linecap="round" stroke-linejoin="round" stroke-miterlimit="4" stroke="#ffffff" stroke-width="2"><g><path d="M 10.3 177.0515C 32.2952 163.8667 57.0113 153.4223 83.7774 145.376L 84.2832 145.2264C 90.9987 141.3523 96.115 119.6749 96.115 93.6104C 96.115 67.412 90.9237 45.6823 84.1575 41.9717L 83.7703 41.8534C 56.8852 33.7708 32.0685 23.2686 10 10L 10.5361 10.3037C 18.2206 16.4606 24.1029 51.4418 24.1029 93.6104C 24.1029 135.4871 18.3369 170.28 10.7305 176.7889L 10.3 177.0515Z"></path></g></g></g><g id="g-root-2.line_sy_4mby52rsl9tu-stroke" data-item-order="999915291" data-item-id="2.line_sy_4mby52rsl9tu" data-item-class="Curve Stroke Part LeaderLine Indexed ColorStrokeBlack" data-item-index="2" data-renderer-id="0" transform="translate(266, 390.822265625)"><g id="2.line_sy_4mby52rsl9tu-stroke" fill="none" stroke-linecap="round" stroke-linejoin="round" stroke-miterlimit="4" stroke="#484848" stroke-width="2"><g><path d="M 10 11.997803L 10 65.177803"></path><path d="M 16.5 17.997803L 10 11.497803L 3.5 17.997803" stroke-dasharray="none"></path></g></g></g><g id="g-root-1.cu_sy_1usfgyersl79n-stroke" data-item-order="999915294" data-item-id="1.cu_sy_1usfgyersl79n" data-item-class="Part Indexed Indexed_1 Fill Stroke" data-item-index="1" data-renderer-id="0" transform="translate(134, 170.22412109375)"><g id="1.cu_sy_1usfgyersl79n-stroke" fill="none" stroke-linecap="round" stroke-linejoin="round" stroke-miterlimit="4" stroke="#ffffff" stroke-width="2"><g><path d="M 10 166C 10 252.156423 18.058875 322.000002 28 322.000002C 37.941126 322.000002 46 252.156423 46 166.000002C 46 79.843581 37.941126 10.000002 28 10.000002C 18.058875 10.000002 10 79.843581 10 166.000002M 30.074219 320.97261C 45.467319 295.23131 71.154719 268.35161 104.203419 249.35271C 109.864619 246.09831 118.000519 218.34721 118.000519 166.01021C 118.000519 116.93921 110.939919 86.20591 103.552119 81.87111C 68.921119 61.55131 45.323919 34.67681 30.096419 11.04541"></path></g></g></g><g id="g-root-1.line_sy_1hgyyl2rsl8uk-stroke" data-item-order="999915299" data-item-id="1.line_sy_1hgyyl2rsl8uk" data-item-class="Curve Stroke Part LeaderLine Indexed Indexed_1 ColorStrokeBlack" data-item-index="1" data-renderer-id="0" transform="translate(194, 146)"><g id="1.line_sy_1hgyyl2rsl8uk-stroke" fill="none" stroke-linecap="round" stroke-linejoin="round" stroke-miterlimit="4" stroke="#484848" stroke-width="2"><g><path d="M 10 10L 10 80"></path><path d="M 3.5 74L 10 80.5L 16.5 74" stroke-dasharray="none"></path></g></g></g><g id="g-root-tx_forecast_dfftsms2kv0r-stroke" data-item-order="1000000000" data-item-id="tx_forecast_dfftsms2kv0r" data-item-class="Label Stroke Title ColorFillBlack ColorStrokeBlack" data-item-index="none" data-renderer-id="0" transform="translate(128, 2)"></g><g id="g-root-tx_identify_1hd6vtis2ktft-stroke" data-item-order="1000000000" data-item-id="tx_identify_1hd6vtis2ktft" data-item-class="Label Stroke Indexed Indexed_1 ColorStrokeBlack" data-item-index="1" data-renderer-id="0" transform="translate(128, 110)"></g><g id="g-root-tx_runsimul_de6vmes2ksun-stroke" data-item-order="1000000000" data-item-id="tx_runsimul_de6vmes2ksun" data-item-class="Label Stroke Indexed ColorStrokeBlack" data-item-index="3" data-renderer-id="0" transform="translate(266, 206)"></g><g id="g-root-tx_userquer_qqwc5ys2ktfu-stroke" data-item-order="1000000000" data-item-id="tx_userquer_qqwc5ys2ktfu" data-item-class="Label Stroke ColorStrokeBlack" data-item-index="none" data-renderer-id="0" transform="translate(2, 314)"></g><g id="g-root-add_1cvhyfqs2kv7p-stroke" data-item-order="1000000000" data-item-id="add_1cvhyfqs2kv7p" data-item-class="Icon Stroke Indexed Indexed_1 InsideFill InsideColorFill" data-item-index="1" data-renderer-id="0" transform="translate(182, 302)"><g id="add_1cvhyfqs2kv7p-stroke" fill="none" stroke-linecap="round" stroke-linejoin="round" stroke-miterlimit="4" stroke="#ffffff" stroke-width="2"><g><path d="M 19 14.996L 47 14.996M 19 24.996L 47 24.996M 19 34.996002L 31 34.996002M 19 44.995998L 31 44.995998M 11 14.996L 13 14.996M 11 24.996L 13 24.996M 11 34.996002L 13 34.996002M 11 44.995998L 13 44.995998M 37 46.995998C 37 52.518848 41.477154 56.996002 47 56.996002C 52.522846 56.996002 57 52.518848 57 46.996002C 57 41.473152 52.522846 36.996002 47 36.996002C 41.477154 36.996002 37 41.473152 37 46.996002ZM 52 46.995998L 42 46.995998M 47 51.995998L 47 41.996002"></path></g></g></g><g id="g-root-1_14489sms2cff0-stroke" data-item-order="1000000000" data-item-id="1_14489sms2cff0" data-item-class="Icon Stroke Indexed InsideFill InsideColorFill" data-item-index="2" data-renderer-id="0" transform="translate(254, 302)"><g id="1_14489sms2cff0-stroke" fill="none" stroke-linecap="round" stroke-linejoin="round" stroke-miterlimit="4" stroke="#ffffff" stroke-width="2"><g><path d="M 50.507999 37L 55 37C 56.104568 37 57 36.104568 57 35L 57 33C 57 31.89543 56.104568 31 55 31L 50.506001 31C 50.098537 28.973351 49.426094 27.00915 48.506001 25.158001L 51.683998 21.98C 52.464764 21.199001 52.464764 19.932999 51.683998 19.152L 48.848 16.323999C 48.067001 15.543236 46.800999 15.543236 46.02 16.323999L 42.84 19.501999C 40.989929 18.580994 39.026268 17.908504 37 17.501999L 37 13C 37 11.895431 36.104568 11 35 11L 33 11C 31.89543 11 31 11.895431 31 13L 31 17.498001C 28.973091 17.904495 27.008762 18.576979 25.158001 19.498001L 21.978001 16.323999C 21.197001 15.543236 19.931 15.543236 19.15 16.323999L 16.322001 19.153999C 15.541236 19.934999 15.541236 21.201 16.322001 21.982L 19.5 25.16C 18.580803 27.011524 17.908401 28.975605 17.5 31.002001L 13 31.002001C 11.895431 31.002001 11 31.89743 11 33.001999L 11 35.001999C 11 36.106567 11.895431 37.001999 13 37.001999L 17.492001 37.001999C 17.900402 39.028397 18.572803 40.992477 19.492001 42.844002L 16.312 46.023998C 15.531237 46.805 15.531237 48.070999 16.312 48.852001L 19.15 51.68C 19.931 52.460762 21.197001 52.460762 21.978001 51.68L 25.156 48.5C 27.007635 49.420601 28.972567 50.093063 30.999998 50.499996L 31 55C 31 56.104568 31.89543 57 33 57L 35 57C 36.104568 57 37 56.104568 37 55L 37 50.509998C 39.026085 50.102818 40.989662 49.430359 42.84 48.510002L 46.021999 51.688C 46.803001 52.468765 48.069 52.468765 48.849998 51.688L 51.678001 48.860001C 52.458763 48.078999 52.458763 46.813 51.678001 46.032001L 48.5 42.852001C 49.422783 40.997711 50.097897 39.030205 50.507999 37ZM 22 34.001999C 22 40.629417 27.372583 46.001999 34 46.001999C 40.627419 46.001999 46 40.629417 46 34.001999C 46 27.374584 40.627419 22.002001 34 22.002001C 27.372583 22.002001 22 27.374584 22 34.001999ZM 31 28.128L 31 40.001999L 40.042 34.001999L 31 28.128Z"></path></g></g></g><g id="g-root-circ_140iqomrspez3-stroke" data-item-order="1000000000" data-item-id="circ_140iqomrspez3" data-item-class="Icon Stroke Indexed InsideFill InsideColorFill" data-item-index="3" data-renderer-id="0" transform="translate(326, 302)"><g id="circ_140iqomrspez3-stroke" fill="none" stroke-linecap="round" stroke-linejoin="round" stroke-miterlimit="4" stroke="#ffffff" stroke-width="2"><g><path d="M 11.714286 34C 11.714287 46.308064 21.69194 56.285713 34 56.285713C 46.308064 56.285713 56.285713 46.308064 56.285713 34C 56.285713 21.69194 46.308064 11.714287 34 11.714287C 21.69194 11.714287 11.714287 21.69194 11.714287 34M 28.857143 25.428572L 42.57143 34L 28.857143 42.57143L 28.857143 25.428572Z"></path></g></g></g><g id="g-root-tx_forecast_zknx5is2ktmu-stroke" data-item-order="1000000000" data-item-id="tx_forecast_zknx5is2ktmu" data-item-class="Label Stroke ColorStrokeBlack" data-item-index="none" data-renderer-id="0" transform="translate(398, 302)"></g><g id="g-root-tx_paramete_4ijvdis2kuf4-stroke" data-item-order="1000000000" data-item-id="tx_paramete_4ijvdis2kuf4" data-item-class="Label Stroke Indexed ColorStrokeBlack" data-item-index="2" data-renderer-id="0" transform="translate(212, 458)"></g></g></g></svg>