<?xml version="1.0" encoding="utf-8" standalone="yes"?>
<!DOCTYPE svg PUBLIC "-//W3C//DTD SVG 1.1//EN" "http://www.w3.org/Graphics/SVG/1.1/DTD/svg11.dtd">
<svg width="819" height="397" viewBox="0 0 819 397" style="fill:none;stroke:none;fill-rule:evenodd;clip-rule:evenodd;stroke-linecap:round;stroke-linejoin:round;stroke-miterlimit:1.5;" version="1.1" xmlns="http://www.w3.org/2000/svg" xmlns:xlink="http://www.w3.org/1999/xlink"><style id="fontImports">@import url("https://fonts.googleapis.com/css2?family=Shantell+Sans:wght@300..800&amp;display=block");</style><rect id="" x="0" y="0" width="818" height="397" style="fill: #ffffff;"></rect><g id="items" style="isolation: isolate"><g id="blend" style="mix-blend-mode:normal"><g id="g-root-0.cu_sy_qun6omsm603s-fill" data-item-order="999771910" data-item-id="0.cu_sy_qun6omsm603s" data-item-class="Part Indexed_0 Fill Stroke ColorFillGray ColorStrokeBlack" data-item-index="0" data-renderer-id="0" transform="translate(3, 110)"><g id="0.cu_sy_qun6omsm603s-fill" stroke="none" fill="#eaeaea"><g><path d="M 250 130C 250 196.274 196.274 250 130 250C 63.7258 250 10 196.274 10 130C 10 63.7258 63.7258 10 130 10C 196.274 10 250 63.7258 250 130Z"></path></g></g></g><g id="g-root-3.cu_sy_mfg5nasm5xq9-fill" data-item-order="999771914" data-item-id="3.cu_sy_mfg5nasm5xq9" data-item-class="Part Indexed Fill Stroke" data-item-index="3" data-renderer-id="0" transform="translate(230.1923828125, 248)"><g id="3.cu_sy_mfg5nasm5xq9-fill" stroke="none" fill="#ecf7d5"><g><path d="M 574.807 40L 154.807 40L 21.4665 10C 19.5456 22.7701 15.6123 34.8811 10 46L 154.807 136L 574.807 136L 574.807 40Z"></path></g></g></g><g id="g-root-2.cu_sy_93zn9ysm5zb6-fill" data-item-order="999771918" data-item-id="2.cu_sy_93zn9ysm5zb6" data-item-class="Part Indexed Fill Stroke" data-item-index="2" data-renderer-id="0" transform="translate(241.6591796875, 182)"><g id="2.cu_sy_93zn9ysm5zb6-fill" stroke="none" fill="#d5f7e8"><g><path d="M 563.341 10L 143.341 10L 10 40C 10.8832 45.8715 11.341 51.8823 11.341 58C 11.341 64.1177 10.8832 70.1285 10 76L 143.341 106L 563.341 106L 563.341 10Z"></path></g></g></g><g id="g-root-1.cu_sy_1utn6vqsm60oz-fill" data-item-order="999771922" data-item-id="1.cu_sy_1utn6vqsm60oz" data-item-class="Part Indexed Indexed_1 Fill Stroke" data-item-index="1" data-renderer-id="0" transform="translate(230.1923828125, 86)"><g id="1.cu_sy_1utn6vqsm60oz-fill" stroke="none" fill="#cef3ff"><g><path d="M 574.807 10L 154.807 10L 10 100C 15.6123 111.119 19.5456 123.23 21.4665 136L 154.807 106L 574.807 106L 574.807 10Z"></path></g></g></g><g id="g-root-tx_unveilin_1lymnpysm5ybw-fill" data-item-order="1000000000" data-item-id="tx_unveilin_1lymnpysm5ybw" data-item-class="Label Stroke Title ColorStrokeBlack" data-item-index="none" data-renderer-id="0" transform="translate(159, 2)"><g id="tx_unveilin_1lymnpysm5ybw-fill" stroke="none" fill="#484848"><g><text style="font: 20px &quot;Shantell Sans&quot;, cursive; white-space: pre;" font-weight="20px" font-size="&quot;Shantell" font-family="Sans', cursive"><tspan x="14.48" y="35.6" dominant-baseline="ideographic">Unveiling the Dimensions of Demand Forecasting</tspan></text></g></g></g><g id="g-root-grap_qn5kt2sm8t1c-fill" data-item-order="1000000000" data-item-id="grap_qn5kt2sm8t1c" data-item-class="Icon Stroke Indexed Indexed_1 InsideFill InsideColorFill" data-item-index="1" data-renderer-id="0" transform="translate(411, 110)"></g><g id="g-root-tx_historic_i0vlp2sm5zwu-fill" data-item-order="1000000000" data-item-id="tx_historic_i0vlp2sm5zwu" data-item-class="Label Stroke Indexed Indexed_1 InsideFill InsideColorFill" data-item-index="1" data-renderer-id="0" transform="translate(471, 122)"><g id="tx_historic_i0vlp2sm5zwu-fill" stroke="none" fill="#17b0e3"><g><text style="font: 20px &quot;Shantell Sans&quot;, cursive; white-space: pre;" font-weight="20px" font-size="&quot;Shantell" font-family="Sans', cursive"><tspan x="12" y="35.6" dominant-baseline="ideographic">Historical Sales Data</tspan></text></g></g></g><g id="g-root-tx_demandfo_147cn86sm60p1-fill" data-item-order="1000000000" data-item-id="tx_demandfo_147cn86sm60p1" data-item-class="Label Stroke InsideFill ColorFillBlack ColorStrokeBlack" data-item-index="none" data-renderer-id="0" transform="translate(51, 194)"><g id="tx_demandfo_147cn86sm60p1-fill" stroke="none" fill="#484848"><g><text style="font: bold 20px &quot;Shantell Sans&quot;, cursive; white-space: pre;" font-weight="bold" font-size="20" font-family="'Shantell Sans', cursive"><tspan x="36.14" y="35.6" dominant-baseline="ideographic">Demand </tspan><tspan x="17.24" y="59.6" dominant-baseline="ideographic">Forecasting </tspan><tspan x="21.42" y="83.6" dominant-baseline="ideographic">Dashboard</tspan></text></g></g></g><g id="g-root-3_18fopsmsm4lxg-fill" data-item-order="1000000000" data-item-id="3_18fopsmsm4lxg" data-item-class="Icon Stroke Indexed InsideFill InsideColorFill" data-item-index="2" data-renderer-id="0" transform="translate(411, 206)"></g><g id="g-root-tx_futureva_4g1z12sm7cwf-fill" data-item-order="1000000000" data-item-id="tx_futureva_4g1z12sm7cwf" data-item-class="Label Stroke Indexed InsideFill InsideColorFill" data-item-index="2" data-renderer-id="0" transform="translate(471, 218)"><g id="tx_futureva_4g1z12sm7cwf-fill" stroke="none" fill="#3bc482"><g><text style="font: 20px &quot;Shantell Sans&quot;, cursive; white-space: pre;" font-weight="20px" font-size="&quot;Shantell" font-family="Sans', cursive"><tspan x="12" y="35.6" dominant-baseline="ideographic">Future Variables</tspan></text></g></g></g><g id="g-root-1_4m1zqsmfu31-fill" data-item-order="1000000000" data-item-id="1_4m1zqsmfu31" data-item-class="Icon Stroke Indexed InsideFill InsideColorFill" data-item-index="3" data-renderer-id="0" transform="translate(411, 302)"></g><g id="g-root-tx_forecast_1ulj0rasm7e9s-fill" data-item-order="1000000000" data-item-id="tx_forecast_1ulj0rasm7e9s" data-item-class="Label Stroke Indexed InsideFill InsideColorFill" data-item-index="3" data-renderer-id="0" transform="translate(471, 314)"><g id="tx_forecast_1ulj0rasm7e9s-fill" stroke="none" fill="#93c131"><g><text style="font: 20px &quot;Shantell Sans&quot;, cursive; white-space: pre;" font-weight="20px" font-size="&quot;Shantell" font-family="Sans', cursive"><tspan x="12" y="35.6" dominant-baseline="ideographic">Forecast Storage</tspan></text></g></g></g><g id="g-root-0.cu_sy_qun6omsm603s-stroke" data-item-order="999771910" data-item-id="0.cu_sy_qun6omsm603s" data-item-class="Part Indexed_0 Fill Stroke ColorFillGray ColorStrokeBlack" data-item-index="0" data-renderer-id="0" transform="translate(3, 110)"><g id="0.cu_sy_qun6omsm603s-stroke" fill="none" stroke-linecap="round" stroke-linejoin="round" stroke-miterlimit="4" stroke="#ffffff" stroke-width="2"><g><path d="M 250 130C 250 196.2742 196.2742 250 130 250C 63.7258 250 10 196.2742 10 130C 10 63.7258 63.7258 10 130 10C 196.2742 10 250 63.7258 250 130Z"></path></g></g></g><g id="g-root-3.cu_sy_mfg5nasm5xq9-stroke" data-item-order="999771914" data-item-id="3.cu_sy_mfg5nasm5xq9" data-item-class="Part Indexed Fill Stroke" data-item-index="3" data-renderer-id="0" transform="translate(230.1923828125, 248)"><g id="3.cu_sy_mfg5nasm5xq9-stroke" fill="none" stroke-linecap="round" stroke-linejoin="round" stroke-miterlimit="4" stroke="#ffffff" stroke-width="2"><g><path d="M 574.8075 40L 154.8075 40L 21.4665 10C 19.5456 22.7701 15.6123 34.8811 10 46L 154.8075 136L 574.8075 136L 574.8075 40Z"></path></g></g></g><g id="g-root-2.cu_sy_93zn9ysm5zb6-stroke" data-item-order="999771918" data-item-id="2.cu_sy_93zn9ysm5zb6" data-item-class="Part Indexed Fill Stroke" data-item-index="2" data-renderer-id="0" transform="translate(241.6591796875, 182)"><g id="2.cu_sy_93zn9ysm5zb6-stroke" fill="none" stroke-linecap="round" stroke-linejoin="round" stroke-miterlimit="4" stroke="#ffffff" stroke-width="2"><g><path d="M 563.341 10L 143.341 10L 10 40C 10.8832 45.8715 11.341 51.8823 11.341 58C 11.341 64.1177 10.8832 70.1285 10 76L 143.341 106L 563.341 106L 563.341 10Z"></path></g></g></g><g id="g-root-1.cu_sy_1utn6vqsm60oz-stroke" data-item-order="999771922" data-item-id="1.cu_sy_1utn6vqsm60oz" data-item-class="Part Indexed Indexed_1 Fill Stroke" data-item-index="1" data-renderer-id="0" transform="translate(230.1923828125, 86)"><g id="1.cu_sy_1utn6vqsm60oz-stroke" fill="none" stroke-linecap="round" stroke-linejoin="round" stroke-miterlimit="4" stroke="#ffffff" stroke-width="2"><g><path d="M 574.8075 10L 154.8075 10L 10 100C 15.6123 111.1189 19.5456 123.2299 21.4665 136L 154.8075 106L 574.8075 106L 574.8075 10Z"></path></g></g></g><g id="g-root-tx_unveilin_1lymnpysm5ybw-stroke" data-item-order="1000000000" data-item-id="tx_unveilin_1lymnpysm5ybw" data-item-class="Label Stroke Title ColorStrokeBlack" data-item-index="none" data-renderer-id="0" transform="translate(159, 2)"></g><g id="g-root-grap_qn5kt2sm8t1c-stroke" data-item-order="1000000000" data-item-id="grap_qn5kt2sm8t1c" data-item-class="Icon Stroke Indexed Indexed_1 InsideFill InsideColorFill" data-item-index="1" data-renderer-id="0" transform="translate(411, 110)"><g id="grap_qn5kt2sm8t1c-stroke" fill="none" stroke-linecap="round" stroke-linejoin="round" stroke-miterlimit="4" stroke="#17b0e3" stroke-width="2"><g><path d="M 14.007999 15L 54.007999 15C 54.007999 15 56.007999 15 56.007999 17L 56.007999 45C 56.007999 45 56.007999 47 54.007999 47L 14.007999 47C 14.007999 47 12.007999 47 12.007999 45L 12.007999 17C 12.007999 17 12.007999 15 14.007999 15M 17 33L 20.778 29.23C 21.153137 28.854446 21.662182 28.643427 22.193001 28.643427C 22.72382 28.643427 23.232864 28.854446 23.608 29.23L 25.964001 31.586C 26.744999 32.366764 28.011 32.366764 28.792 31.586L 34.391998 25.986C 35.173 25.205236 36.439003 25.205236 37.220001 25.986L 41.521999 30.288C 42.303001 31.068764 43.569 31.068764 44.349998 30.288L 52 22.630001M 46.007999 37L 52.007999 37M 52.007999 41L 42.007999 41M 34.007999 11L 34.007999 15M 34.007999 47L 34.007999 52M 34.007999 52L 27.007999 57M 34.007999 52L 41.007999 57"></path></g></g></g><g id="g-root-tx_historic_i0vlp2sm5zwu-stroke" data-item-order="1000000000" data-item-id="tx_historic_i0vlp2sm5zwu" data-item-class="Label Stroke Indexed Indexed_1 InsideFill InsideColorFill" data-item-index="1" data-renderer-id="0" transform="translate(471, 122)"></g><g id="g-root-tx_demandfo_147cn86sm60p1-stroke" data-item-order="1000000000" data-item-id="tx_demandfo_147cn86sm60p1" data-item-class="Label Stroke InsideFill ColorFillBlack ColorStrokeBlack" data-item-index="none" data-renderer-id="0" transform="translate(51, 194)"></g><g id="g-root-3_18fopsmsm4lxg-stroke" data-item-order="1000000000" data-item-id="3_18fopsmsm4lxg" data-item-class="Icon Stroke Indexed InsideFill InsideColorFill" data-item-index="2" data-renderer-id="0" transform="translate(411, 206)"><g id="3_18fopsmsm4lxg-stroke" fill="none" stroke-linecap="round" stroke-linejoin="round" stroke-miterlimit="4" stroke="#3bc482" stroke-width="2"><g><path d="M 12.562 36.23C 12.563679 26.40909 19.371765 17.900902 28.953245 15.745562C 38.534729 13.59022 48.330441 18.363407 52.537548 27.237556C 56.744652 36.11171 54.239456 46.716579 46.506001 52.77M 46.436001 44.77L 46.433998 52.77L 55.438 52.77M 23.434 36.23L 33.562 36.23L 39.354 43.467999"></path></g></g></g><g id="g-root-tx_futureva_4g1z12sm7cwf-stroke" data-item-order="1000000000" data-item-id="tx_futureva_4g1z12sm7cwf" data-item-class="Label Stroke Indexed InsideFill InsideColorFill" data-item-index="2" data-renderer-id="0" transform="translate(471, 218)"></g><g id="g-root-1_4m1zqsmfu31-stroke" data-item-order="1000000000" data-item-id="1_4m1zqsmfu31" data-item-class="Icon Stroke Indexed InsideFill InsideColorFill" data-item-index="3" data-renderer-id="0" transform="translate(411, 302)"><g id="1_4m1zqsmfu31-stroke" fill="none" stroke-linecap="round" stroke-linejoin="round" stroke-miterlimit="4" stroke="#93c131" stroke-width="2"><g><path d="M 15.142858 39.142857L 15.142858 54.57143C 15.142858 55.518204 15.910369 56.285713 16.857143 56.285713L 51.142857 56.285713C 52.08963 56.285713 52.857143 55.518204 52.857143 54.57143L 52.857143 39.142857M 37.428574 39.142857L 37.428574 56.285713M 15.142858 44.285713L 37.428574 44.285713M 11.714286 23.714287L 16.857143 11.714286L 51.142857 11.714286L 56.285713 23.714287L 11.714286 23.714287ZM 26.285715 23.714287L 26.285715 27.142857C 26.285715 30.929953 23.215666 34 19.428572 34L 18.468571 34C 14.681476 34 11.611428 30.929953 11.611428 27.142857L 11.611428 23.714287M 41.714287 23.714287L 41.714287 27.142857C 41.714287 30.929953 38.644238 34 34.857143 34L 33.142857 34C 29.355762 34 26.285715 30.929953 26.285715 27.142857L 26.285715 23.714287M 56.285713 23.714287L 56.285713 27.142857C 56.285713 30.929953 53.215668 34 49.428574 34L 48.57143 34C 44.784332 34 41.714287 30.929953 41.714287 27.142857L 41.714287 23.714287"></path></g></g></g><g id="g-root-tx_forecast_1ulj0rasm7e9s-stroke" data-item-order="1000000000" data-item-id="tx_forecast_1ulj0rasm7e9s" data-item-class="Label Stroke Indexed InsideFill InsideColorFill" data-item-index="3" data-renderer-id="0" transform="translate(471, 314)"></g></g></g></svg>