<?xml version="1.0" encoding="utf-8" standalone="yes"?>
<!DOCTYPE svg PUBLIC "-//W3C//DTD SVG 1.1//EN" "http://www.w3.org/Graphics/SVG/1.1/DTD/svg11.dtd">
<svg width="696" height="276" viewBox="0 0 696 276" style="fill:none;stroke:none;fill-rule:evenodd;clip-rule:evenodd;stroke-linecap:round;stroke-linejoin:round;stroke-miterlimit:1.5;" version="1.1" xmlns="http://www.w3.org/2000/svg" xmlns:xlink="http://www.w3.org/1999/xlink"><style id="fontImports">@import url("https://fonts.googleapis.com/css2?family=Roboto:wght@400;700&amp;display=block");</style><rect id="" x="0" y="0" width="696" height="276" style="fill: #ffffff;"></rect><g id="items" style="isolation: isolate"><g id="blend" style="mix-blend-mode:normal"><g id="g-root-0.cu_sy_zpouzatq8lxo-fill" data-item-order="999966598" data-item-id="0.cu_sy_zpouzatq8lxo" data-item-class="Part Indexed_0 Fill Stroke ColorFillBlack ColorStrokeGray" data-item-index="0" data-renderer-id="0" transform="translate(302, 71)"><g id="0.cu_sy_zpouzatq8lxo-fill" stroke="none" fill="url(#gradient-999999-232777082)"><g><path d="M 76 12C 76 10.8954 76.8954 10 78 10L 82 10L 82 40L 78 40C 76.8954 40 76 39.1046 76 38L 76 37.7561C 65.6486 40.4204 58 49.817 58 61L 58 76.2108C 61.6435 78.3185 64.6816 81.3565 66.7892 85L 76 85L 76 84C 76 82.8954 76.8954 82 78 82L 82 82L 82 112L 78 112C 76.8954 112 76 111.105 76 110L 76 109L 66.7892 109C 64.6816 112.644 61.6435 115.682 58 117.789L 58 133C 58 144.183 65.6486 153.58 76 156.244L 76 156C 76 154.895 76.8954 154 78 154L 82 154L 82 184L 78 184C 76.8954 184 76 183.105 76 182L 76 180.629C 52.3221 177.676 34 157.478 34 133L 34 117.789C 30.3565 115.682 27.3184 112.644 25.2108 109L 16 109L 16 110C 16 111.105 15.1046 112 14 112L 10 112L 10 82L 14 82C 15.1046 82 16 82.8954 16 84L 16 85L 25.2108 85C 27.3184 81.3565 30.3565 78.3184 34 76.2108L 34 61C 34 36.5223 52.3221 16.324 76 13.3714L 76 12Z"></path></g></g></g><g id="g-root-0.cu_1_sy_vahtxytq8jk5-fill" data-item-order="999966600" data-item-id="0.cu_1_sy_vahtxytq8jk5" data-item-class="Part Indexed_0 Fill Stroke ColorFillBlack ColorStrokeGray" data-item-index="0" data-renderer-id="0" transform="translate(242, 143)"><g id="0.cu_1_sy_vahtxytq8jk5-fill" stroke="none" fill="url(#gradient-999999-232777082)"><g><path d="M 64 12C 64 10.8954 64.8954 10 66 10L 70 10L 70 40L 66 40C 64.8954 40 64 39.1046 64 38L 64 37L 16 37L 16 38C 16 39.1046 15.1046 40 14 40L 10 40L 10 10L 14 10C 15.1046 10 16 10.8954 16 12L 16 13L 64 13L 64 12Z"></path></g></g></g><g id="g-root-3.cu_sy_meutp2tq8kcu-fill" data-item-order="999966604" data-item-id="3.cu_sy_meutp2tq8kcu" data-item-class="Part Indexed Fill Stroke" data-item-index="3" data-renderer-id="0" transform="translate(374, 215)"><g id="3.cu_sy_meutp2tq8kcu-fill" stroke="none" fill="url(#gradient-b8e45c-154771520)"><g><path d="M 70 40L 66 40C 64.8954 40 64 39.1046 64 38L 64 37L 16 37L 16 38C 16 39.1046 15.1046 40 14 40L 10 40L 10 10L 14 10C 15.1046 10 16 10.8954 16 12L 16 13L 64 13L 64 12C 64 10.8954 64.8954 10 66 10L 70 10L 70 40Z"></path></g></g></g><g id="g-root-2.cu_sy_93ebbqtq8lxr-fill" data-item-order="999966608" data-item-id="2.cu_sy_93ebbqtq8lxr" data-item-class="Part Indexed Fill Stroke" data-item-index="2" data-renderer-id="0" transform="translate(374, 143)"><g id="2.cu_sy_93ebbqtq8lxr-fill" stroke="none" fill="url(#gradient-65e5a8-188701211)"><g><path d="M 70 40L 66 40C 64.8954 40 64 39.1046 64 38L 64 37L 16 37L 16 38C 16 39.1046 15.1046 40 14 40L 10 40L 10 10L 14 10C 15.1046 10 16 10.8954 16 12L 16 13L 64 13L 64 12C 64 10.8954 64.8954 10 66 10L 70 10L 70 40Z"></path></g></g></g><g id="g-root-1.cu_sy_4o7aaetq8jk8-fill" data-item-order="999966612" data-item-id="1.cu_sy_4o7aaetq8jk8" data-item-class="Part Indexed Indexed_1 Fill Stroke" data-item-index="1" data-renderer-id="0" transform="translate(374, 71)"><defs><linearGradient id="gradient-999999-232777082" x2="0" y2="1"><stop offset="0" stop-color="#cccccc"></stop><stop offset="1" stop-color="#666666"></stop></linearGradient><linearGradient id="gradient-b8e45c-154771520" x2="0" y2="1"><stop offset="0" stop-color="#c8ea80"></stop><stop offset="1" stop-color="#A8DD38"></stop></linearGradient><linearGradient id="gradient-65e5a8-188701211" x2="0" y2="1"><stop offset="0" stop-color="#85eaba"></stop><stop offset="1" stop-color="#44E095"></stop></linearGradient><linearGradient id="gradient-44d0ff-453494305" x2="0" y2="1"><stop offset="0" stop-color="#6ddafe"></stop><stop offset="1" stop-color="#1AC6FF"></stop></linearGradient></defs><g id="1.cu_sy_4o7aaetq8jk8-fill" stroke="none" fill="url(#gradient-44d0ff-453494305)"><g><path d="M 70 40L 66 40C 64.8954 40 64 39.1046 64 38L 64 37L 16 37L 16 38C 16 39.1046 15.1046 40 14 40L 10 40L 10 10L 14 10C 15.1046 10 16 10.8954 16 12L 16 13L 64 13L 64 12C 64 10.8954 64.8954 10 66 10L 70 10L 70 40Z"></path></g></g></g><g id="g-root--1.cu_sy_8ds5ytq8kch-fill" data-item-order="999966615" data-item-id="-1.cu_sy_8ds5ytq8kch" data-item-class="Curve Stroke Part ColorStrokeBlack" data-item-index="-1" data-renderer-id="0" transform="translate(320, 140)"></g><g id="g-root-tx_enhancin_1cua5eetqa03q-fill" data-item-order="1000000000" data-item-id="tx_enhancin_1cua5eetqa03q" data-item-class="Label Stroke Title ColorStrokeBlack" data-item-index="none" data-renderer-id="0" transform="translate(80, 2)"><g id="tx_enhancin_1cua5eetqa03q-fill" stroke="none" fill="#484848"><g><text style="font: 20px Roboto, sans-serif; white-space: pre;" font-weight="20px" font-size="Roboto," font-family="sans-serif"><tspan x="12.77" y="34" dominant-baseline="ideographic">Enhancing Banking Customer Interactions with Workmate</tspan></text></g></g></g><g id="g-root-tx_contextu_mgq8yetq8jd8-fill" data-item-order="1000000000" data-item-id="tx_contextu_mgq8yetq8jd8" data-item-class="Label Stroke Indexed Indexed_1 ColorStrokeBlack" data-item-index="1" data-renderer-id="0" transform="translate(458, 62)"><g id="tx_contextu_mgq8yetq8jd8-fill" stroke="none" fill="#484848"><g><text style="font: 20px Roboto, sans-serif; white-space: pre;" font-weight="20px" font-size="Roboto," font-family="sans-serif"><tspan x="12" y="34" dominant-baseline="ideographic">Contextual </tspan><tspan x="12" y="58" dominant-baseline="ideographic">Recommendations</tspan></text></g></g></g><g id="g-root-tx_workmate_959ql2tq8ky5-fill" data-item-order="1000000000" data-item-id="tx_workmate_959ql2tq8ky5" data-item-class="Label Stroke ColorStrokeBlack" data-item-index="none" data-renderer-id="0" transform="translate(2, 134)"><g id="tx_workmate_959ql2tq8ky5-fill" stroke="none" fill="#484848"><g><text style="font: 20px Roboto, sans-serif; white-space: pre;" font-weight="20px" font-size="Roboto," font-family="sans-serif"><tspan x="14.01" y="34" dominant-baseline="ideographic">Workmate for Real-time </tspan><tspan x="29.98" y="58" dominant-baseline="ideographic">Customer Intelligence</tspan></text></g></g></g><g id="g-root-tx_empowere_18n7ahitq8k5f-fill" data-item-order="1000000000" data-item-id="tx_empowere_18n7ahitq8k5f" data-item-class="Label Stroke Indexed ColorStrokeBlack" data-item-index="2" data-renderer-id="0" transform="translate(458, 134)"><g id="tx_empowere_18n7ahitq8k5f-fill" stroke="none" fill="#484848"><g><text style="font: 20px Roboto, sans-serif; white-space: pre;" font-weight="20px" font-size="Roboto," font-family="sans-serif"><tspan x="12" y="34" dominant-baseline="ideographic">Empowered </tspan><tspan x="12" y="58" dominant-baseline="ideographic">Relationship Managers</tspan></text></g></g></g><g id="g-root-tx_improved_8ds5ytq8kci-fill" data-item-order="1000000000" data-item-id="tx_improved_8ds5ytq8kci" data-item-class="Label Stroke Indexed ColorStrokeBlack" data-item-index="3" data-renderer-id="0" transform="translate(458, 206)"><g id="tx_improved_8ds5ytq8kci-fill" stroke="none" fill="#484848"><g><text style="font: 20px Roboto, sans-serif; white-space: pre;" font-weight="20px" font-size="Roboto," font-family="sans-serif"><tspan x="12" y="34" dominant-baseline="ideographic">Improved Customer </tspan><tspan x="12" y="58" dominant-baseline="ideographic">Service</tspan></text></g></g></g><g id="g-root-0.cu_sy_zpouzatq8lxo-stroke" data-item-order="999966598" data-item-id="0.cu_sy_zpouzatq8lxo" data-item-class="Part Indexed_0 Fill Stroke ColorFillBlack ColorStrokeGray" data-item-index="0" data-renderer-id="0" transform="translate(302, 71)"><g id="0.cu_sy_zpouzatq8lxo-stroke" fill="none" stroke-linecap="round" stroke-linejoin="round" stroke-miterlimit="4" stroke="#484848" stroke-width="2"><g><path d="M 76 12C 76 10.8954 76.8954 10 78 10L 82 10L 82 40L 78 40C 76.8954 40 76 39.1046 76 38L 76 37.7561C 65.6486 40.4204 58 49.817 58 61L 58 76.2108C 61.6435 78.3185 64.6816 81.3565 66.7892 85L 76 85L 76 84C 76 82.8954 76.8954 82 78 82L 82 82L 82 112L 78 112C 76.8954 112 76 111.1046 76 110L 76 109L 66.7892 109C 64.6816 112.6435 61.6435 115.6815 58 117.7892L 58 133C 58 144.183 65.6486 153.5796 76 156.2439L 76 156C 76 154.8954 76.8954 154 78 154L 82 154L 82 184L 78 184C 76.8954 184 76 183.1046 76 182L 76 180.6286C 52.3221 177.6761 34 157.4777 34 133L 34 117.7892C 30.3565 115.6816 27.3184 112.6435 25.2108 109L 16 109L 16 110C 16 111.1046 15.1046 112 14 112L 10 112L 10 82L 14 82C 15.1046 82 16 82.8954 16 84L 16 85L 25.2108 85C 27.3184 81.3565 30.3565 78.3184 34 76.2108L 34 61C 34 36.5223 52.3221 16.324 76 13.3714L 76 12ZM 22 97C 22.000001 110.254835 32.745167 121.000001 46.000001 121.000001C 59.254835 121.000001 70.000001 110.254835 70.000001 97.000001C 70.000001 83.745167 59.254835 73.000001 46.000001 73.000001C 32.745167 73.000001 22.000001 83.745167 22.000001 97.000001M 76 13L 76 37M 76 85L 76 109M 16 85L 16 109M 76 157L 76 181"></path></g></g></g><g id="g-root-0.cu_1_sy_vahtxytq8jk5-stroke" data-item-order="999966600" data-item-id="0.cu_1_sy_vahtxytq8jk5" data-item-class="Part Indexed_0 Fill Stroke ColorFillBlack ColorStrokeGray" data-item-index="0" data-renderer-id="0" transform="translate(242, 143)"><g id="0.cu_1_sy_vahtxytq8jk5-stroke" fill="none" stroke-linecap="round" stroke-linejoin="round" stroke-miterlimit="4" stroke="#484848" stroke-width="2"><g><path d="M 64 12C 64 10.8954 64.8954 10 66 10L 70 10L 70 40L 66 40C 64.8954 40 64 39.1046 64 38L 64 37L 16 37L 16 38C 16 39.1046 15.1046 40 14 40L 10 40L 10 10L 14 10C 15.1046 10 16 10.8954 16 12L 16 13L 64 13L 64 12ZM 64 13L 64 37M 16 13L 16 37"></path></g></g></g><g id="g-root-3.cu_sy_meutp2tq8kcu-stroke" data-item-order="999966604" data-item-id="3.cu_sy_meutp2tq8kcu" data-item-class="Part Indexed Fill Stroke" data-item-index="3" data-renderer-id="0" transform="translate(374, 215)"><g id="3.cu_sy_meutp2tq8kcu-stroke" fill="none" stroke-linecap="round" stroke-linejoin="round" stroke-miterlimit="4" stroke="#484848" stroke-width="2"><g><path d="M 70 40L 66 40C 64.8954 40 64 39.1046 64 38L 64 37L 16 37L 16 38C 16 39.1046 15.1046 40 14 40L 10 40L 10 10L 14 10C 15.1046 10 16 10.8954 16 12L 16 13L 64 13L 64 12C 64 10.8954 64.8954 10 66 10L 70 10L 70 40ZM 16 13L 16 37M 64 13L 64 37"></path></g></g></g><g id="g-root-2.cu_sy_93ebbqtq8lxr-stroke" data-item-order="999966608" data-item-id="2.cu_sy_93ebbqtq8lxr" data-item-class="Part Indexed Fill Stroke" data-item-index="2" data-renderer-id="0" transform="translate(374, 143)"><g id="2.cu_sy_93ebbqtq8lxr-stroke" fill="none" stroke-linecap="round" stroke-linejoin="round" stroke-miterlimit="4" stroke="#484848" stroke-width="2"><g><path d="M 70 40L 66 40C 64.8954 40 64 39.1046 64 38L 64 37L 16 37L 16 38C 16 39.1046 15.1046 40 14 40L 10 40L 10 10L 14 10C 15.1046 10 16 10.8954 16 12L 16 13L 64 13L 64 12C 64 10.8954 64.8954 10 66 10L 70 10L 70 40ZM 16 13L 16 37M 64 13L 64 37"></path></g></g></g><g id="g-root-1.cu_sy_4o7aaetq8jk8-stroke" data-item-order="999966612" data-item-id="1.cu_sy_4o7aaetq8jk8" data-item-class="Part Indexed Indexed_1 Fill Stroke" data-item-index="1" data-renderer-id="0" transform="translate(374, 71)"><g id="1.cu_sy_4o7aaetq8jk8-stroke" fill="none" stroke-linecap="round" stroke-linejoin="round" stroke-miterlimit="4" stroke="#484848" stroke-width="2"><g><path d="M 70 40L 66 40C 64.8954 40 64 39.1046 64 38L 64 37L 16 37L 16 38C 16 39.1046 15.1046 40 14 40L 10 40L 10 10L 14 10C 15.1046 10 16 10.8954 16 12L 16 13L 64 13L 64 12C 64 10.8954 64.8954 10 66 10L 70 10L 70 40ZM 16 13L 16 37M 64 13L 64 37"></path></g></g></g><g id="g-root--1.cu_sy_8ds5ytq8kch-stroke" data-item-order="999966615" data-item-id="-1.cu_sy_8ds5ytq8kch" data-item-class="Curve Stroke Part ColorStrokeBlack" data-item-index="-1" data-renderer-id="0" transform="translate(320, 140)"><g id="-1.cu_sy_8ds5ytq8kch-stroke" fill="none" stroke-linecap="round" stroke-linejoin="round" stroke-miterlimit="4" stroke="#484848" stroke-width="2"><g><path d="M 46 28C 46 37.9411 37.9411 46 28 46C 18.0589 46 10 37.9411 10 28C 10 18.0589 18.0589 10 28 10C 37.9411 10 46 18.0589 46 28ZM 34 28C 34 31.3137 31.3137 34 28 34C 24.6863 34 22 31.3137 22 28C 22 24.6863 24.6863 22 28 22C 31.3137 22 34 24.6863 34 28ZM 28 46L 28 34M 46 28L 34 28M 10 28L 22 28M 28 10L 28 22"></path></g></g></g><g id="g-root-tx_enhancin_1cua5eetqa03q-stroke" data-item-order="1000000000" data-item-id="tx_enhancin_1cua5eetqa03q" data-item-class="Label Stroke Title ColorStrokeBlack" data-item-index="none" data-renderer-id="0" transform="translate(80, 2)"></g><g id="g-root-tx_contextu_mgq8yetq8jd8-stroke" data-item-order="1000000000" data-item-id="tx_contextu_mgq8yetq8jd8" data-item-class="Label Stroke Indexed Indexed_1 ColorStrokeBlack" data-item-index="1" data-renderer-id="0" transform="translate(458, 62)"></g><g id="g-root-tx_workmate_959ql2tq8ky5-stroke" data-item-order="1000000000" data-item-id="tx_workmate_959ql2tq8ky5" data-item-class="Label Stroke ColorStrokeBlack" data-item-index="none" data-renderer-id="0" transform="translate(2, 134)"></g><g id="g-root-tx_empowere_18n7ahitq8k5f-stroke" data-item-order="1000000000" data-item-id="tx_empowere_18n7ahitq8k5f" data-item-class="Label Stroke Indexed ColorStrokeBlack" data-item-index="2" data-renderer-id="0" transform="translate(458, 134)"></g><g id="g-root-tx_improved_8ds5ytq8kci-stroke" data-item-order="1000000000" data-item-id="tx_improved_8ds5ytq8kci" data-item-class="Label Stroke Indexed ColorStrokeBlack" data-item-index="3" data-renderer-id="0" transform="translate(458, 206)"></g></g></g></svg>