<?xml version="1.0" encoding="utf-8" standalone="yes"?>
<!DOCTYPE svg PUBLIC "-//W3C//DTD SVG 1.1//EN" "http://www.w3.org/Graphics/SVG/1.1/DTD/svg11.dtd">
<svg width="780" height="375" viewBox="0 0 780 375" style="fill:none;stroke:none;fill-rule:evenodd;clip-rule:evenodd;stroke-linecap:round;stroke-linejoin:round;stroke-miterlimit:1.5;" version="1.1" xmlns="http://www.w3.org/2000/svg" xmlns:xlink="http://www.w3.org/1999/xlink"><style id="fontImports">@import url("https://fonts.googleapis.com/css2?family=Roboto:wght@400;700&amp;display=block");</style><rect id="" x="0" y="0" width="780" height="374.07" style="fill: #ffffff;"></rect><g id="items" style="isolation: isolate"><g id="blend" style="mix-blend-mode:normal"><g id="g-root-0.cu_sy_1lynsvaqy708z-fill" data-item-order="999912124" data-item-id="0.cu_sy_1lynsvaqy708z" data-item-class="Part Indexed_0 Fill Stroke ColorFillBlack ColorStrokeBlack" data-item-index="0" data-renderer-id="0" transform="translate(333.0223388671875, 141.479248046875)"><g id="0.cu_sy_1lynsvaqy708z-fill" stroke="none" fill="url(#gradient-999999-232777082)"><g><path d="M 87.2509 10C 44.5743 10 10 44.5851 10 87.2747C 10 129.964 44.5743 164.549 87.2509 164.549C 129.928 164.549 164.502 129.964 164.502 87.2747C 164.502 44.5851 129.928 10 87.2509 10ZM 87.2509 108.2511C 75.6828 108.2511 66.2811 98.8464 66.2811 87.2747C 66.2811 75.703 75.6828 66.2983 87.2509 66.2983C 98.8191 66.2983 108.2211 75.703 108.2211 87.2747C 108.2211 98.8464 98.8191 108.2511 87.2509 108.2511Z"></path></g></g></g><g id="g-root-3.cu_sy_18n7ahyqy71tw-fill" data-item-order="999912128" data-item-id="3.cu_sy_18n7ahyqy71tw" data-item-class="Part Indexed Fill Stroke" data-item-index="3" data-renderer-id="0" transform="translate(312.6590576171875, 257.326171875)"><g id="3.cu_sy_18n7ahyqy71tw-fill" stroke="none" fill="url(#gradient-b8e45c-154771520)"><g><path d="M 202.283 26.079L 174.467 10C 161.123 33.1001 136.21 48.659 107.6144 48.659C 79.019 48.659 54.1496 33.1001 40.7617 10L 12.9462 26.079C 15.5458 30.6297 18.4918 34.9203 21.7413 39.0376L 10 60.6641C 17.8421 69.2454 26.8539 76.7865 36.7324 83.0708L 55.926 67.8152C 65.0245 72.7126 74.8598 76.3531 85.3015 78.5201L 90.1974 102.5736C 95.9165 103.3104 101.722 103.7438 107.6144 103.7438C 113.507 103.7438 119.356 103.3104 125.032 102.5736L 129.928 78.5201C 140.326 76.3531 150.204 72.7126 159.303 67.8152L 178.497 83.0708C 188.375 76.7865 197.344 69.2454 205.229 60.6641L 193.488 39.0376C 196.694 34.9637 199.64 30.6297 202.283 26.079Z"></path></g></g></g><g id="g-root-3.line_sy_zs6rc6qy6zgt-fill" data-item-order="999912133" data-item-id="3.line_sy_zs6rc6qy6zgt" data-item-class="Curve Stroke Part Indexed ColorStrokeBlack" data-item-index="3" data-renderer-id="0" transform="translate(241.9998779296875, 290)"></g><g id="g-root-2.cu_sy_mgq8yuqy711q-fill" data-item-order="999912136" data-item-id="2.cu_sy_mgq8yuqy711q" data-item-class="Part Indexed Fill Stroke" data-item-index="2" data-renderer-id="0" transform="translate(410.316650390625, 89.6015625)"><g id="2.cu_sy_mgq8yuqy711q-fill" stroke="none" fill="url(#gradient-65e5a8-188701211)"><g><path d="M 87.2078 139.152001C 87.2078 153.238001 83.395 166.370001 76.8094 177.768001L 104.6252 193.847C 107.2248 189.34 109.5209 184.659001 111.471 179.762001L 136.08 179.112C 139.546 168.190001 141.583 156.705 142.102 144.743001L 119.226 135.728001C 118.88 125.024001 117.017 114.709001 113.854 104.957301L 132.268 88.6616C 127.762 77.783301 121.869 67.685101 114.807 58.4971L 91.4971 66.2983C 84.5649 58.540501 76.5063 51.7361 67.5811 46.232001L 71.2204 21.918401C 60.9953 16.5876 50.0337 12.5137 38.4655 10L 25.5977 30.976401C 20.4852 30.2396 15.2858 29.849601 10 29.849601L 10 61.964301C 52.6766 61.964301 87.2512 96.5494 87.2512 139.239001L 87.2078 139.152001Z"></path></g></g></g><g id="g-root-2.line_sy_i0wqueqy71tz-fill" data-item-order="999912141" data-item-id="2.line_sy_i0wqueqy71tz" data-item-class="Curve Stroke Part Indexed ColorStrokeBlack" data-item-index="2" data-renderer-id="0" transform="translate(541.999755859375, 146)"></g><g id="g-root-1.cu_sy_dbq4faqy8e0w-fill" data-item-order="999912144" data-item-id="1.cu_sy_dbq4faqy8e0w" data-item-class="Part Indexed Indexed_1 Fill Stroke" data-item-index="1" data-renderer-id="0" transform="translate(278.1708984375, 89.514892578125)"><defs><linearGradient id="gradient-999999-232777082" x2="0" y2="1"><stop offset="0" stop-color="#cccccc"></stop><stop offset="1" stop-color="#666666"></stop></linearGradient><linearGradient id="gradient-b8e45c-154771520" x2="0" y2="1"><stop offset="0" stop-color="#c8ea80"></stop><stop offset="1" stop-color="#A8DD38"></stop></linearGradient><linearGradient id="gradient-65e5a8-188701211" x2="0" y2="1"><stop offset="0" stop-color="#85eaba"></stop><stop offset="1" stop-color="#44E095"></stop></linearGradient><linearGradient id="gradient-44d0ff-453494305" x2="0" y2="1"><stop offset="0" stop-color="#6ddafe"></stop><stop offset="1" stop-color="#1AC6FF"></stop></linearGradient></defs><g id="1.cu_sy_dbq4faqy8e0w-fill" stroke="none" fill="url(#gradient-44d0ff-453494305)"><g><path d="M 64.8515 139.239C 64.8515 96.5494 99.4258 61.9643 142.102 61.9643L 142.102 29.8496C 136.817 29.8496 131.574 30.2396 126.505 30.9764L 113.637 10C 102.0687 12.557 91.1071 16.5876 80.8821 21.9184L 84.5216 46.232C 75.6397 51.7795 67.5809 58.5405 60.6053 66.2983L 37.2956 58.4971C 30.2334 67.6852 24.3412 77.8266 19.8352 88.6616L 38.249 104.9573C 35.0428 114.665 33.1798 124.98 32.8765 135.728L 10 144.743C 10.4766 156.662 12.5563 168.19 16.0225 179.112L 40.6319 179.762C 42.5816 184.659 44.8779 189.34 47.4775 193.847L 75.2931 177.768C 68.7074 166.413 64.8946 153.238 64.8946 139.152L 64.8515 139.239Z"></path></g></g></g><g id="g-root-1.line_sy_4g346eqy8etl-fill" data-item-order="999912149" data-item-id="1.line_sy_4g346eqy8etl" data-item-class="Curve Stroke Part Indexed Indexed_1 ColorStrokeBlack" data-item-index="1" data-renderer-id="0" transform="translate(242, 146)"></g><g id="g-root-tx_workmate_9m1yqy8flu-fill" data-item-order="1000000000" data-item-id="tx_workmate_9m1yqy8flu" data-item-class="Label Stroke Title ColorStrokeBlack" data-item-index="none" data-renderer-id="0" transform="translate(242, 2)"><g id="tx_workmate_9m1yqy8flu-fill" stroke="none" fill="#484848"><g><text style="font: 20px Roboto, sans-serif; white-space: pre;" font-weight="20px" font-size="Roboto," font-family="sans-serif"><tspan x="13.11" y="34" dominant-baseline="ideographic">Workmate's Comprehensive Features</tspan></text></g></g></g><g id="g-root-tx_aidriven_qqb3dyqyjnda-fill" data-item-order="1000000000" data-item-id="tx_aidriven_qqb3dyqyjnda" data-item-class="Label Stroke Indexed Indexed_1 ColorStrokeBlack" data-item-index="1" data-renderer-id="0" transform="translate(2, 122)"><g id="tx_aidriven_qqb3dyqyjnda-fill" stroke="none" fill="#484848"><g><text style="font: 20px Roboto, sans-serif; white-space: pre;" font-weight="20px" font-size="Roboto," font-family="sans-serif"><tspan x="109.9" y="34" dominant-baseline="ideographic">AI-driven </tspan><tspan x="20.23" y="58" dominant-baseline="ideographic">Recommendations</tspan></text></g></g></g><g id="g-root-tx_dynamici_1q9hlgmqyjoqo-fill" data-item-order="1000000000" data-item-id="tx_dynamici_1q9hlgmqyjoqo" data-item-class="Label Stroke Indexed ColorStrokeBlack" data-item-index="2" data-renderer-id="0" transform="translate(638, 110)"><g id="tx_dynamici_1q9hlgmqyjoqo-fill" stroke="none" fill="#484848"><g><text style="font: 20px Roboto, sans-serif; white-space: pre;" font-weight="20px" font-size="Roboto," font-family="sans-serif"><tspan x="12" y="34" dominant-baseline="ideographic">Dynamic </tspan><tspan x="12" y="58" dominant-baseline="ideographic">Information </tspan><tspan x="12" y="82" dominant-baseline="ideographic">Capture</tspan></text></g></g></g><g id="g-root-1_i0a9raqyi8sh-fill" data-item-order="1000000000" data-item-id="1_i0a9raqyi8sh" data-item-class="Icon Stroke Indexed Indexed_1 ColorStrokeBlack" data-item-index="1" data-renderer-id="0" transform="translate(194, 128)"></g><g id="g-root-flip_zly3muqyjmkl-fill" data-item-order="1000000000" data-item-id="flip_zly3muqyjmkl" data-item-class="Icon Stroke Indexed ColorStrokeBlack" data-item-index="2" data-renderer-id="0" transform="translate(590, 128)"></g><g id="g-root-tx_integrat_8znjzaqyjmkn-fill" data-item-order="1000000000" data-item-id="tx_integrat_8znjzaqyjmkn" data-item-class="Label Stroke Indexed ColorStrokeBlack" data-item-index="3" data-renderer-id="0" transform="translate(14, 254)"><g id="tx_integrat_8znjzaqyjmkn-fill" stroke="none" fill="#484848"><g><text style="font: 20px Roboto, sans-serif; white-space: pre;" font-weight="20px" font-size="Roboto," font-family="sans-serif"><tspan x="12.38" y="34" dominant-baseline="ideographic">Integrated Suite of </tspan><tspan x="63.29" y="58" dominant-baseline="ideographic">Configurable </tspan><tspan x="41.04" y="82" dominant-baseline="ideographic">Business Rules</tspan></text></g></g></g><g id="g-root-star_147dvjaqyclj8-fill" data-item-order="1000000000" data-item-id="star_147dvjaqyclj8" data-item-class="Icon Stroke Indexed ColorStrokeBlack" data-item-index="3" data-renderer-id="0" transform="translate(194, 272)"></g><g id="g-root-0.cu_sy_1lynsvaqy708z-stroke" data-item-order="999912124" data-item-id="0.cu_sy_1lynsvaqy708z" data-item-class="Part Indexed_0 Fill Stroke ColorFillBlack ColorStrokeBlack" data-item-index="0" data-renderer-id="0" transform="translate(333.0223388671875, 141.479248046875)"><g id="0.cu_sy_1lynsvaqy708z-stroke" fill="none" stroke-linecap="round" stroke-linejoin="round" stroke-miterlimit="4" stroke="#484848" stroke-width="2"><g><path d="M 87.2509 10C 44.5743 10 10 44.5851 10 87.2747C 10 129.9643 44.5743 164.5494 87.2509 164.5494C 129.9275 164.5494 164.5021 129.9643 164.5021 87.2747C 164.5021 44.5851 129.9275 10 87.2509 10ZM 87.2509 108.2511C 75.6828 108.2511 66.2811 98.8464 66.2811 87.2747C 66.2811 75.703 75.6828 66.2983 87.2509 66.2983C 98.8191 66.2983 108.2211 75.703 108.2211 87.2747C 108.2211 98.8464 98.8191 108.2511 87.2509 108.2511ZM 128.0647 87.274731C 128.0647 109.822331 109.7917 128.100731 87.251 128.100731C 64.7103 128.100731 46.4375 109.822331 46.4375 87.274731C 46.4375 64.727131 64.7103 46.448731 87.251 46.448731C 109.7917 46.448731 128.0647 64.727131 128.0647 87.274731Z"></path></g></g></g><g id="g-root-3.cu_sy_18n7ahyqy71tw-stroke" data-item-order="999912128" data-item-id="3.cu_sy_18n7ahyqy71tw" data-item-class="Part Indexed Fill Stroke" data-item-index="3" data-renderer-id="0" transform="translate(312.6590576171875, 257.326171875)"><g id="3.cu_sy_18n7ahyqy71tw-stroke" fill="none" stroke-linecap="round" stroke-linejoin="round" stroke-miterlimit="4" stroke="#484848" stroke-width="2"><g><path d="M 202.283 26.079L 174.4672 10C 161.1226 33.1001 136.2099 48.659 107.6144 48.659C 79.019 48.659 54.1496 33.1001 40.7617 10L 12.9462 26.079C 15.5458 30.6297 18.4918 34.9203 21.7413 39.0376L 10 60.6641C 17.8421 69.2454 26.8539 76.7865 36.7324 83.0708L 55.926 67.8152C 65.0245 72.7126 74.8598 76.3531 85.3015 78.5201L 90.1974 102.5736C 95.9165 103.3104 101.722 103.7438 107.6144 103.7438C 113.5068 103.7438 119.356 103.3104 125.0318 102.5736L 129.9277 78.5201C 140.326 76.3531 150.2043 72.7126 159.3029 67.8152L 178.4968 83.0708C 188.3752 76.7865 197.3437 69.2454 205.2291 60.6641L 193.4876 39.0376C 196.6937 34.9637 199.6401 30.6297 202.283 26.079Z"></path></g></g></g><g id="g-root-3.line_sy_zs6rc6qy6zgt-stroke" data-item-order="999912133" data-item-id="3.line_sy_zs6rc6qy6zgt" data-item-class="Curve Stroke Part Indexed ColorStrokeBlack" data-item-index="3" data-renderer-id="0" transform="translate(241.9998779296875, 290)"><g id="3.line_sy_zs6rc6qy6zgt-stroke" fill="none" stroke-linecap="round" stroke-linejoin="round" stroke-miterlimit="4" stroke="#484848" stroke-width="2"><g><path d="M 10.000122 10L 46.000122 46L 74.000122 46"></path><path d="M 68.000122 52.5L 74.500122 46L 68.000122 39.5" stroke-dasharray="none"></path></g></g></g><g id="g-root-2.cu_sy_mgq8yuqy711q-stroke" data-item-order="999912136" data-item-id="2.cu_sy_mgq8yuqy711q" data-item-class="Part Indexed Fill Stroke" data-item-index="2" data-renderer-id="0" transform="translate(410.316650390625, 89.6015625)"><g id="2.cu_sy_mgq8yuqy711q-stroke" fill="none" stroke-linecap="round" stroke-linejoin="round" stroke-miterlimit="4" stroke="#484848" stroke-width="2"><g><path d="M 87.2078 139.152301C 87.2078 153.237701 83.395 166.3697 76.8094 177.768001L 104.6252 193.847C 107.2248 189.339701 109.5209 184.659001 111.4706 179.761601L 136.0803 179.1115C 139.5464 168.1899 141.5825 156.704901 142.1024 144.743101L 119.2262 135.728501C 118.8796 125.0236 117.0166 114.7087 113.8537 104.957301L 132.2675 88.6616C 127.7615 77.783301 121.869 67.685101 114.8068 58.4971L 91.4971 66.2983C 84.5649 58.540501 76.5063 51.7361 67.5811 46.232001L 71.2204 21.918401C 60.9953 16.5876 50.0337 12.5137 38.4655 10L 25.5977 30.976401C 20.4852 30.2396 15.2858 29.849601 10 29.849601L 10 61.964301C 52.6766 61.964301 87.2512 96.5494 87.2512 139.239001L 87.2078 139.152301Z"></path></g></g></g><g id="g-root-2.line_sy_i0wqueqy71tz-stroke" data-item-order="999912141" data-item-id="2.line_sy_i0wqueqy71tz" data-item-class="Curve Stroke Part Indexed ColorStrokeBlack" data-item-index="2" data-renderer-id="0" transform="translate(541.999755859375, 146)"><g id="2.line_sy_i0wqueqy71tz-stroke" fill="none" stroke-linecap="round" stroke-linejoin="round" stroke-miterlimit="4" stroke="#484848" stroke-width="2"><g><path d="M 46.000244 10L 12.000244 10"></path><path d="M 18.000244 3.5L 11.500244 10L 18.000244 16.5" stroke-dasharray="none"></path></g></g></g><g id="g-root-1.cu_sy_dbq4faqy8e0w-stroke" data-item-order="999912144" data-item-id="1.cu_sy_dbq4faqy8e0w" data-item-class="Part Indexed Indexed_1 Fill Stroke" data-item-index="1" data-renderer-id="0" transform="translate(278.1708984375, 89.514892578125)"><g id="1.cu_sy_dbq4faqy8e0w-stroke" fill="none" stroke-linecap="round" stroke-linejoin="round" stroke-miterlimit="4" stroke="#484848" stroke-width="2"><g><path d="M 64.8515 139.239C 64.8515 96.5494 99.4258 61.9643 142.1024 61.9643L 142.1024 29.8496C 136.8166 29.8496 131.5742 30.2396 126.505 30.9764L 113.6369 10C 102.0687 12.557 91.1071 16.5876 80.8821 21.9184L 84.5216 46.232C 75.6397 51.7795 67.5809 58.5405 60.6053 66.2983L 37.2956 58.4971C 30.2334 67.6852 24.3412 77.8266 19.8352 88.6616L 38.249 104.9573C 35.0428 114.6654 33.1798 124.9802 32.8765 135.7285L 10 144.7432C 10.4766 156.6616 12.5563 168.1899 16.0224 179.1115L 40.6319 179.7616C 42.5816 184.659 44.8779 189.3397 47.4775 193.847L 75.2931 177.768C 68.7074 166.413 64.8946 153.2377 64.8946 139.1523L 64.8515 139.239Z"></path></g></g></g><g id="g-root-1.line_sy_4g346eqy8etl-stroke" data-item-order="999912149" data-item-id="1.line_sy_4g346eqy8etl" data-item-class="Curve Stroke Part Indexed Indexed_1 ColorStrokeBlack" data-item-index="1" data-renderer-id="0" transform="translate(242, 146)"><g id="1.line_sy_4g346eqy8etl-stroke" fill="none" stroke-linecap="round" stroke-linejoin="round" stroke-miterlimit="4" stroke="#484848" stroke-width="2"><g><path d="M 10 10L 44 10"></path><path d="M 38 16.5L 44.5 10L 38 3.5" stroke-dasharray="none"></path></g></g></g><g id="g-root-tx_workmate_9m1yqy8flu-stroke" data-item-order="1000000000" data-item-id="tx_workmate_9m1yqy8flu" data-item-class="Label Stroke Title ColorStrokeBlack" data-item-index="none" data-renderer-id="0" transform="translate(242, 2)"></g><g id="g-root-tx_aidriven_qqb3dyqyjnda-stroke" data-item-order="1000000000" data-item-id="tx_aidriven_qqb3dyqyjnda" data-item-class="Label Stroke Indexed Indexed_1 ColorStrokeBlack" data-item-index="1" data-renderer-id="0" transform="translate(2, 122)"></g><g id="g-root-tx_dynamici_1q9hlgmqyjoqo-stroke" data-item-order="1000000000" data-item-id="tx_dynamici_1q9hlgmqyjoqo" data-item-class="Label Stroke Indexed ColorStrokeBlack" data-item-index="2" data-renderer-id="0" transform="translate(638, 110)"></g><g id="g-root-1_i0a9raqyi8sh-stroke" data-item-order="1000000000" data-item-id="1_i0a9raqyi8sh" data-item-class="Icon Stroke Indexed Indexed_1 ColorStrokeBlack" data-item-index="1" data-renderer-id="0" transform="translate(194, 128)"><g id="1_i0a9raqyi8sh-stroke" fill="none" stroke-linecap="round" stroke-linejoin="round" stroke-miterlimit="4" stroke="#484848" stroke-width="2"><g><path d="M 19 44.714287L 27.074286 25.865715C 27.23 25.492002 27.595144 25.248571 28 25.248571C 28.404854 25.248571 28.77 25.492002 28.925714 25.865715L 37 44.714287M 22.625713 36.254284L 33.374287 36.254284M 11.285714 20.285713C 11.285714 15.315152 15.315152 11.285714 20.285713 11.285714M 11.285714 20.285713C 11.285714 15.315152 15.315152 11.285714 20.285713 11.285714M 17.714285 20.285713C 17.714285 18.865553 18.865553 17.714285 20.285713 17.714285M 17.714285 20.285713C 17.714285 18.865553 18.865553 17.714285 20.285713 17.714285M 35.714287 11.285714C 40.684849 11.285714 44.714287 15.315152 44.714287 20.285713M 35.714287 11.285714C 40.684849 11.285714 44.714287 15.315152 44.714287 20.285713M 35.714287 17.714285C 37.134449 17.714285 38.285713 18.865553 38.285713 20.285713M 35.714287 17.714285C 37.134449 17.714285 38.285713 18.865553 38.285713 20.285713"></path></g></g></g><g id="g-root-flip_zly3muqyjmkl-stroke" data-item-order="1000000000" data-item-id="flip_zly3muqyjmkl" data-item-class="Icon Stroke Indexed ColorStrokeBlack" data-item-index="2" data-renderer-id="0" transform="translate(590, 128)"><g id="flip_zly3muqyjmkl-stroke" fill="none" stroke-linecap="round" stroke-linejoin="round" stroke-miterlimit="4" stroke="#484848" stroke-width="2"><g><path d="M 36.25 36.25C 35.421574 36.25 34.75 36.921574 34.75 37.75L 34.75 45.25L 13.75 45.25C 12.921573 45.25 12.25 44.578426 12.25 43.75L 12.25 15.25C 12.25 14.421573 12.921573 13.75 13.75 13.75L 42.25 13.75C 43.078426 13.75 43.75 14.421573 43.75 15.25L 43.75 36.25ZM 43.75 36.25L 34.75 45.25M 16.75 10.75L 16.75 17.5M 24.25 10.75L 24.25 17.5M 31.75 10.75L 31.75 17.5M 39.25 10.75L 39.25 17.5"></path></g></g></g><g id="g-root-tx_integrat_8znjzaqyjmkn-stroke" data-item-order="1000000000" data-item-id="tx_integrat_8znjzaqyjmkn" data-item-class="Label Stroke Indexed ColorStrokeBlack" data-item-index="3" data-renderer-id="0" transform="translate(14, 254)"></g><g id="g-root-star_147dvjaqyclj8-stroke" data-item-order="1000000000" data-item-id="star_147dvjaqyclj8" data-item-class="Icon Stroke Indexed ColorStrokeBlack" data-item-index="3" data-renderer-id="0" transform="translate(194, 272)"><g id="star_147dvjaqyclj8-stroke" fill="none" stroke-linecap="round" stroke-linejoin="round" stroke-miterlimit="4" stroke="#484848" stroke-width="2"><g><path d="M 10.75 35.68C 10.75 37.902672 12.55183 39.704502 14.7745 39.704502C 16.997169 39.704502 18.799 37.902672 18.799 35.68C 18.799 33.457333 16.997169 31.6555 14.7745 31.6555C 12.55183 31.6555 10.75 33.457333 10.75 35.68M 21.122499 45.046001C 20.300184 43.120201 18.647827 41.672031 16.630823 41.109371C 14.613819 40.546711 12.450436 40.930443 10.75 42.1525M 37.201 35.68C 37.201 37.902672 39.002831 39.704502 41.225502 39.704502C 43.44817 39.704502 45.250004 37.902672 45.250004 35.68C 45.250004 33.457333 43.44817 31.6555 41.225502 31.6555C 39.002831 31.6555 37.201 33.457333 37.201 35.68M 34.877499 45.046001C 35.699814 43.120201 37.352173 41.672031 39.369175 41.109371C 41.386181 40.546711 43.549561 40.930443 45.249996 42.1525M 22.825001 34.529503C 22.824268 37.388088 25.141409 39.705826 28 39.705826C 30.858591 39.705826 33.175732 37.388088 33.174999 34.529503C 33.175732 31.670908 30.858591 29.353174 28 29.353174C 25.141409 29.353174 22.824268 31.670908 22.825001 34.529503M 34.877499 45.046001C 33.115093 43.109806 30.618187 42.006187 27.999998 42.006187C 25.381811 42.006187 22.884903 43.109806 21.122499 45.045998M 28.813 11.4535L 30.7285 15.223001L 33.989502 15.223001C 34.350452 15.224463 34.675613 15.441436 34.81551 15.774179C 34.955406 16.106922 34.882969 16.491055 34.6315 16.75L 31.6315 19.6975L 33.290501 23.5075C 33.444939 23.865805 33.350914 24.282812 33.057663 24.540176C 32.764412 24.797541 32.33873 24.836639 32.003502 24.637001L 28 22.3825L 23.990499 24.6325C 23.655273 24.83214 23.229591 24.793041 22.936338 24.535675C 22.643085 24.278311 22.549063 23.861305 22.703499 23.503L 24.362499 19.693001L 21.362499 16.745501C 21.110846 16.486359 21.038509 16.101868 21.178789 15.768991C 21.319067 15.436116 21.644775 15.219364 22.006001 15.2185L 25.265499 15.2185L 27.187 11.4535C 27.342543 11.147496 27.656733 10.954749 28 10.954749C 28.343267 10.954749 28.657457 11.147496 28.813 11.4535ZM 17.65 13.255C 17.305775 13.252319 16.990173 13.446222 16.837 13.7545L 14.9215 17.522499L 11.662 17.522499C 11.30013 17.522779 10.973619 17.739765 10.833208 18.073284C 10.692797 18.406803 10.765794 18.791983 11.0185 19.051001L 14.0125 22L 12.3535 25.808498C 12.199063 26.166805 12.293086 26.583813 12.586338 26.841177C 12.879589 27.098541 13.305273 27.137638 13.6405 26.938L 17.65 24.681999L 18.710501 25.282M 38.349998 13.255C 38.694225 13.252319 39.009827 13.446222 39.162998 13.7545L 41.078499 17.522499L 44.338001 17.522499C 44.699871 17.522779 45.026379 17.739765 45.166794 18.073284C 45.307205 18.406803 45.234207 18.791983 44.981503 19.051001L 41.987503 22L 43.6465 25.811501C 43.800938 26.169806 43.706917 26.586811 43.413666 26.844177C 43.120411 27.10154 42.694729 27.140638 42.359501 26.941002L 38.349998 24.681999L 37.289501 25.282M 23.8885 31.396C 26.360266 33.775661 29.766787 34.925106 33.174999 34.529499M 11.1445 33.952C 13.42104 35.311504 16.069744 35.914867 18.710501 35.675499M 37.599998 33.952C 39.876423 35.311798 42.525223 35.915184 45.166 35.675499"></path></g></g></g></g></g></svg>