<?xml version="1.0" encoding="utf-8" standalone="yes"?>
<!DOCTYPE svg PUBLIC "-//W3C//DTD SVG 1.1//EN" "http://www.w3.org/Graphics/SVG/1.1/DTD/svg11.dtd">
<svg width="819" height="397" viewBox="0 0 819 397" style="fill:none;stroke:none;fill-rule:evenodd;clip-rule:evenodd;stroke-linecap:round;stroke-linejoin:round;stroke-miterlimit:1.5;" version="1.1" xmlns="http://www.w3.org/2000/svg" xmlns:xlink="http://www.w3.org/1999/xlink"><style id="fontImports">@import url("https://fonts.googleapis.com/css2?family=Roboto:wght@400;700&amp;display=block");</style><rect id="" x="0" y="0" width="818" height="397" style="fill: #ffffff;"></rect><g id="items" style="isolation: isolate"><g id="blend" style="mix-blend-mode:normal"><g id="g-root-0.cu_sy_8zmodisw9seh-fill" data-item-order="999771910" data-item-id="0.cu_sy_8zmodisw9seh" data-item-class="Part Indexed_0 Fill Stroke ColorFillBlack ColorStrokeBlack" data-item-index="0" data-renderer-id="0" transform="translate(3, 110)"><g id="0.cu_sy_8zmodisw9seh-fill" stroke="none" fill="url(#gradient-999999-232777082)"><g><path d="M 250 130C 250 196.274 196.274 250 130 250C 63.7258 250 10 196.274 10 130C 10 63.7258 63.7258 10 130 10C 196.274 10 250 63.7258 250 130Z"></path></g></g></g><g id="g-root-3.cu_sy_4jt692sw9t6q-fill" data-item-order="999771914" data-item-id="3.cu_sy_4jt692sw9t6q" data-item-class="Part Indexed Fill Stroke" data-item-index="3" data-renderer-id="0" transform="translate(230.1923828125, 248)"><g id="3.cu_sy_4jt692sw9t6q-fill" stroke="none" fill="url(#gradient-b8e45c-154771520)"><g><path d="M 574.807 40L 154.807 40L 21.4665 10C 19.5456 22.7701 15.6123 34.8811 10 46L 154.807 136L 574.807 136L 574.807 40Z"></path></g></g></g><g id="g-root-2.cu_sy_1upa7zasw9tsb-fill" data-item-order="999771918" data-item-id="2.cu_sy_1upa7zasw9tsb" data-item-class="Part Indexed Fill Stroke" data-item-index="2" data-renderer-id="0" transform="translate(241.6591796875, 182)"><g id="2.cu_sy_1upa7zasw9tsb-fill" stroke="none" fill="url(#gradient-65e5a8-188701211)"><g><path d="M 563.341 10L 143.341 10L 10 40C 10.8832 45.8715 11.341 51.8823 11.341 58C 11.341 64.1177 10.8832 70.1285 10 76L 143.341 106L 563.341 106L 563.341 10Z"></path></g></g></g><g id="g-root-1.cu_sy_1qa36xysw9res-fill" data-item-order="999771922" data-item-id="1.cu_sy_1qa36xysw9res" data-item-class="Part Indexed Indexed_1 Fill Stroke" data-item-index="1" data-renderer-id="0" transform="translate(230.1923828125, 86)"><defs><linearGradient id="gradient-999999-232777082" x2="0" y2="1"><stop offset="0" stop-color="#cccccc"></stop><stop offset="1" stop-color="#666666"></stop></linearGradient><linearGradient id="gradient-b8e45c-154771520" x2="0" y2="1"><stop offset="0" stop-color="#c8ea80"></stop><stop offset="1" stop-color="#A8DD38"></stop></linearGradient><linearGradient id="gradient-65e5a8-188701211" x2="0" y2="1"><stop offset="0" stop-color="#85eaba"></stop><stop offset="1" stop-color="#44E095"></stop></linearGradient><linearGradient id="gradient-44d0ff-453494305" x2="0" y2="1"><stop offset="0" stop-color="#6ddafe"></stop><stop offset="1" stop-color="#1AC6FF"></stop></linearGradient></defs><g id="1.cu_sy_1qa36xysw9res-fill" stroke="none" fill="url(#gradient-44d0ff-453494305)"><g><path d="M 574.807 10L 154.807 10L 10 100C 15.6123 111.119 19.5456 123.23 21.4665 136L 154.807 106L 574.807 106L 574.807 10Z"></path></g></g></g><g id="g-root-tx_unveilin_1heg6p2sw9s7h-fill" data-item-order="1000000000" data-item-id="tx_unveilin_1heg6p2sw9s7h" data-item-class="Label Stroke Title ColorStrokeBlack" data-item-index="none" data-renderer-id="0" transform="translate(159, 2)"><g id="tx_unveilin_1heg6p2sw9s7h-fill" stroke="none" fill="#484848"><g><text style="font: 20px Roboto, sans-serif; white-space: pre;" font-weight="20px" font-size="Roboto," font-family="sans-serif"><tspan x="14.06" y="34" dominant-baseline="ideographic">Unveiling Workmate's Multifaceted Banking Solutions</tspan></text></g></g></g><g id="g-root-trac_4mxmueswb6rw-fill" data-item-order="1000000000" data-item-id="trac_4mxmueswb6rw" data-item-class="Icon Stroke Indexed Indexed_1 InsideFill InsideColorFill" data-item-index="1" data-renderer-id="0" transform="translate(411, 110)"></g><g id="g-root-tx_hyperper_mcc4x2sw9szr-fill" data-item-order="1000000000" data-item-id="tx_hyperper_mcc4x2sw9szr" data-item-class="Label Stroke Indexed Indexed_1 InsideFill InsideColorFill" data-item-index="1" data-renderer-id="0" transform="translate(471, 122)"><g id="tx_hyperper_mcc4x2sw9szr-fill" stroke="none" fill="#484848"><g><text style="font: 20px Roboto, sans-serif; white-space: pre;" font-weight="20px" font-size="Roboto," font-family="sans-serif"><tspan x="12" y="34" dominant-baseline="ideographic">Hyper-Personalized Guidance</tspan></text></g></g></g><g id="g-root-tx_workmate_142zobqsw9tse-fill" data-item-order="1000000000" data-item-id="tx_workmate_142zobqsw9tse" data-item-class="Label Stroke InsideFill ColorFillBlack ColorStrokeBlack" data-item-index="none" data-renderer-id="0" transform="translate(57, 182)"><g id="tx_workmate_142zobqsw9tse-fill" stroke="none" fill="#484848"><g><text style="font: bold 20px Roboto, sans-serif; white-space: pre;" font-weight="bold" font-size="20" font-family="Roboto, sans-serif"><tspan x="12.09" y="34" dominant-baseline="ideographic">Workmate for </tspan><tspan x="26.92" y="58" dominant-baseline="ideographic">Real-Time </tspan><tspan x="29.62" y="82" dominant-baseline="ideographic">Customer </tspan><tspan x="20.91" y="106" dominant-baseline="ideographic">Intelligence</tspan></text></g></g></g><g id="g-root-text_1uua6zqsw8ema-fill" data-item-order="1000000000" data-item-id="text_1uua6zqsw8ema" data-item-class="Icon Stroke Indexed InsideFill InsideColorFill" data-item-index="2" data-renderer-id="0" transform="translate(411, 206)"></g><g id="g-root-tx_intellig_91i3musw9rew-fill" data-item-order="1000000000" data-item-id="tx_intellig_91i3musw9rew" data-item-class="Label Stroke Indexed InsideFill InsideColorFill" data-item-index="2" data-renderer-id="0" transform="translate(471, 218)"><g id="tx_intellig_91i3musw9rew-fill" stroke="none" fill="#484848"><g><text style="font: 20px Roboto, sans-serif; white-space: pre;" font-weight="20px" font-size="Roboto," font-family="sans-serif"><tspan x="12" y="34" dominant-baseline="ideographic">Intelligent Suggestions</tspan></text></g></g></g><g id="g-root-hand_1d306hyswfdhn-fill" data-item-order="1000000000" data-item-id="hand_1d306hyswfdhn" data-item-class="Icon Stroke Indexed InsideFill InsideColorFill" data-item-index="3" data-renderer-id="0" transform="translate(411, 302)"></g><g id="g-root-tx_enhanced_1ur5n8msw9ssp-fill" data-item-order="1000000000" data-item-id="tx_enhanced_1ur5n8msw9ssp" data-item-class="Label Stroke Indexed InsideFill InsideColorFill" data-item-index="3" data-renderer-id="0" transform="translate(471, 314)"><g id="tx_enhanced_1ur5n8msw9ssp-fill" stroke="none" fill="#484848"><g><text style="font: 20px Roboto, sans-serif; white-space: pre;" font-weight="20px" font-size="Roboto," font-family="sans-serif"><tspan x="12" y="34" dominant-baseline="ideographic">Enhanced Customer Experience</tspan></text></g></g></g><g id="g-root-0.cu_sy_8zmodisw9seh-stroke" data-item-order="999771910" data-item-id="0.cu_sy_8zmodisw9seh" data-item-class="Part Indexed_0 Fill Stroke ColorFillBlack ColorStrokeBlack" data-item-index="0" data-renderer-id="0" transform="translate(3, 110)"><g id="0.cu_sy_8zmodisw9seh-stroke" fill="none" stroke-linecap="round" stroke-linejoin="round" stroke-miterlimit="4" stroke="#484848" stroke-width="2"><g><path d="M 250 130C 250 196.2742 196.2742 250 130 250C 63.7258 250 10 196.2742 10 130C 10 63.7258 63.7258 10 130 10C 196.2742 10 250 63.7258 250 130Z"></path></g></g></g><g id="g-root-3.cu_sy_4jt692sw9t6q-stroke" data-item-order="999771914" data-item-id="3.cu_sy_4jt692sw9t6q" data-item-class="Part Indexed Fill Stroke" data-item-index="3" data-renderer-id="0" transform="translate(230.1923828125, 248)"><g id="3.cu_sy_4jt692sw9t6q-stroke" fill="none" stroke-linecap="round" stroke-linejoin="round" stroke-miterlimit="4" stroke="#484848" stroke-width="2"><g><path d="M 574.8075 40L 154.8075 40L 21.4665 10C 19.5456 22.7701 15.6123 34.8811 10 46L 154.8075 136L 574.8075 136L 574.8075 40Z"></path></g></g></g><g id="g-root-2.cu_sy_1upa7zasw9tsb-stroke" data-item-order="999771918" data-item-id="2.cu_sy_1upa7zasw9tsb" data-item-class="Part Indexed Fill Stroke" data-item-index="2" data-renderer-id="0" transform="translate(241.6591796875, 182)"><g id="2.cu_sy_1upa7zasw9tsb-stroke" fill="none" stroke-linecap="round" stroke-linejoin="round" stroke-miterlimit="4" stroke="#484848" stroke-width="2"><g><path d="M 563.341 10L 143.341 10L 10 40C 10.8832 45.8715 11.341 51.8823 11.341 58C 11.341 64.1177 10.8832 70.1285 10 76L 143.341 106L 563.341 106L 563.341 10Z"></path></g></g></g><g id="g-root-1.cu_sy_1qa36xysw9res-stroke" data-item-order="999771922" data-item-id="1.cu_sy_1qa36xysw9res" data-item-class="Part Indexed Indexed_1 Fill Stroke" data-item-index="1" data-renderer-id="0" transform="translate(230.1923828125, 86)"><g id="1.cu_sy_1qa36xysw9res-stroke" fill="none" stroke-linecap="round" stroke-linejoin="round" stroke-miterlimit="4" stroke="#484848" stroke-width="2"><g><path d="M 574.8075 10L 154.8075 10L 10 100C 15.6123 111.1189 19.5456 123.2299 21.4665 136L 154.8075 106L 574.8075 106L 574.8075 10Z"></path></g></g></g><g id="g-root-tx_unveilin_1heg6p2sw9s7h-stroke" data-item-order="1000000000" data-item-id="tx_unveilin_1heg6p2sw9s7h" data-item-class="Label Stroke Title ColorStrokeBlack" data-item-index="none" data-renderer-id="0" transform="translate(159, 2)"></g><g id="g-root-trac_4mxmueswb6rw-stroke" data-item-order="1000000000" data-item-id="trac_4mxmueswb6rw" data-item-class="Icon Stroke Indexed Indexed_1 InsideFill InsideColorFill" data-item-index="1" data-renderer-id="0" transform="translate(411, 110)"><g id="trac_4mxmueswb6rw-stroke" fill="none" stroke-linecap="round" stroke-linejoin="round" stroke-miterlimit="4" stroke="#484848" stroke-width="2"><g><path d="M 34 26.903999L 34 19.178001M 29.912001 15.087999C 29.911999 17.345739 31.74226 19.175999 34 19.175999C 36.25774 19.175999 38.087997 17.345739 38.087997 15.087999C 38.087997 12.83026 36.25774 11 34 11C 31.74226 11 29.911999 12.83026 29.911999 15.087999M 26.33 29.511999L 21.232 26.844M 13.602 24.799999C 13.602 27.057739 15.432261 28.887999 17.690001 28.887999C 19.947739 28.887999 21.778 27.057739 21.778 24.799999C 21.778 22.542259 19.947739 20.712 17.690001 20.712C 15.432261 20.712 13.602 22.542259 13.602 24.799999M 41.694 29.5L 46.768002 26.844M 46.222 24.799999C 46.222 27.057739 48.052258 28.887999 50.309998 28.887999C 52.567738 28.887999 54.397999 27.057739 54.397999 24.799999C 54.397999 22.542259 52.567738 20.712 50.309998 20.712C 48.052258 20.712 46.222 22.542259 46.222 24.799999M 34 42.237999L 34 48.821999M 29.912001 52.911999C 29.911999 55.169739 31.74226 57 34 57C 36.25774 57 38.087997 55.169739 38.087997 52.911999C 38.087997 50.654259 36.25774 48.823997 34 48.823997C 31.74226 48.823997 29.911999 50.654259 29.911999 52.911999M 25.521999 39.026001L 21.232 41.276001M 13.602 43.32C 13.602 45.57774 15.432261 47.408001 17.690001 47.408001C 19.947739 47.408001 21.778 45.57774 21.778 43.32C 21.778 41.06226 19.947739 39.232002 17.690001 39.232002C 15.432261 39.232002 13.602 41.06226 13.602 43.32M 42.501999 39.038002L 46.768002 41.276001M 46.222 43.32C 46.222 45.57774 48.052258 47.408001 50.309998 47.408001C 52.567738 47.408001 54.397999 45.57774 54.397999 43.32C 54.397999 41.06226 52.567738 39.232002 50.309998 39.232002C 48.052258 39.232002 46.222 41.06226 46.222 43.32M 45.978001 33.658001C 46.392174 34.196953 46.392174 34.947044 45.978001 35.486C 44.428001 37.52 40.166 42.237999 34.021999 42.237999C 27.878 42.237999 23.622 37.517998 22.066 35.484001C 21.652157 34.945679 21.652157 34.196323 22.066002 33.658001C 23.618 31.624001 27.879999 26.903999 34.021999 26.903999C 40.164001 26.903999 44.425999 31.625999 45.978001 33.658001ZM 34.02 30.964001C 36.008224 30.964001 37.620003 32.575775 37.620003 34.564003C 37.620003 36.552223 36.008224 38.164001 34.02 38.164001C 32.031776 38.164001 30.42 36.552223 30.42 34.564003C 30.42 32.575775 32.031776 30.964001 34.02 30.964001"></path></g></g></g><g id="g-root-tx_hyperper_mcc4x2sw9szr-stroke" data-item-order="1000000000" data-item-id="tx_hyperper_mcc4x2sw9szr" data-item-class="Label Stroke Indexed Indexed_1 InsideFill InsideColorFill" data-item-index="1" data-renderer-id="0" transform="translate(471, 122)"></g><g id="g-root-tx_workmate_142zobqsw9tse-stroke" data-item-order="1000000000" data-item-id="tx_workmate_142zobqsw9tse" data-item-class="Label Stroke InsideFill ColorFillBlack ColorStrokeBlack" data-item-index="none" data-renderer-id="0" transform="translate(57, 182)"></g><g id="g-root-text_1uua6zqsw8ema-stroke" data-item-order="1000000000" data-item-id="text_1uua6zqsw8ema" data-item-class="Icon Stroke Indexed InsideFill InsideColorFill" data-item-index="2" data-renderer-id="0" transform="translate(411, 206)"><g id="text_1uua6zqsw8ema-stroke" fill="none" stroke-linecap="round" stroke-linejoin="round" stroke-miterlimit="4" stroke="#484848" stroke-width="2"><g><path d="M 27 27L 41 27M 27 33L 41 33M 27 39L 36 39M 34 52.5C 34.276142 52.5 34.5 52.723858 34.5 53L 34.5 53C 34.5 53.276142 34.276142 53.5 34 53.5L 34 53.5C 33.723858 53.5 33.5 53.276142 33.5 53L 33.5 53C 33.5 52.723858 33.723858 52.5 34 52.5M 34 52.5L 34 52.5M 25 11L 43 11C 43 11 47 11 47 15L 47 53C 47 53 47 57 43 57L 25 57C 25 57 21 57 21 53L 21 15C 21 15 21 11 25 11M 47 49L 21 49M 47 19L 21 19M 31 15L 37 15"></path></g></g></g><g id="g-root-tx_intellig_91i3musw9rew-stroke" data-item-order="1000000000" data-item-id="tx_intellig_91i3musw9rew" data-item-class="Label Stroke Indexed InsideFill InsideColorFill" data-item-index="2" data-renderer-id="0" transform="translate(471, 218)"></g><g id="g-root-hand_1d306hyswfdhn-stroke" data-item-order="1000000000" data-item-id="hand_1d306hyswfdhn" data-item-class="Icon Stroke Indexed InsideFill InsideColorFill" data-item-index="3" data-renderer-id="0" transform="translate(411, 302)"><g id="hand_1d306hyswfdhn-stroke" fill="none" stroke-linecap="round" stroke-linejoin="round" stroke-miterlimit="4" stroke="#484848" stroke-width="2"><g><path d="M 27.444 17.642C 27.443048 21.310947 30.417051 24.285721 34.085999 24.285721C 37.754948 24.285721 40.728951 21.310947 40.728001 17.642C 40.728951 13.973052 37.754948 10.998279 34.085999 10.998279C 30.417051 10.998279 27.443048 13.973052 27.444 17.642M 44.419998 34.506001C 42.856121 30.209627 38.772148 27.350079 34.200001 27.350079C 29.627851 27.350079 25.54388 30.209627 23.98 34.506001M 17.138 57L 13.022 51.854C 11.714089 50.224388 11.000854 48.197559 11 46.108002L 11 35.538002C 11 33.844696 12.372695 32.472 14.066 32.472L 14.066 32.472C 15.758848 32.473103 17.130898 33.845154 17.132 35.538002L 17.132 43.200001M 26.336 56.722L 26.336 50.599998C 26.335695 48.782452 25.797039 47.005722 24.787998 45.493999L 22.454 41.993999C 22.050781 41.323364 21.390717 40.846924 20.627224 40.675407C 19.863731 40.503899 19.063309 40.652256 18.412001 41.085999L 18.411999 41.085999C 17.211044 41.88607 16.794247 43.45549 17.439999 44.745998L 20.204 49.346001M 50.862 57L 54.978001 51.854C 56.285912 50.224388 56.999146 48.197559 57 46.108002L 57 35.538002C 57 33.844696 55.627304 32.472 53.934002 32.472L 53.933998 32.472C 52.24115 32.473103 50.869102 33.845154 50.868 35.538002L 50.868 43.200001M 41.664001 56.722L 41.664001 50.599998C 41.664299 48.782452 42.202957 47.005722 43.211998 45.493999L 45.546001 41.993999C 45.949219 41.323364 46.609287 40.846924 47.37278 40.675407C 48.136272 40.503899 48.936691 40.652256 49.588001 41.085999L 49.588001 41.085999C 50.788956 41.88607 51.20575 43.45549 50.559998 44.745998L 47.796001 49.346001M 29.422001 12.914C 31.690001 17.114 36.720001 17.642 40.728001 17.642"></path></g></g></g><g id="g-root-tx_enhanced_1ur5n8msw9ssp-stroke" data-item-order="1000000000" data-item-id="tx_enhanced_1ur5n8msw9ssp" data-item-class="Label Stroke Indexed InsideFill InsideColorFill" data-item-index="3" data-renderer-id="0" transform="translate(471, 314)"></g></g></g></svg>