<?xml version="1.0" encoding="utf-8" standalone="yes"?>
<!DOCTYPE svg PUBLIC "-//W3C//DTD SVG 1.1//EN" "http://www.w3.org/Graphics/SVG/1.1/DTD/svg11.dtd">
<svg width="504" height="528" viewBox="0 0 504 528" style="fill:none;stroke:none;fill-rule:evenodd;clip-rule:evenodd;stroke-linecap:round;stroke-linejoin:round;stroke-miterlimit:1.5;" version="1.1" xmlns="http://www.w3.org/2000/svg" xmlns:xlink="http://www.w3.org/1999/xlink"><style id="fontImports">@import url("https://fonts.googleapis.com/css2?family=Roboto:wght@400;700&amp;display=block");</style><rect id="" x="0" y="0" width="504" height="528" style="fill: #ffffff;"></rect><g id="items" style="isolation: isolate"><g id="blend" style="mix-blend-mode:normal"><g id="g-root-3.cu_sy_hxrucopuifwu-fill" data-item-order="999915278" data-item-id="3.cu_sy_hxrucopuifwu" data-item-class="Part Indexed Fill Stroke" data-item-index="3" data-renderer-id="0" transform="translate(277.666015625, 274.4619140625)"><g id="3.cu_sy_hxrucopuifwu-fill" stroke="none" fill="#93c131"><g><path d="M 10.0071 113.523C 10.1785 113.471 10.35 113.42 10.5216 113.368C 17.2332 109.4816 22.3455 87.811 22.3455 61.7569C 22.3455 35.5585 17.1542 13.8288 10.388 10.1182L 10 10C 32.7658 16.8442 57.0146 21.9534 82.3337 25.5382C 88.9611 25.5382 94.3337 41.7563 94.3337 61.7624C 94.3337 81.7684 88.9611 97.9865 82.3337 97.9865C 57.2079 101.544 33.136 106.6026 10.5216 113.368C 10.519 113.37 10.5163 113.371 10.5136 113.373L 10.0071 113.523Z"></path></g></g></g><g id="g-root-3.line_sy_4mbbzcpuihhr-fill" data-item-order="999915283" data-item-id="3.line_sy_4mbbzcpuihhr" data-item-class="Curve Stroke Part LeaderLine Indexed ColorStrokeBlack" data-item-index="3" data-renderer-id="0" transform="translate(314, 242)"></g><g id="g-root-2.cu_sy_1lwrujspuigi0-fill" data-item-order="999915286" data-item-id="2.cu_sy_1lwrujspuigi0" data-item-class="Part Indexed Fill Stroke" data-item-index="2" data-renderer-id="0" transform="translate(203.896484375, 242.6083984375)"><g id="2.cu_sy_1lwrujspuigi0-fill" stroke="none" fill="#3bc482"><g><path d="M 83.7774 145.376C 57.0113 153.422 32.2952 163.867 10.3 177.052L 10.7305 176.789C 18.3369 170.28 24.1029 135.487 24.1029 93.6104C 24.1029 51.5914 18.2623 16.709 10.6179 10.3704C 10.4117 10.2471 10.2057 10.1237 10 10L 10.5361 10.3037C 10.5634 10.3256 10.5907 10.3478 10.6179 10.3704C 32.5313 23.4642 57.1358 33.8462 83.7703 41.8534L 84.1575 41.9717C 90.9237 45.6823 96.115 67.412 96.115 93.6104C 96.115 119.675 90.9987 141.352 84.2832 145.226L 83.7774 145.376Z"></path></g></g></g><g id="g-root-2.line_sy_1hgycfcpuiha9-fill" data-item-order="999915291" data-item-id="2.line_sy_1hgycfcpuiha9" data-item-class="Curve Stroke Part LeaderLine Indexed ColorStrokeBlack" data-item-index="2" data-renderer-id="0" transform="translate(242, 390.822265625)"></g><g id="g-root-1.cu_sy_1464b54puifpe-fill" data-item-order="999915294" data-item-id="1.cu_sy_1464b54puifpe" data-item-class="Part Indexed Indexed_1 Fill Stroke" data-item-index="1" data-renderer-id="0" transform="translate(110, 170.22412109375)"><g id="1.cu_sy_1464b54puifpe-fill" stroke="none" fill="#17b0e3"><g><path d="M 32.0945 317.946C 30.7791 320.598 29.4085 322 28 322C 18.0589 322 10 252.156 10 166C 10 79.8436 18.0589 10 28 10C 29.2637 10 30.497 11.1286 31.6872 13.2759L 32.1311 14.1106C 50.1498 42.2836 74.6012 64.771 103.8952 82.384L 104.4325 82.6877C 112.117 88.8446 117.999 123.826 117.999 165.994C 117.999 207.871 112.233 242.664 104.6269 249.173L 104.1952 249.435C 74.818 267.045 50.2945 289.543 32.2231 317.745L 32.0945 317.946Z"></path></g></g></g><g id="g-root-1.line_sy_qunsrspuihab-fill" data-item-order="999915299" data-item-id="1.line_sy_qunsrspuihab" data-item-class="Curve Stroke Part LeaderLine Indexed Indexed_1 ColorStrokeBlack" data-item-index="1" data-renderer-id="0" transform="translate(170, 146)"></g><g id="g-root-tx_automate_5vj3cpu78qt-fill" data-item-order="1000000000" data-item-id="tx_automate_5vj3cpu78qt" data-item-class="Label Stroke Title ColorFillBlack ColorStrokeBlack" data-item-index="none" data-renderer-id="0" transform="translate(56, 2)"><g id="tx_automate_5vj3cpu78qt-fill" stroke="none" fill="#484848"><g><text style="font: bold 20px Roboto, sans-serif; white-space: pre;" font-weight="bold" font-size="20" font-family="Roboto, sans-serif"><tspan x="15.38" y="34" dominant-baseline="ideographic">Automated Anomaly Response System</tspan></text></g></g></g><g id="g-root-tx_naturall_18itm5kpu79jf-fill" data-item-order="1000000000" data-item-id="tx_naturall_18itm5kpu79jf" data-item-class="Label Stroke Indexed Indexed_1 ColorStrokeBlack" data-item-index="1" data-renderer-id="0" transform="translate(98, 86)"><g id="tx_naturall_18itm5kpu79jf-fill" stroke="none" fill="#484848"><g><text style="font: 20px Roboto, sans-serif; white-space: pre;" font-weight="20px" font-size="Roboto," font-family="sans-serif"><tspan x="49.59" y="34" dominant-baseline="ideographic">Natural </tspan><tspan x="14.57" y="58" dominant-baseline="ideographic">Language Alert</tspan></text></g></g></g><g id="g-root-tx_automate_dfgm7cpu785l-fill" data-item-order="1000000000" data-item-id="tx_automate_dfgm7cpu785l" data-item-class="Label Stroke Indexed ColorStrokeBlack" data-item-index="3" data-renderer-id="0" transform="translate(260, 182)"><g id="tx_automate_dfgm7cpu785l-fill" stroke="none" fill="#484848"><g><text style="font: 20px Roboto, sans-serif; white-space: pre;" font-weight="20px" font-size="Roboto," font-family="sans-serif"><tspan x="12.25" y="34" dominant-baseline="ideographic">Automated </tspan><tspan x="17.63" y="58" dominant-baseline="ideographic">Response</tspan></text></g></g></g><g id="g-root-tx_anomalyd_hwj2i0pu79jg-fill" data-item-order="1000000000" data-item-id="tx_anomalyd_hwj2i0pu79jg" data-item-class="Label Stroke ColorStrokeBlack" data-item-index="none" data-renderer-id="0" transform="translate(2, 302)"><g id="tx_anomalyd_hwj2i0pu79jg-fill" stroke="none" fill="#484848"><g><text style="font: 20px Roboto, sans-serif; white-space: pre;" font-weight="20px" font-size="Roboto," font-family="sans-serif"><tspan x="25.78" y="34" dominant-baseline="ideographic">Anomaly </tspan><tspan x="18.86" y="58" dominant-baseline="ideographic">Detection</tspan></text></g></g></g><g id="g-root-warn_141r5uwpu785j-fill" data-item-order="1000000000" data-item-id="warn_141r5uwpu785j" data-item-class="Icon Stroke Indexed Indexed_1 InsideFill InsideColorFill" data-item-index="1" data-renderer-id="0" transform="translate(158, 302)"></g><g id="g-root-codi_1lw5gmgpumpzj-fill" data-item-order="1000000000" data-item-id="codi_1lw5gmgpumpzj" data-item-class="Icon Stroke Indexed InsideFill InsideColorFill" data-item-index="2" data-renderer-id="0" transform="translate(230, 302)"></g><g id="g-root-sele_1hi7drcpu77rg-fill" data-item-order="1000000000" data-item-id="sele_1hi7drcpu77rg" data-item-class="Icon Stroke Indexed InsideFill InsideColorFill" data-item-index="3" data-renderer-id="0" transform="translate(302, 302)"></g><g id="g-root-tx_minimize_qqanhkpu79qg-fill" data-item-order="1000000000" data-item-id="tx_minimize_qqanhkpu79qg" data-item-class="Label Stroke ColorStrokeBlack" data-item-index="none" data-renderer-id="0" transform="translate(374, 302)"><g id="tx_minimize_qqanhkpu79qg-fill" stroke="none" fill="#484848"><g><text style="font: 20px Roboto, sans-serif; white-space: pre;" font-weight="20px" font-size="Roboto," font-family="sans-serif"><tspan x="12" y="34" dominant-baseline="ideographic">Minimized </tspan><tspan x="12" y="58" dominant-baseline="ideographic">Downtime</tspan></text></g></g></g><g id="g-root-tx_ailogicp_1upx4rspu775u-fill" data-item-order="1000000000" data-item-id="tx_ailogicp_1upx4rspu775u" data-item-class="Label Stroke Indexed ColorStrokeBlack" data-item-index="2" data-renderer-id="0" transform="translate(188, 458)"><g id="tx_ailogicp_1upx4rspu775u-fill" stroke="none" fill="#484848"><g><text style="font: 20px Roboto, sans-serif; white-space: pre;" font-weight="20px" font-size="Roboto," font-family="sans-serif"><tspan x="27.92" y="34" dominant-baseline="ideographic">AI Logic </tspan><tspan x="14.3" y="58" dominant-baseline="ideographic">Processing</tspan></text></g></g></g><g id="g-root-3.cu_sy_hxrucopuifwu-stroke" data-item-order="999915278" data-item-id="3.cu_sy_hxrucopuifwu" data-item-class="Part Indexed Fill Stroke" data-item-index="3" data-renderer-id="0" transform="translate(277.666015625, 274.4619140625)"><g id="3.cu_sy_hxrucopuifwu-stroke" fill="none" stroke-linecap="round" stroke-linejoin="round" stroke-miterlimit="4" stroke="#ffffff" stroke-width="2"><g><path d="M 10.0071 113.5226C 32.7708 106.6795 57.0172 101.571 82.3337 97.9865C 88.9611 97.9865 94.3337 81.7684 94.3337 61.7624C 94.3337 41.7563 88.9611 25.5382 82.3337 25.5382C 57.0146 21.9534 32.7658 16.8442 10 10L 10.388 10.1182C 17.1541 13.8288 22.3455 35.5585 22.3455 61.7569C 22.3455 87.8214 17.2291 109.4988 10.5136 113.3729L 10.0071 113.5226Z"></path></g></g></g><g id="g-root-3.line_sy_4mbbzcpuihhr-stroke" data-item-order="999915283" data-item-id="3.line_sy_4mbbzcpuihhr" data-item-class="Curve Stroke Part LeaderLine Indexed ColorStrokeBlack" data-item-index="3" data-renderer-id="0" transform="translate(314, 242)"><g id="3.line_sy_4mbbzcpuihhr-stroke" fill="none" stroke-linecap="round" stroke-linejoin="round" stroke-miterlimit="4" stroke="#484848" stroke-width="2"><g><path d="M 10 10L 10 49.57"></path><path d="M 3.5 43.6L 10 50.1L 16.5 43.6" stroke-dasharray="none"></path></g></g></g><g id="g-root-2.cu_sy_1lwrujspuigi0-stroke" data-item-order="999915286" data-item-id="2.cu_sy_1lwrujspuigi0" data-item-class="Part Indexed Fill Stroke" data-item-index="2" data-renderer-id="0" transform="translate(203.896484375, 242.6083984375)"><g id="2.cu_sy_1lwrujspuigi0-stroke" fill="none" stroke-linecap="round" stroke-linejoin="round" stroke-miterlimit="4" stroke="#ffffff" stroke-width="2"><g><path d="M 10.3 177.0515C 32.2952 163.8667 57.0113 153.4223 83.7774 145.376L 84.2832 145.2264C 90.9987 141.3523 96.115 119.6749 96.115 93.6104C 96.115 67.412 90.9237 45.6823 84.1575 41.9717L 83.7703 41.8534C 56.8852 33.7708 32.0685 23.2686 10 10L 10.5361 10.3037C 18.2206 16.4606 24.1029 51.4418 24.1029 93.6104C 24.1029 135.4871 18.3369 170.28 10.7305 176.7889L 10.3 177.0515Z"></path></g></g></g><g id="g-root-2.line_sy_1hgycfcpuiha9-stroke" data-item-order="999915291" data-item-id="2.line_sy_1hgycfcpuiha9" data-item-class="Curve Stroke Part LeaderLine Indexed ColorStrokeBlack" data-item-index="2" data-renderer-id="0" transform="translate(242, 390.822265625)"><g id="2.line_sy_1hgycfcpuiha9-stroke" fill="none" stroke-linecap="round" stroke-linejoin="round" stroke-miterlimit="4" stroke="#484848" stroke-width="2"><g><path d="M 10 11.997734L 10 65.177734"></path><path d="M 16.5 17.977734L 10 11.477734L 3.5 17.977734" stroke-dasharray="none"></path></g></g></g><g id="g-root-1.cu_sy_1464b54puifpe-stroke" data-item-order="999915294" data-item-id="1.cu_sy_1464b54puifpe" data-item-class="Part Indexed Indexed_1 Fill Stroke" data-item-index="1" data-renderer-id="0" transform="translate(110, 170.22412109375)"><g id="1.cu_sy_1464b54puifpe-stroke" fill="none" stroke-linecap="round" stroke-linejoin="round" stroke-miterlimit="4" stroke="#ffffff" stroke-width="2"><g><path d="M 10 166C 10 252.156423 18.058875 322.000002 28 322.000002C 37.941126 322.000002 46 252.156423 46 166.000002C 46 79.843581 37.941126 10.000002 28 10.000002C 18.058875 10.000002 10 79.843581 10 166.000002M 30.074219 320.97261C 45.467319 295.23131 71.154719 268.35161 104.203419 249.35271C 109.864619 246.09831 118.000519 218.34721 118.000519 166.01021C 118.000519 116.93921 110.939919 86.20591 103.552119 81.87111C 68.921119 61.55131 45.323919 34.67681 30.096419 11.04541"></path></g></g></g><g id="g-root-1.line_sy_qunsrspuihab-stroke" data-item-order="999915299" data-item-id="1.line_sy_qunsrspuihab" data-item-class="Curve Stroke Part LeaderLine Indexed Indexed_1 ColorStrokeBlack" data-item-index="1" data-renderer-id="0" transform="translate(170, 146)"><g id="1.line_sy_qunsrspuihab-stroke" fill="none" stroke-linecap="round" stroke-linejoin="round" stroke-miterlimit="4" stroke="#484848" stroke-width="2"><g><path d="M 10 10L 10 80"></path><path d="M 3.5 74L 10 80.5L 16.5 74" stroke-dasharray="none"></path></g></g></g><g id="g-root-tx_automate_5vj3cpu78qt-stroke" data-item-order="1000000000" data-item-id="tx_automate_5vj3cpu78qt" data-item-class="Label Stroke Title ColorFillBlack ColorStrokeBlack" data-item-index="none" data-renderer-id="0" transform="translate(56, 2)"></g><g id="g-root-tx_naturall_18itm5kpu79jf-stroke" data-item-order="1000000000" data-item-id="tx_naturall_18itm5kpu79jf" data-item-class="Label Stroke Indexed Indexed_1 ColorStrokeBlack" data-item-index="1" data-renderer-id="0" transform="translate(98, 86)"></g><g id="g-root-tx_automate_dfgm7cpu785l-stroke" data-item-order="1000000000" data-item-id="tx_automate_dfgm7cpu785l" data-item-class="Label Stroke Indexed ColorStrokeBlack" data-item-index="3" data-renderer-id="0" transform="translate(260, 182)"></g><g id="g-root-tx_anomalyd_hwj2i0pu79jg-stroke" data-item-order="1000000000" data-item-id="tx_anomalyd_hwj2i0pu79jg" data-item-class="Label Stroke ColorStrokeBlack" data-item-index="none" data-renderer-id="0" transform="translate(2, 302)"></g><g id="g-root-warn_141r5uwpu785j-stroke" data-item-order="1000000000" data-item-id="warn_141r5uwpu785j" data-item-class="Icon Stroke Indexed Indexed_1 InsideFill InsideColorFill" data-item-index="1" data-renderer-id="0" transform="translate(158, 302)"><g id="warn_141r5uwpu785j-stroke" fill="none" stroke-linecap="round" stroke-linejoin="round" stroke-miterlimit="4" stroke="#ffffff" stroke-width="2"><g><path d="M 57.130001 45C 57.130001 46.104568 56.23457 47 55.130001 47L 33.129997 47L 25.130001 55L 25.130001 47L 13.13 47C 12.025431 47 11.13 46.104568 11.13 45L 11.13 14.964001C 11.13 13.85943 12.025431 12.964 13.13 12.964L 55.130001 12.964C 56.23457 12.964 57.130001 13.85943 57.130001 14.964001ZM 35.134003 34L 35.134003 20M 35.129997 38.464001C 35.406143 38.464001 35.629997 38.687859 35.629997 38.964001C 35.629997 39.240143 35.406143 39.464001 35.129997 39.464001C 34.853859 39.464001 34.629997 39.240143 34.629997 38.964001C 34.629997 38.687859 34.853859 38.464001 35.129997 38.464001"></path></g></g></g><g id="g-root-codi_1lw5gmgpumpzj-stroke" data-item-order="1000000000" data-item-id="codi_1lw5gmgpumpzj" data-item-class="Icon Stroke Indexed InsideFill InsideColorFill" data-item-index="2" data-renderer-id="0" transform="translate(230, 302)"><g id="codi_1lw5gmgpumpzj-stroke" fill="none" stroke-linecap="round" stroke-linejoin="round" stroke-miterlimit="4" stroke="#ffffff" stroke-width="2"><g><path d="M 41.026001 23.568001L 42.068001 23.568001C 42.643482 23.568001 43.110001 24.034519 43.110001 24.610001L 43.110001 31.903999M 41.026001 31.903999L 45.194 31.903999M 52.158001 10.978L 53.200001 10.978C 53.775482 10.978 54.242001 11.444519 54.242001 12.02L 54.242001 19.313999M 52.158001 19.313999L 56.326 19.313999M 52.158001 36.155998L 53.200001 36.155998C 53.775482 36.156002 54.242001 36.62252 54.242001 37.198002L 54.242001 44.492001M 52.158001 44.492001L 56.326 44.492001M 56.848 29.298C 56.84811 30.73678 55.681782 31.903202 54.243 31.903202C 52.804218 31.903202 51.63789 30.73678 51.638 29.298L 51.638 26.172001C 51.638111 24.733376 52.804379 23.567202 54.243 23.567202C 55.681622 23.567202 56.847889 24.733376 56.848 26.172001ZM 45.714001 41.888C 45.714001 43.32394 44.549938 44.487999 43.113998 44.487999C 41.678059 44.487999 40.514 43.32394 40.514 41.888L 40.514 38.762001C 40.514 37.326057 41.678059 36.161999 43.113998 36.161999C 44.549938 36.161999 45.714001 37.326057 45.714001 38.762001ZM 52.158001 48.641998L 53.200001 48.641998C 53.775482 48.642002 54.242001 49.108521 54.242001 49.684002L 54.242001 56.978001M 52.158001 56.978001L 56.326 56.978001M 45.714001 54.374001C 45.714001 55.80994 44.549938 56.973999 43.113998 56.973999C 41.678059 56.973999 40.514 55.80994 40.514 54.374001L 40.514 51.248001C 40.514 49.812057 41.678059 48.647999 43.113998 48.647999C 44.549938 48.647999 45.714001 49.812057 45.714001 51.248001ZM 45.714001 16.902C 45.714001 18.33794 44.549938 19.501999 43.113998 19.501999C 41.678059 19.501999 40.514 18.33794 40.514 16.902L 40.514 13.774C 40.514 12.338059 41.678059 11.174 43.113998 11.174C 44.549938 11.174 45.714001 12.338059 45.714001 13.774ZM 29.106001 44.521999C 29.106001 40.932152 26.195852 38.022003 22.606001 38.022003C 22.501999 38.021999 22.406 38.048 22.299999 38.052002M 28.43 18.799999C 30.366119 18.147182 31.499022 16.140135 31.057453 14.145205C 30.615887 12.150274 28.741808 10.808806 26.711044 11.034039C 24.680281 11.259271 23.145699 12.978794 23.152 15.021999C 23.157642 15.383017 23.212135 15.741607 23.313999 16.087999C 23.091999 16.068001 22.878 16.021999 22.652 16.021999C 19.79525 16.008055 17.181129 17.625923 15.919224 20.188892C 14.657316 22.751862 14.969008 25.810287 16.722 28.066C 13.590808 28.280815 11.16061 30.883448 11.16061 34.021999C 11.16061 37.160553 13.590808 39.763184 16.722 39.977997C 14.969008 42.233711 14.657316 45.292137 15.919224 47.855106C 17.181129 50.418076 19.79525 52.035946 22.652 52.021999C 22.878 52.021999 23.091999 51.973999 23.313999 51.953999C 22.718632 54.056328 23.920441 56.247406 26.013304 56.875237C 28.106165 57.503067 30.31558 56.335308 30.975721 54.252411C 31.635862 52.169514 30.502432 49.942295 28.43 49.25M 22.299999 30C 22.403999 30 22.5 30.030001 22.605999 30.030001C 26.195852 30.030001 29.106001 27.119852 29.106001 23.530001M 31.148001 14.828C 32.059685 14.300792 33.094856 14.024745 34.148003 14.028M 30.969999 54.216C 31.947201 54.744247 33.041161 55.019283 34.152 55.015999M 34.152 24.021999L 34.152 45.021999"></path></g></g></g><g id="g-root-sele_1hi7drcpu77rg-stroke" data-item-order="1000000000" data-item-id="sele_1hi7drcpu77rg" data-item-class="Icon Stroke Indexed InsideFill InsideColorFill" data-item-index="3" data-renderer-id="0" transform="translate(302, 302)"><g id="sele_1hi7drcpu77rg-stroke" fill="none" stroke-linecap="round" stroke-linejoin="round" stroke-miterlimit="4" stroke="#ffffff" stroke-width="2"><g><path d="M 20.285715 28.857143L 16.857143 23.714287L 27.142857 15.142858M 47.714287 28.857143L 51.142857 23.714287L 40.857143 15.142858M 27.142857 11.714286L 27.142857 15.142858C 27.142857 18.929953 30.212906 22 34 22C 37.787094 22 40.857143 18.929953 40.857143 15.142858L 40.857143 11.714286M 22 37.428574L 22 51.142857L 34 56.285713L 46 51.142857L 46 37.428574M 46 37.428574L 34 32.285713L 22 37.428574M 22 37.428574L 34 42.57143M 46 37.428574L 34 42.57143L 34 56.285713"></path></g></g></g><g id="g-root-tx_minimize_qqanhkpu79qg-stroke" data-item-order="1000000000" data-item-id="tx_minimize_qqanhkpu79qg" data-item-class="Label Stroke ColorStrokeBlack" data-item-index="none" data-renderer-id="0" transform="translate(374, 302)"></g><g id="g-root-tx_ailogicp_1upx4rspu775u-stroke" data-item-order="1000000000" data-item-id="tx_ailogicp_1upx4rspu775u" data-item-class="Label Stroke Indexed ColorStrokeBlack" data-item-index="2" data-renderer-id="0" transform="translate(188, 458)"></g></g></g></svg>