<?xml version="1.0" encoding="utf-8" standalone="yes"?>
<!DOCTYPE svg PUBLIC "-//W3C//DTD SVG 1.1//EN" "http://www.w3.org/Graphics/SVG/1.1/DTD/svg11.dtd">
<svg width="768" height="672" viewBox="0 0 768 672" style="fill:none;stroke:none;fill-rule:evenodd;clip-rule:evenodd;stroke-linecap:round;stroke-linejoin:round;stroke-miterlimit:1.5;" version="1.1" xmlns="http://www.w3.org/2000/svg" xmlns:xlink="http://www.w3.org/1999/xlink"><style id="fontImports"></style><rect id="" x="0" y="0" width="768" height="672" style="fill: #ffffff;"></rect><g id="items" style="isolation: isolate"><g id="blend" style="mix-blend-mode:normal"><g id="g-root-5.cu_sy_zqa6w8n2wcum-fill" data-item-order="999843415" data-item-id="5.cu_sy_zqa6w8n2wcum" data-item-class="Part Indexed Fill Stroke" data-item-index="5" data-renderer-id="0" transform="translate(215.70965576171875, 117.046875)"><g id="5.cu_sy_zqa6w8n2wcum-fill" stroke="none" fill="#7fb0ff"><g><path d="M 37.46402 22.963906C 7.564728 44.854912 1.072815 86.839608 22.96402 116.7389L 42.183441 142.989113L 89.662414 126.705513L 65.488128 93.687813L 65.512939 93.669609L 65.486328 93.688408L 61.633636 88.4264C 55.379028 79.883797 57.233825 67.887917 65.776428 61.633904C 74.319122 55.378914 86.314728 57.23391 92.569336 65.776909L 109.08493 88.333718L 109.060119 88.351906L 167.867035 168.670998L 167.871032 168.67051L 174.003052 177.045906L 203.560028 136.292916L 148.202026 60.683907L 148.226013 60.665902L 131.239013 37.463906C 109.347717 7.564904 67.36322 1.072899 37.46402 22.963906Z"></path></g></g></g><g id="g-root-4.cu_sy_metoiwn2wefj-fill" data-item-order="999843419" data-item-id="4.cu_sy_metoiwn2wefj" data-item-class="Part Indexed Fill Stroke" data-item-index="4" data-renderer-id="0" transform="translate(167, 234.609375)"><g id="4.cu_sy_metoiwn2wefj-fill" stroke="none" fill="#6e99e0"><g><path d="M 13.052917 129.569992C 24.071914 164.950394 61.68602 184.699295 97.066421 173.680313L 128.129013 164.006211L 128.112015 113.812485L 89.041916 125.980698L 89.03273 125.951309L 89.041916 125.98259L 82.815201 127.921799C 72.706619 131.070114 61.959732 125.427597 58.811416 115.318894C 55.663101 105.21019 61.305618 94.463303 71.414322 91.314987L 98.106827 83.001816L 98.116012 83.031204L 193.159012 53.431198L 193.160019 53.426193L 201.893997 50.706192L 171.434036 10.000199L 84.627426 37.035202L 84.618301 37.006211L 57.163223 45.556198C 21.782821 56.575211 2.03392 94.189591 13.052917 129.569992Z"></path></g></g></g><g id="g-root-3.cu_sy_djt5d4n2wcu8-fill" data-item-order="999843423" data-item-id="3.cu_sy_djt5d4n2wcu8" data-item-class="Part Indexed Fill Stroke" data-item-index="3" data-renderer-id="0" transform="translate(294.5702819824219, 288.955078125)"><g id="3.cu_sy_djt5d4n2wcu8-fill" stroke="none" fill="#5d83c1"><g><path d="M 77.17511 215.044983C 114.231995 215.023682 144.255005 184.966095 144.233002 147.909485L 144.214996 115.37558L 96.277893 100.492981L 96.301483 141.414887L 96.270691 141.414887L 96.303314 141.415375L 96.307098 147.937073C 96.31311 158.524689 87.735107 167.112579 77.147491 167.118683C 66.559906 167.124695 57.972107 158.546692 57.966003 147.959076L 57.94989 120.002075L 57.980713 120.002075L 57.923401 20.455994L 57.919708 20.45398L 57.913605 10L 10 25.557983L 10.053894 119.230896L 10.023102 119.230896L 10.039612 147.986694C 10.061005 185.043274 40.1185 215.066284 77.17511 215.044983Z"></path></g></g></g><g id="g-root-2.cu_sy_4o6548n2wdmx-fill" data-item-order="999843427" data-item-id="2.cu_sy_4o6548n2wdmx" data-item-class="Part Indexed Fill Stroke" data-item-index="2" data-renderer-id="0" transform="translate(354.6248779296875, 260.1763916015625)"><g id="2.cu_sy_4o6548n2wdmx-fill" stroke="none" fill="#4b6ca2"><g><path d="M 208.251984 105.57019C 220.168 70.481567 201.381989 32.376983 166.293976 20.460998L 135.488007 10L 105.958405 50.587982L 144.707001 63.746887L 144.696991 63.776092L 144.707978 63.745391L 150.882966 65.842468C 160.90799 69.246887 166.276032 80.13388 162.871003 90.159179C 159.467011 100.18457 148.579987 105.551788 138.553986 102.147277L 112.082001 93.157592L 112.092011 93.128387L 17.832795 61.118988L 17.829499 61.121887L 10 58.463073L 10 109.073486L 95.924591 138.252594L 95.914704 138.281799L 123.142975 147.528289C 158.231965 159.443969 196.335968 140.658691 208.251984 105.57019Z"></path></g></g></g><g id="g-root-1.cu_sy_1qeg5t4n2wbuy-fill" data-item-order="999843431" data-item-id="1.cu_sy_1qeg5t4n2wbuy" data-item-class="Part Indexed Indexed_1 Fill Stroke" data-item-index="1" data-renderer-id="0" transform="translate(367.278564453125, 117.0643310546875)"><g id="1.cu_sy_1qeg5t4n2wbuy-fill" stroke="none" fill="#3a5683"><g><path d="M 122.833985 22.809539C 92.848999 1.035537 50.89029 7.691528 29.116394 37.676528L 10 64.001525L 40.020997 104.22853L 64.065796 71.115539L 64.090699 71.134536L 64.064698 71.114532L 67.896698 65.837539C 74.117798 57.270538 86.106019 55.36853 94.673096 61.589538C 103.240174 67.810531 105.141968 79.798538 98.920899 88.365539L 82.493775 110.987533L 82.468811 110.969543L 23.977295 191.518524L 23.979096 191.522522L 19.091095 198.253723L 67.596497 213.015533L 120.78003 139.776733L 120.804993 139.79483L 137.700989 116.526641C 159.474976 86.541534 152.81897 44.583526 122.833985 22.809539Z"></path></g></g></g><g id="g-root-tx_streamli_1d2znfsn2wdfv-fill" data-item-order="1000000000" data-item-id="tx_streamli_1d2znfsn2wdfv" data-item-class="Label Stroke Title" data-item-index="none" data-renderer-id="0" transform="translate(122, 2)"><g id="tx_streamli_1d2znfsn2wdfv-fill" stroke="none" fill="#484848"><g><text style="font: bold 25px Arial, Helvetica, sans-serif; white-space: pre;" font-weight="bold" font-size="25" font-family="Arial, Helvetica, sans-serif"><tspan x="13.38" y="41.8" dominant-baseline="ideographic">Streamlining Asset Management with AI</tspan></text></g></g></g><g id="g-root-tx_automate_1cwqzqgn2b8xw-fill" data-item-order="1000000000" data-item-id="tx_automate_1cwqzqgn2b8xw" data-item-class="Label Stroke Indexed" data-item-index="5" data-renderer-id="0" transform="translate(44, 68)"><g id="tx_automate_1cwqzqgn2b8xw-fill" stroke="none" fill="#484848"><g><text style="font: bold 20px Arial, Helvetica, sans-serif; white-space: pre;" font-weight="bold" font-size="20" font-family="Arial, Helvetica, sans-serif"><tspan x="59.55" y="33.2" dominant-baseline="ideographic">Automated </tspan><tspan x="20.64" y="57.2" dominant-baseline="ideographic">Summarization</tspan></text></g></g></g><g id="g-root-tx_realtime_qpnh48n2bbbh-fill" data-item-order="1000000000" data-item-id="tx_realtime_qpnh48n2bbbh" data-item-class="Label Stroke Indexed Indexed_1" data-item-index="1" data-renderer-id="0" transform="translate(524, 68)"><g id="tx_realtime_qpnh48n2bbbh-fill" stroke="none" fill="#484848"><g><text style="font: bold 20px Arial, Helvetica, sans-serif; white-space: pre;" font-weight="bold" font-size="20" font-family="Arial, Helvetica, sans-serif"><tspan x="12" y="33.2" dominant-baseline="ideographic">Real-time Data </tspan><tspan x="12" y="57.2" dominant-baseline="ideographic">Streaming</tspan></text></g></g></g><g id="g-root-tx_generate_zs5m5kn2wbv0-fill" data-item-order="1000000000" data-item-id="tx_generate_zs5m5kn2wbv0" data-item-class="Label Stroke Indexed" data-item-index="5" data-renderer-id="0" transform="translate(32.15234375, 128)"><g id="tx_generate_zs5m5kn2wbv0-fill" stroke="none" fill="#484848"><g><text style="font: 20px Arial, Helvetica, sans-serif; white-space: pre;" font-weight="20px" font-size="Arial," font-family="Helvetica, sans-serif"><tspan x="52.6" y="33.2" dominant-baseline="ideographic">Generates AI-</tspan><tspan x="18.18" y="57.2" dominant-baseline="ideographic">driven summaries </tspan><tspan x="103.75" y="81.2" dominant-baseline="ideographic">for clear </tspan><tspan x="41.49" y="105.2" dominant-baseline="ideographic">communication</tspan></text></g></g></g><g id="g-root-tx_enablesn_zjf23sn2bbig-fill" data-item-order="1000000000" data-item-id="tx_enablesn_zjf23sn2bbig" data-item-class="Label Stroke Indexed Indexed_1" data-item-index="1" data-renderer-id="0" transform="translate(524, 128)"><g id="tx_enablesn_zjf23sn2bbig-fill" stroke="none" fill="#484848"><g><text style="font: 20px Arial, Helvetica, sans-serif; white-space: pre;" font-weight="20px" font-size="Arial," font-family="Helvetica, sans-serif"><tspan x="12" y="33.2" dominant-baseline="ideographic">Enables near real-</tspan><tspan x="12" y="57.2" dominant-baseline="ideographic">time data </tspan><tspan x="12" y="81.2" dominant-baseline="ideographic">processing from </tspan><tspan x="12" y="105.2" dominant-baseline="ideographic">various sources</tspan></text></g></g></g><g id="g-root-tx_intuitiv_m8l0tkn2b9xl-fill" data-item-order="1000000000" data-item-id="tx_intuitiv_m8l0tkn2b9xl" data-item-class="Label Stroke Indexed" data-item-index="4" data-renderer-id="0" transform="translate(2, 314)"><g id="tx_intuitiv_m8l0tkn2b9xl-fill" stroke="none" fill="#484848"><g><text style="font: bold 20px Arial, Helvetica, sans-serif; white-space: pre;" font-weight="bold" font-size="20" font-family="Arial, Helvetica, sans-serif"><tspan x="21.95" y="33.2" dominant-baseline="ideographic">Intuitive Case </tspan><tspan x="29.75" y="57.2" dominant-baseline="ideographic">Management</tspan></text></g></g></g><g id="g-root-tx_advanced_1q7l10on2bair-fill" data-item-order="1000000000" data-item-id="tx_advanced_1q7l10on2bair" data-item-class="Label Stroke Indexed" data-item-index="2" data-renderer-id="0" transform="translate(578, 314)"><g id="tx_advanced_1q7l10on2bair-fill" stroke="none" fill="#484848"><g><text style="font: bold 20px Arial, Helvetica, sans-serif; white-space: pre;" font-weight="bold" font-size="20" font-family="Arial, Helvetica, sans-serif"><tspan x="12" y="33.2" dominant-baseline="ideographic">Advanced </tspan><tspan x="12" y="57.2" dominant-baseline="ideographic">Sensor Analytics</tspan></text></g></g></g><g id="g-root-tx_assistsi_mgp3s8n2wdfx-fill" data-item-order="1000000000" data-item-id="tx_assistsi_mgp3s8n2wdfx" data-item-class="Label Stroke Indexed" data-item-index="4" data-renderer-id="0" transform="translate(2, 362)"><g id="tx_assistsi_mgp3s8n2wdfx-fill" stroke="none" fill="#484848"><g><text style="font: 20px Arial, Helvetica, sans-serif; white-space: pre;" font-weight="20px" font-size="Arial," font-family="Helvetica, sans-serif"><tspan x="15.29" y="33.2" dominant-baseline="ideographic">Assists in quick </tspan><tspan x="58.6" y="57.2" dominant-baseline="ideographic">root cause </tspan><tspan x="40.81" y="81.2" dominant-baseline="ideographic">analysis and </tspan><tspan x="83.06" y="105.2" dominant-baseline="ideographic">solution </tspan><tspan x="45.25" y="129.2" dominant-baseline="ideographic">suggestions</tspan></text></g></g></g><g id="g-root-tx_provides_1hap2lkn2b95b-fill" data-item-order="1000000000" data-item-id="tx_provides_1hap2lkn2b95b" data-item-class="Label Stroke Indexed" data-item-index="2" data-renderer-id="0" transform="translate(577.923828125, 374)"><g id="tx_provides_1hap2lkn2b95b-fill" stroke="none" fill="#484848"><g><text style="font: 20px Arial, Helvetica, sans-serif; white-space: pre;" font-weight="20px" font-size="Arial," font-family="Helvetica, sans-serif"><tspan x="12" y="33.2" dominant-baseline="ideographic">Provides </tspan><tspan x="12" y="57.2" dominant-baseline="ideographic">immediate </tspan><tspan x="12" y="81.2" dominant-baseline="ideographic">insights and </tspan><tspan x="12" y="105.2" dominant-baseline="ideographic">historical analysis</tspan></text></g></g></g><g id="g-root-tx_smartale_4hxhewn2b94y-fill" data-item-order="1000000000" data-item-id="tx_smartale_4hxhewn2b94y" data-item-class="Label Stroke Indexed" data-item-index="3" data-renderer-id="0" transform="translate(290, 542)"><g id="tx_smartale_4hxhewn2b94y-fill" stroke="none" fill="#484848"><g><text style="font: bold 20px Arial, Helvetica, sans-serif; white-space: pre;" font-weight="bold" font-size="20" font-family="Arial, Helvetica, sans-serif"><tspan x="13.47" y="33.2" dominant-baseline="ideographic">Smart Alerting</tspan></text></g></g></g><g id="g-root-tx_usesaito_4g225kn2ba4m-fill" data-item-order="1000000000" data-item-id="tx_usesaito_4g225kn2ba4m" data-item-class="Label Stroke Indexed" data-item-index="3" data-renderer-id="0" transform="translate(272, 578)"><g id="tx_usesaito_4g225kn2ba4m-fill" stroke="none" fill="#484848"><g><text style="font: 20px Arial, Helvetica, sans-serif; white-space: pre;" font-weight="20px" font-size="Arial," font-family="Helvetica, sans-serif"><tspan x="17.42" y="33.2" dominant-baseline="ideographic">Uses AI to set and </tspan><tspan x="51.32" y="57.2" dominant-baseline="ideographic">respond to </tspan><tspan x="33.54" y="81.2" dominant-baseline="ideographic">anomaly alerts</tspan></text></g></g></g><g id="g-root-5.cu_sy_zqa6w8n2wcum-stroke" data-item-order="999843415" data-item-id="5.cu_sy_zqa6w8n2wcum" data-item-class="Part Indexed Fill Stroke" data-item-index="5" data-renderer-id="0" transform="translate(215.70965576171875, 117.046875)"><g id="5.cu_sy_zqa6w8n2wcum-stroke" fill="none" stroke-linecap="butt" stroke-linejoin="miter" stroke-miterlimit="4" stroke="#7fb0ff" stroke-width="1"><g><path d="M 37.46402 22.964013C 7.564728 44.855202 1.072815 86.839608 22.96402 116.7389L 42.183441 142.989113L 89.662414 126.705513L 65.488128 93.687813L 65.512939 93.669609L 65.486328 93.688408L 61.633636 88.4264C 55.379028 79.883797 57.233825 67.888207 65.776428 61.633614C 74.319122 55.379006 86.314728 57.233803 92.569336 65.776406L 109.08493 88.333718L 109.060119 88.351906L 167.866821 168.670998L 167.871124 168.67051L 174.003235 177.045906L 203.559723 136.292916L 148.201538 60.683907L 148.22644 60.665703L 131.238922 37.464013C 109.347717 7.564705 67.36322 1.072808 37.46402 22.964013Z"></path></g></g></g><g id="g-root-4.cu_sy_metoiwn2wefj-stroke" data-item-order="999843419" data-item-id="4.cu_sy_metoiwn2wefj" data-item-class="Part Indexed Fill Stroke" data-item-index="4" data-renderer-id="0" transform="translate(167, 234.609375)"><g id="4.cu_sy_metoiwn2wefj-stroke" fill="none" stroke-linecap="butt" stroke-linejoin="miter" stroke-miterlimit="4" stroke="#6e99e0" stroke-width="1"><g><path d="M 13.052917 129.569992C 24.071914 164.950394 61.68602 184.699295 97.066421 173.680313L 128.128708 164.006211L 128.112411 113.812393L 89.041916 125.980698L 89.03273 125.951309L 89.041916 125.98259L 82.815201 127.921799C 72.706619 131.070114 61.959732 125.427597 58.811416 115.318894C 55.663101 105.21019 61.305618 94.463303 71.414322 91.314987L 98.106827 83.001816L 98.116012 83.031204L 193.159134 53.430802L 193.160019 53.42659L 201.893997 50.706406L 171.434219 10L 84.627426 37.035202L 84.618301 37.005783L 57.163223 45.556504C 21.782821 56.575485 2.03392 94.189591 13.052917 129.569992Z"></path></g></g></g><g id="g-root-3.cu_sy_djt5d4n2wcu8-stroke" data-item-order="999843423" data-item-id="3.cu_sy_djt5d4n2wcu8" data-item-class="Part Indexed Fill Stroke" data-item-index="3" data-renderer-id="0" transform="translate(294.5702819824219, 288.955078125)"><g id="3.cu_sy_djt5d4n2wcu8-stroke" fill="none" stroke-linecap="butt" stroke-linejoin="miter" stroke-miterlimit="4" stroke="#5d83c1" stroke-width="1"><g><path d="M 77.17511 215.044983C 114.231689 215.023682 144.2547 184.966095 144.233398 147.909485L 144.214691 115.375488L 96.277893 100.493378L 96.301483 141.414887L 96.270691 141.414887L 96.303314 141.415375L 96.307098 147.937073C 96.31311 158.524689 87.735107 167.112579 77.147491 167.118591C 66.559906 167.124695 57.972107 158.546692 57.966003 147.959076L 57.94989 120.002075L 57.980713 120.002075L 57.923401 20.456177L 57.919708 20.45398L 57.913605 10.000305L 10 25.558289L 10.053894 119.230896L 10.023102 119.230896L 10.039612 147.986694C 10.061005 185.043274 40.1185 215.066284 77.17511 215.044983Z"></path></g></g></g><g id="g-root-2.cu_sy_4o6548n2wdmx-stroke" data-item-order="999843427" data-item-id="2.cu_sy_4o6548n2wdmx" data-item-class="Part Indexed Fill Stroke" data-item-index="2" data-renderer-id="0" transform="translate(354.6248779296875, 260.1763916015625)"><g id="2.cu_sy_4o6548n2wdmx-stroke" fill="none" stroke-linecap="butt" stroke-linejoin="miter" stroke-miterlimit="4" stroke="#4b6ca2" stroke-width="1"><g><path d="M 208.252106 105.57019C 220.167817 70.481567 201.382477 32.377075 166.293915 20.461364L 135.487824 10L 105.958405 50.588501L 144.706574 63.746978L 144.696686 63.776092L 144.707673 63.745391L 150.882966 65.842468C 160.908295 69.246887 166.275483 80.13388 162.871003 90.159179C 159.466584 100.184478 148.579621 105.551788 138.554291 102.147277L 112.082001 93.157592L 112.091889 93.128387L 17.832795 61.118988L 17.829499 61.121887L 10 58.463073L 10 109.073486L 95.924591 138.252594L 95.914704 138.281799L 123.143403 147.528289C 158.231903 159.443969 196.336396 140.658691 208.252106 105.57019Z"></path></g></g></g><g id="g-root-1.cu_sy_1qeg5t4n2wbuy-stroke" data-item-order="999843431" data-item-id="1.cu_sy_1qeg5t4n2wbuy" data-item-class="Part Indexed Indexed_1 Fill Stroke" data-item-index="1" data-renderer-id="0" transform="translate(367.278564453125, 117.0643310546875)"><g id="1.cu_sy_1qeg5t4n2wbuy-stroke" fill="none" stroke-linecap="butt" stroke-linejoin="miter" stroke-miterlimit="4" stroke="#3a5683" stroke-width="1"><g><path d="M 122.833802 22.809326C 92.848999 1.035537 50.89029 7.691833 29.116394 37.676635L 10 64.001937L 40.020997 104.228134L 64.065796 71.115936L 64.090699 71.134033L 64.064698 71.11444L 67.896698 65.837326C 74.117798 57.270233 86.106019 55.368438 94.673096 61.589538C 103.240174 67.810638 105.141968 79.798934 98.920899 88.365936L 82.493775 110.987731L 82.468811 110.969635L 23.977295 191.518524L 23.979096 191.522522L 19.091095 198.253723L 67.596497 213.015533L 120.779725 139.776733L 120.804688 139.79483L 137.701111 116.526641C 159.474976 86.541839 152.818604 44.583129 122.833802 22.809326Z"></path></g></g></g><g id="g-root-tx_streamli_1d2znfsn2wdfv-stroke" data-item-order="1000000000" data-item-id="tx_streamli_1d2znfsn2wdfv" data-item-class="Label Stroke Title" data-item-index="none" data-renderer-id="0" transform="translate(122, 2)"></g><g id="g-root-tx_automate_1cwqzqgn2b8xw-stroke" data-item-order="1000000000" data-item-id="tx_automate_1cwqzqgn2b8xw" data-item-class="Label Stroke Indexed" data-item-index="5" data-renderer-id="0" transform="translate(44, 68)"></g><g id="g-root-tx_realtime_qpnh48n2bbbh-stroke" data-item-order="1000000000" data-item-id="tx_realtime_qpnh48n2bbbh" data-item-class="Label Stroke Indexed Indexed_1" data-item-index="1" data-renderer-id="0" transform="translate(524, 68)"></g><g id="g-root-tx_generate_zs5m5kn2wbv0-stroke" data-item-order="1000000000" data-item-id="tx_generate_zs5m5kn2wbv0" data-item-class="Label Stroke Indexed" data-item-index="5" data-renderer-id="0" transform="translate(32.15234375, 128)"></g><g id="g-root-tx_enablesn_zjf23sn2bbig-stroke" data-item-order="1000000000" data-item-id="tx_enablesn_zjf23sn2bbig" data-item-class="Label Stroke Indexed Indexed_1" data-item-index="1" data-renderer-id="0" transform="translate(524, 128)"></g><g id="g-root-tx_intuitiv_m8l0tkn2b9xl-stroke" data-item-order="1000000000" data-item-id="tx_intuitiv_m8l0tkn2b9xl" data-item-class="Label Stroke Indexed" data-item-index="4" data-renderer-id="0" transform="translate(2, 314)"></g><g id="g-root-tx_advanced_1q7l10on2bair-stroke" data-item-order="1000000000" data-item-id="tx_advanced_1q7l10on2bair" data-item-class="Label Stroke Indexed" data-item-index="2" data-renderer-id="0" transform="translate(578, 314)"></g><g id="g-root-tx_assistsi_mgp3s8n2wdfx-stroke" data-item-order="1000000000" data-item-id="tx_assistsi_mgp3s8n2wdfx" data-item-class="Label Stroke Indexed" data-item-index="4" data-renderer-id="0" transform="translate(2, 362)"></g><g id="g-root-tx_provides_1hap2lkn2b95b-stroke" data-item-order="1000000000" data-item-id="tx_provides_1hap2lkn2b95b" data-item-class="Label Stroke Indexed" data-item-index="2" data-renderer-id="0" transform="translate(577.923828125, 374)"></g><g id="g-root-tx_smartale_4hxhewn2b94y-stroke" data-item-order="1000000000" data-item-id="tx_smartale_4hxhewn2b94y" data-item-class="Label Stroke Indexed" data-item-index="3" data-renderer-id="0" transform="translate(290, 542)"></g><g id="g-root-tx_usesaito_4g225kn2ba4m-stroke" data-item-order="1000000000" data-item-id="tx_usesaito_4g225kn2ba4m" data-item-class="Label Stroke Indexed" data-item-index="3" data-renderer-id="0" transform="translate(272, 578)"></g></g></g></svg>