<?xml version="1.0" encoding="utf-8" standalone="yes"?>
<!DOCTYPE svg PUBLIC "-//W3C//DTD SVG 1.1//EN" "http://www.w3.org/Graphics/SVG/1.1/DTD/svg11.dtd">
<svg width="649" height="468" viewBox="0 0 649 468" style="fill:none;stroke:none;fill-rule:evenodd;clip-rule:evenodd;stroke-linecap:round;stroke-linejoin:round;stroke-miterlimit:1.5;" version="1.1" xmlns="http://www.w3.org/2000/svg" xmlns:xlink="http://www.w3.org/1999/xlink"><style id="fontImports">@import url("https://fonts.googleapis.com/css2?family=Shantell+Sans:wght@300..800&amp;display=block");</style><rect id="" x="0" y="0" width="649" height="468" style="fill: #ffffff;"></rect><g id="items" style="isolation: isolate"><g id="blend" style="mix-blend-mode:normal"><g id="g-root--1.line_sy_1lr5u9kogj30q-fill" data-item-order="999880199" data-item-id="-1.line_sy_1lr5u9kogj30q" data-item-class="Curve Stroke Part ColorStrokeBlack" data-item-index="-1" data-renderer-id="0" transform="translate(558, 289.99609375)"></g><g id="g-root--1.vector_sy_1hbcc54ogj3sz-fill" data-item-order="999880201" data-item-id="-1.vector_sy_1hbcc54ogj3sz" data-item-class="Curve Stroke Part ColorStrokeBlack" data-item-index="-1" data-renderer-id="0" transform="translate(3, 289.99609375)"></g><g id="g-root-6.cr-big_cr_18fpbw8ogj4lo-fill" data-item-order="999880204" data-item-id="6.cr-big_cr_18fpbw8ogj4lo" data-item-class="Shape Stroke Fill Part Indexed" data-item-index="6" data-renderer-id="0" transform="translate(519, 313.998046875)"><g id="6.cr-big_cr_18fpbw8ogj4lo-fill" stroke="none" fill="#fde6cf"><g><path d="M 10 46C 10 65.882251 26.117749 82 46 82C 65.882251 82 82 65.882251 82 46C 82 26.117749 65.882251 10 46 10C 26.117749 10 10 26.117749 10 46"></path></g></g></g><g id="g-root-6.cu-smallCircle_sy_v4vam0ogj30t-fill" data-item-order="999880207" data-item-id="6.cu-smallCircle_sy_v4vam0ogj30t" data-item-class="Part Indexed Stroke" data-item-index="6" data-renderer-id="0" transform="translate(552, 287.001953125)"></g><g id="g-root-6.ln_ln_qp1shkogj3t2-fill" data-item-order="999880209" data-item-id="6.ln_ln_qp1shkogj3t2" data-item-class="Curve Stroke Part Indexed" data-item-index="6" data-renderer-id="0" transform="translate(555, 293.00201416015625)"></g><g id="g-root-5.cr-big_cr_htes8oogj4lr-fill" data-item-order="999880212" data-item-id="5.cr-big_cr_htes8oogj4lr" data-item-class="Shape Stroke Fill Part Indexed" data-item-index="5" data-renderer-id="0" transform="translate(423, 194)"><g id="5.cr-big_cr_htes8oogj4lr-fill" stroke="none" fill="#fff9ce"><g><path d="M 10 46C 10 65.882251 26.117749 82 46 82C 65.882251 82 82 65.882251 82 46C 82 26.117749 65.882251 10 46 10C 26.117749 10 10 26.117749 10 46"></path></g></g></g><g id="g-root-5.cu-smallCircle_sy_8ye92wogj30g-fill" data-item-order="999880215" data-item-id="5.cu-smallCircle_sy_8ye92wogj30g" data-item-class="Part Indexed Stroke" data-item-index="5" data-renderer-id="0" transform="translate(456, 286.99609375)"></g><g id="g-root-5.ln_ln_2r8u0ogj3t5-fill" data-item-order="999880217" data-item-id="5.ln_ln_2r8u0ogj3t5" data-item-class="Curve Stroke Part Indexed" data-item-index="5" data-renderer-id="0" transform="translate(459, 266)"></g><g id="g-root-4.cr-big_cr_1uo1sooogj4ea-fill" data-item-order="999880220" data-item-id="4.cr-big_cr_1uo1sooogj4ea" data-item-class="Shape Stroke Fill Part Indexed" data-item-index="4" data-renderer-id="0" transform="translate(327, 313.998046875)"><g id="4.cr-big_cr_1uo1sooogj4ea-fill" stroke="none" fill="#ecf7d5"><g><path d="M 10 46C 10 65.882251 26.117749 82 46 82C 65.882251 82 82 65.882251 82 46C 82 26.117749 65.882251 10 46 10C 26.117749 10 10 26.117749 10 46"></path></g></g></g><g id="g-root-4.cu-smallCircle_sy_1lt19iwogj217-fill" data-item-order="999880223" data-item-id="4.cu-smallCircle_sy_1lt19iwogj217" data-item-class="Part Indexed Stroke" data-item-index="4" data-renderer-id="0" transform="translate(360, 287.001953125)"></g><g id="g-root-4.ln_ln_18hkr5kogj3m4-fill" data-item-order="999880225" data-item-id="4.ln_ln_18hkr5kogj3m4" data-item-class="Curve Stroke Part Indexed" data-item-index="4" data-renderer-id="0" transform="translate(363, 293.00201416015625)"></g><g id="g-root-3.cr-big_cr_141r914ogj4ed-fill" data-item-order="999880228" data-item-id="3.cr-big_cr_141r914ogj4ed" data-item-class="Shape Stroke Fill Part Indexed" data-item-index="3" data-renderer-id="0" transform="translate(231, 194)"><g id="3.cr-big_cr_141r914ogj4ed-fill" stroke="none" fill="#d5f7e8"><g><path d="M 10 46C 10 65.882251 26.117749 82 46 82C 65.882251 82 82 65.882251 82 46C 82 26.117749 65.882251 10 46 10C 26.117749 10 10 26.117749 10 46"></path></g></g></g><g id="g-root-3.cu-smallCircle_sy_qqx7qwogj2ti-fill" data-item-order="999880231" data-item-id="3.cu-smallCircle_sy_qqx7qwogj2ti" data-item-class="Part Indexed Stroke" data-item-index="3" data-renderer-id="0" transform="translate(264, 286.99609375)"></g><g id="g-root-3.ln_ln_hva7i0ogj3m7-fill" data-item-order="999880233" data-item-id="3.ln_ln_hva7i0ogj3m7" data-item-class="Curve Stroke Part Indexed" data-item-index="3" data-renderer-id="0" transform="translate(267, 266)"></g><g id="g-root-2.cr-big_cr_dfgpdkogj4eg-fill" data-item-order="999880236" data-item-id="2.cr-big_cr_dfgpdkogj4eg" data-item-class="Shape Stroke Fill Part Indexed" data-item-index="2" data-renderer-id="0" transform="translate(135, 314)"><g id="2.cr-big_cr_dfgpdkogj4eg-fill" stroke="none" fill="#cef3ff"><g><path d="M 10 46C 10 65.882251 26.117749 82 46 82C 65.882251 82 82 65.882251 82 46C 82 26.117749 65.882251 10 46 10C 26.117749 10 10 26.117749 10 46"></path></g></g></g><g id="g-root-2.cu-smallCircle_sy_1upx7y0ogj3ep-fill" data-item-order="999880239" data-item-id="2.cu-smallCircle_sy_1upx7y0ogj3ep" data-item-class="Part Indexed Stroke" data-item-index="2" data-renderer-id="0" transform="translate(168, 287.001953125)"></g><g id="g-root-2.ln_ln_1lua7p4ogj47e-fill" data-item-order="999880241" data-item-id="2.ln_ln_1lua7p4ogj47e" data-item-class="Curve Stroke Part Indexed" data-item-index="2" data-renderer-id="0" transform="translate(171, 293.00201416015625)"></g><g id="g-root-1.cr-big_cr_18jg6ewogj2mj-fill" data-item-order="999880244" data-item-id="1.cr-big_cr_18jg6ewogj2mj" data-item-class="Shape Stroke Fill Part Indexed Indexed_1" data-item-index="1" data-renderer-id="0" transform="translate(39, 194)"><g id="1.cr-big_cr_18jg6ewogj2mj-fill" stroke="none" fill="#cedfff"><g><path d="M 10 46C 10 65.882251 26.117749 82 46 82C 65.882251 82 82 65.882251 82 46C 82 26.117749 65.882251 10 46 10C 26.117749 10 10 26.117749 10 46"></path></g></g></g><g id="g-root-1.cu-smallCircle_sy_v7zo1kogj47g-fill" data-item-order="999880247" data-item-id="1.cu-smallCircle_sy_v7zo1kogj47g" data-item-class="Part Indexed Indexed_1 Stroke" data-item-index="1" data-renderer-id="0" transform="translate(72, 286.99609375)"></g><g id="g-root-1.ln_ln_qssn08ogj1tx-fill" data-item-order="999880249" data-item-id="1.ln_ln_qssn08ogj1tx" data-item-class="Curve Stroke Part Indexed Indexed_1" data-item-index="1" data-renderer-id="0" transform="translate(75, 266)"></g><g id="g-root-tx_enablera_18kpke0og9atq-fill" data-item-order="1000000000" data-item-id="tx_enablera_18kpke0og9atq" data-item-class="Label Stroke Indexed ColorStrokeBlack" data-item-index="6" data-renderer-id="0" transform="translate(483, 398)"><g id="tx_enablera_18kpke0og9atq-fill" stroke="none" fill="#484848"><g><text style="font: 20px &quot;Shantell Sans&quot;, cursive; white-space: pre;" font-weight="20px" font-size="&quot;Shantell" font-family="Sans', cursive"><tspan x="15.17" y="35.6" dominant-baseline="ideographic">Enable Rapid </tspan><tspan x="33.68" y="59.6" dominant-baseline="ideographic">Response</tspan></text></g></g></g><g id="g-root-char_qqb054ogeux0-fill" data-item-order="1000000000" data-item-id="char_qqb054ogeux0" data-item-class="Icon Stroke Indexed InsideFill InsideColorFill" data-item-index="5" data-renderer-id="0" transform="translate(435, 206)"></g><g id="g-root-stac_18mkwhkoghpfq-fill" data-item-order="1000000000" data-item-id="stac_18mkwhkoghpfq" data-item-class="Icon Stroke Indexed InsideFill InsideColorFill" data-item-index="3" data-renderer-id="0" transform="translate(243, 206)"></g><g id="g-root-moni_1lw62rcog998t-fill" data-item-order="1000000000" data-item-id="moni_1lw62rcog998t" data-item-class="Icon Stroke Indexed Indexed_1 InsideFill InsideColorFill" data-item-index="1" data-renderer-id="0" transform="translate(51, 206)"></g><g id="g-root-tx_generate_qu20zcog9a13-fill" data-item-order="1000000000" data-item-id="tx_generate_qu20zcog9a13" data-item-class="Label Stroke Indexed ColorStrokeBlack" data-item-index="5" data-renderer-id="0" transform="translate(405, 134)"><g id="tx_generate_qu20zcog9a13-fill" stroke="none" fill="#484848"><g><text style="font: 20px &quot;Shantell Sans&quot;, cursive; white-space: pre;" font-weight="20px" font-size="&quot;Shantell" font-family="Sans', cursive"><tspan x="16.02" y="35.6" dominant-baseline="ideographic">Generate </tspan><tspan x="20.34" y="59.6" dominant-baseline="ideographic">Insights</tspan></text></g></g></g><g id="g-root-tx_identify_4pgepkog9897-fill" data-item-order="1000000000" data-item-id="tx_identify_4pgepkog9897" data-item-class="Label Stroke Indexed Indexed_1 ColorStrokeBlack" data-item-index="1" data-renderer-id="0" transform="translate(3, 134)"><g id="tx_identify_4pgepkog9897-fill" stroke="none" fill="#484848"><g><text style="font: 20px &quot;Shantell Sans&quot;, cursive; white-space: pre;" font-weight="20px" font-size="&quot;Shantell" font-family="Sans', cursive"><tspan x="14.33" y="35.6" dominant-baseline="ideographic">Identify Data </tspan><tspan x="42.98" y="59.6" dominant-baseline="ideographic">Sources</tspan></text></g></g></g><g id="g-root-tx_integrat_1ly1i0oog9895-fill" data-item-order="1000000000" data-item-id="tx_integrat_1ly1i0oog9895" data-item-class="Label Stroke Indexed ColorStrokeBlack" data-item-index="3" data-renderer-id="0" transform="translate(195, 110)"><g id="tx_integrat_1ly1i0oog9895-fill" stroke="none" fill="#484848"><g><text style="font: 20px &quot;Shantell Sans&quot;, cursive; white-space: pre;" font-weight="20px" font-size="&quot;Shantell" font-family="Sans', cursive"><tspan x="31.82" y="35.6" dominant-baseline="ideographic">Integrate </tspan><tspan x="16.06" y="59.6" dominant-baseline="ideographic">Unstructured </tspan><tspan x="55.77" y="83.6" dominant-baseline="ideographic">Data</tspan></text></g></g></g><g id="g-root-data_hxsghkogq490-fill" data-item-order="1000000000" data-item-id="data_hxsghkogq490" data-item-class="Icon Stroke Indexed InsideFill InsideColorFill" data-item-index="2" data-renderer-id="0" transform="translate(147, 326)"></g><g id="g-root-line_me8cjcogophq-fill" data-item-order="1000000000" data-item-id="line_me8cjcogophq" data-item-class="Icon Stroke Indexed InsideFill InsideColorFill" data-item-index="4" data-renderer-id="0" transform="translate(339, 326)"></g><g id="g-root-runn_zlbg54ognaiz-fill" data-item-order="1000000000" data-item-id="runn_zlbg54ognaiz" data-item-class="Icon Stroke Indexed InsideFill InsideColorFill" data-item-index="6" data-renderer-id="0" transform="translate(531, 326)"></g><g id="g-root-tx_streamse_146rhiwog9ama-fill" data-item-order="1000000000" data-item-id="tx_streamse_146rhiwog9ama" data-item-class="Label Stroke Indexed ColorStrokeBlack" data-item-index="2" data-renderer-id="0" transform="translate(105, 398)"><g id="tx_streamse_146rhiwog9ama-fill" stroke="none" fill="#484848"><g><text style="font: 20px &quot;Shantell Sans&quot;, cursive; white-space: pre;" font-weight="20px" font-size="&quot;Shantell" font-family="Sans', cursive"><tspan x="41.7" y="35.6" dominant-baseline="ideographic">Stream </tspan><tspan x="17.26" y="59.6" dominant-baseline="ideographic">Sensor Data</tspan></text></g></g></g><g id="g-root-tx_processd_93ehkoog998g-fill" data-item-order="1000000000" data-item-id="tx_processd_93ehkoog998g" data-item-class="Label Stroke Indexed ColorStrokeBlack" data-item-index="4" data-renderer-id="0" transform="translate(297, 398)"><g id="tx_processd_93ehkoog998g-fill" stroke="none" fill="#484848"><g><text style="font: 20px &quot;Shantell Sans&quot;, cursive; white-space: pre;" font-weight="20px" font-size="&quot;Shantell" font-family="Sans', cursive"><tspan x="13.81" y="35.6" dominant-baseline="ideographic">Process Data</tspan></text></g></g></g><g id="g-root-tx_realtime_1lzag6wog9af8-fill" data-item-order="1000000000" data-item-id="tx_realtime_1lzag6wog9af8" data-item-class="Label Stroke Title ColorStrokeBlack" data-item-index="none" data-renderer-id="0" transform="translate(147, 2)"><g id="tx_realtime_1lzag6wog9af8-fill" stroke="none" fill="#484848"><g><text style="font: 20px &quot;Shantell Sans&quot;, cursive; white-space: pre;" font-weight="20px" font-size="&quot;Shantell" font-family="Sans', cursive"><tspan x="13.66" y="35.6" dominant-baseline="ideographic">Real-time Data Streaming Process</tspan></text></g></g></g><g id="g-root--1.line_sy_1lr5u9kogj30q-stroke" data-item-order="999880199" data-item-id="-1.line_sy_1lr5u9kogj30q" data-item-class="Curve Stroke Part ColorStrokeBlack" data-item-index="-1" data-renderer-id="0" transform="translate(558, 289.99609375)"><g id="-1.line_sy_1lr5u9kogj30q-stroke" fill="none" stroke-linecap="round" stroke-linejoin="round" stroke-miterlimit="4" stroke="#666666" stroke-width="2"><g><path d="M 77 10.003906L 10 10.003906"></path><path d="M 71 16.503906L 77.5 10.003906L 71 3.503906" stroke-dasharray="none"></path></g></g></g><g id="g-root--1.vector_sy_1hbcc54ogj3sz-stroke" data-item-order="999880201" data-item-id="-1.vector_sy_1hbcc54ogj3sz" data-item-class="Curve Stroke Part ColorStrokeBlack" data-item-index="-1" data-renderer-id="0" transform="translate(3, 289.99609375)"><g id="-1.vector_sy_1hbcc54ogj3sz-stroke" fill="none" stroke-linecap="round" stroke-linejoin="round" stroke-miterlimit="4" stroke="#666666" stroke-width="2"><g><path d="M 559 10L 469 10M 78.9976 10L 10 10M 174.9976 10L 84.9976 10M 271 10L 181 10M 367 10L 277 10M 463 10L 373 10"></path></g></g></g><g id="g-root-6.cr-big_cr_18fpbw8ogj4lo-stroke" data-item-order="999880204" data-item-id="6.cr-big_cr_18fpbw8ogj4lo" data-item-class="Shape Stroke Fill Part Indexed" data-item-index="6" data-renderer-id="0" transform="translate(519, 313.998046875)"><g id="6.cr-big_cr_18fpbw8ogj4lo-stroke" fill="none" stroke-linecap="round" stroke-linejoin="round" stroke-miterlimit="4" stroke="#ffffff" stroke-width="2"><g><path d="M 10 46C 10 65.882251 26.117749 82 46 82C 65.882251 82 82 65.882251 82 46C 82 26.117749 65.882251 10 46 10C 26.117749 10 10 26.117749 10 46"></path></g></g></g><g id="g-root-6.cu-smallCircle_sy_v4vam0ogj30t-stroke" data-item-order="999880207" data-item-id="6.cu-smallCircle_sy_v4vam0ogj30t" data-item-class="Part Indexed Stroke" data-item-index="6" data-renderer-id="0" transform="translate(552, 287.001953125)"><g id="6.cu-smallCircle_sy_v4vam0ogj30t-stroke" fill="none" stroke-linecap="round" stroke-linejoin="round" stroke-miterlimit="4" stroke="#F99539" stroke-width="2"><g><path d="M 10 13C 10 11.343109 11.343079 10 13 10C 14.656921 10 16 11.343109 16 13C 16 14.656891 14.656921 16 13 16C 11.343079 16 10 14.656891 10 13Z"></path></g></g></g><g id="g-root-6.ln_ln_qp1shkogj3t2-stroke" data-item-order="999880209" data-item-id="6.ln_ln_qp1shkogj3t2" data-item-class="Curve Stroke Part Indexed" data-item-index="6" data-renderer-id="0" transform="translate(555, 293.00201416015625)"><g id="6.ln_ln_qp1shkogj3t2-stroke" fill="none" stroke-linecap="round" stroke-linejoin="round" stroke-miterlimit="4" stroke="#F99539" stroke-width="2"><g><path d="M 10 31L 10 20.5L 10 10"></path></g></g></g><g id="g-root-5.cr-big_cr_htes8oogj4lr-stroke" data-item-order="999880212" data-item-id="5.cr-big_cr_htes8oogj4lr" data-item-class="Shape Stroke Fill Part Indexed" data-item-index="5" data-renderer-id="0" transform="translate(423, 194)"><g id="5.cr-big_cr_htes8oogj4lr-stroke" fill="none" stroke-linecap="round" stroke-linejoin="round" stroke-miterlimit="4" stroke="#ffffff" stroke-width="2"><g><path d="M 10 46C 10 65.882251 26.117749 82 46 82C 65.882251 82 82 65.882251 82 46C 82 26.117749 65.882251 10 46 10C 26.117749 10 10 26.117749 10 46"></path></g></g></g><g id="g-root-5.cu-smallCircle_sy_8ye92wogj30g-stroke" data-item-order="999880215" data-item-id="5.cu-smallCircle_sy_8ye92wogj30g" data-item-class="Part Indexed Stroke" data-item-index="5" data-renderer-id="0" transform="translate(456, 286.99609375)"><g id="5.cu-smallCircle_sy_8ye92wogj30g-stroke" fill="none" stroke-linecap="round" stroke-linejoin="round" stroke-miterlimit="4" stroke="#FFE60A" stroke-width="2"><g><path d="M 16 13C 16 14.6569 14.6569 16 13 16C 11.3431 16 10 14.6569 10 13C 10 11.3431 11.3431 10 13 10C 14.6569 10 16 11.3431 16 13Z"></path></g></g></g><g id="g-root-5.ln_ln_2r8u0ogj3t5-stroke" data-item-order="999880217" data-item-id="5.ln_ln_2r8u0ogj3t5" data-item-class="Curve Stroke Part Indexed" data-item-index="5" data-renderer-id="0" transform="translate(459, 266)"><g id="5.ln_ln_2r8u0ogj3t5-stroke" fill="none" stroke-linecap="round" stroke-linejoin="round" stroke-miterlimit="4" stroke="#FFE60A" stroke-width="2"><g><path d="M 10 10L 10 20.5L 10 31"></path></g></g></g><g id="g-root-4.cr-big_cr_1uo1sooogj4ea-stroke" data-item-order="999880220" data-item-id="4.cr-big_cr_1uo1sooogj4ea" data-item-class="Shape Stroke Fill Part Indexed" data-item-index="4" data-renderer-id="0" transform="translate(327, 313.998046875)"><g id="4.cr-big_cr_1uo1sooogj4ea-stroke" fill="none" stroke-linecap="round" stroke-linejoin="round" stroke-miterlimit="4" stroke="#ffffff" stroke-width="2"><g><path d="M 10 46C 10 65.882251 26.117749 82 46 82C 65.882251 82 82 65.882251 82 46C 82 26.117749 65.882251 10 46 10C 26.117749 10 10 26.117749 10 46"></path></g></g></g><g id="g-root-4.cu-smallCircle_sy_1lt19iwogj217-stroke" data-item-order="999880223" data-item-id="4.cu-smallCircle_sy_1lt19iwogj217" data-item-class="Part Indexed Stroke" data-item-index="4" data-renderer-id="0" transform="translate(360, 287.001953125)"><g id="4.cu-smallCircle_sy_1lt19iwogj217-stroke" fill="none" stroke-linecap="round" stroke-linejoin="round" stroke-miterlimit="4" stroke="#A8DD38" stroke-width="2"><g><path d="M 10 13C 10 11.343109 11.343079 10 13 10C 14.656921 10 16 11.343109 16 13C 16 14.656891 14.656921 16 13 16C 11.343079 16 10 14.656891 10 13Z"></path></g></g></g><g id="g-root-4.ln_ln_18hkr5kogj3m4-stroke" data-item-order="999880225" data-item-id="4.ln_ln_18hkr5kogj3m4" data-item-class="Curve Stroke Part Indexed" data-item-index="4" data-renderer-id="0" transform="translate(363, 293.00201416015625)"><g id="4.ln_ln_18hkr5kogj3m4-stroke" fill="none" stroke-linecap="round" stroke-linejoin="round" stroke-miterlimit="4" stroke="#A8DD38" stroke-width="2"><g><path d="M 10 31L 10 20.5L 10 10"></path></g></g></g><g id="g-root-3.cr-big_cr_141r914ogj4ed-stroke" data-item-order="999880228" data-item-id="3.cr-big_cr_141r914ogj4ed" data-item-class="Shape Stroke Fill Part Indexed" data-item-index="3" data-renderer-id="0" transform="translate(231, 194)"><g id="3.cr-big_cr_141r914ogj4ed-stroke" fill="none" stroke-linecap="round" stroke-linejoin="round" stroke-miterlimit="4" stroke="#ffffff" stroke-width="2"><g><path d="M 10 46C 10 65.882251 26.117749 82 46 82C 65.882251 82 82 65.882251 82 46C 82 26.117749 65.882251 10 46 10C 26.117749 10 10 26.117749 10 46"></path></g></g></g><g id="g-root-3.cu-smallCircle_sy_qqx7qwogj2ti-stroke" data-item-order="999880231" data-item-id="3.cu-smallCircle_sy_qqx7qwogj2ti" data-item-class="Part Indexed Stroke" data-item-index="3" data-renderer-id="0" transform="translate(264, 286.99609375)"><g id="3.cu-smallCircle_sy_qqx7qwogj2ti-stroke" fill="none" stroke-linecap="round" stroke-linejoin="round" stroke-miterlimit="4" stroke="#44E095" stroke-width="2"><g><path d="M 16 13C 16 14.6569 14.6569 16 13 16C 11.3431 16 10 14.6569 10 13C 10 11.3431 11.3431 10 13 10C 14.6569 10 16 11.3431 16 13Z"></path></g></g></g><g id="g-root-3.ln_ln_hva7i0ogj3m7-stroke" data-item-order="999880233" data-item-id="3.ln_ln_hva7i0ogj3m7" data-item-class="Curve Stroke Part Indexed" data-item-index="3" data-renderer-id="0" transform="translate(267, 266)"><g id="3.ln_ln_hva7i0ogj3m7-stroke" fill="none" stroke-linecap="round" stroke-linejoin="round" stroke-miterlimit="4" stroke="#44E095" stroke-width="2"><g><path d="M 10 10L 10 20.5L 10 31"></path></g></g></g><g id="g-root-2.cr-big_cr_dfgpdkogj4eg-stroke" data-item-order="999880236" data-item-id="2.cr-big_cr_dfgpdkogj4eg" data-item-class="Shape Stroke Fill Part Indexed" data-item-index="2" data-renderer-id="0" transform="translate(135, 314)"><g id="2.cr-big_cr_dfgpdkogj4eg-stroke" fill="none" stroke-linecap="round" stroke-linejoin="round" stroke-miterlimit="4" stroke="#ffffff" stroke-width="2"><g><path d="M 10 46C 10 65.882251 26.117749 82 46 82C 65.882251 82 82 65.882251 82 46C 82 26.117749 65.882251 10 46 10C 26.117749 10 10 26.117749 10 46"></path></g></g></g><g id="g-root-2.cu-smallCircle_sy_1upx7y0ogj3ep-stroke" data-item-order="999880239" data-item-id="2.cu-smallCircle_sy_1upx7y0ogj3ep" data-item-class="Part Indexed Stroke" data-item-index="2" data-renderer-id="0" transform="translate(168, 287.001953125)"><g id="2.cu-smallCircle_sy_1upx7y0ogj3ep-stroke" fill="none" stroke-linecap="round" stroke-linejoin="round" stroke-miterlimit="4" stroke="#1AC6FF" stroke-width="2"><g><path d="M 10 13C 10 11.343109 11.343109 10 13 10C 14.656891 10 16 11.343109 16 13C 16 14.656891 14.656891 16 13 16C 11.343109 16 10 14.656891 10 13Z"></path></g></g></g><g id="g-root-2.ln_ln_1lua7p4ogj47e-stroke" data-item-order="999880241" data-item-id="2.ln_ln_1lua7p4ogj47e" data-item-class="Curve Stroke Part Indexed" data-item-index="2" data-renderer-id="0" transform="translate(171, 293.00201416015625)"><g id="2.ln_ln_1lua7p4ogj47e-stroke" fill="none" stroke-linecap="round" stroke-linejoin="round" stroke-miterlimit="4" stroke="#1AC6FF" stroke-width="2"><g><path d="M 10 31L 10 20.5L 10 10"></path></g></g></g><g id="g-root-1.cr-big_cr_18jg6ewogj2mj-stroke" data-item-order="999880244" data-item-id="1.cr-big_cr_18jg6ewogj2mj" data-item-class="Shape Stroke Fill Part Indexed Indexed_1" data-item-index="1" data-renderer-id="0" transform="translate(39, 194)"><g id="1.cr-big_cr_18jg6ewogj2mj-stroke" fill="none" stroke-linecap="round" stroke-linejoin="round" stroke-miterlimit="4" stroke="#ffffff" stroke-width="2"><g><path d="M 10 46C 10 65.882251 26.117749 82 46 82C 65.882251 82 82 65.882251 82 46C 82 26.117749 65.882251 10 46 10C 26.117749 10 10 26.117749 10 46"></path></g></g></g><g id="g-root-1.cu-smallCircle_sy_v7zo1kogj47g-stroke" data-item-order="999880247" data-item-id="1.cu-smallCircle_sy_v7zo1kogj47g" data-item-class="Part Indexed Indexed_1 Stroke" data-item-index="1" data-renderer-id="0" transform="translate(72, 286.99609375)"><g id="1.cu-smallCircle_sy_v7zo1kogj47g-stroke" fill="none" stroke-linecap="round" stroke-linejoin="round" stroke-miterlimit="4" stroke="#4F92FF" stroke-width="2"><g><path d="M 16 13C 16 14.6569 14.6569 16 13 16C 11.3431 16 10 14.6569 10 13C 10 11.3431 11.3431 10 13 10C 14.6569 10 16 11.3431 16 13Z"></path></g></g></g><g id="g-root-1.ln_ln_qssn08ogj1tx-stroke" data-item-order="999880249" data-item-id="1.ln_ln_qssn08ogj1tx" data-item-class="Curve Stroke Part Indexed Indexed_1" data-item-index="1" data-renderer-id="0" transform="translate(75, 266)"><g id="1.ln_ln_qssn08ogj1tx-stroke" fill="none" stroke-linecap="round" stroke-linejoin="round" stroke-miterlimit="4" stroke="#4F92FF" stroke-width="2"><g><path d="M 10 10L 10 20.5L 10 31"></path></g></g></g><g id="g-root-tx_enablera_18kpke0og9atq-stroke" data-item-order="1000000000" data-item-id="tx_enablera_18kpke0og9atq" data-item-class="Label Stroke Indexed ColorStrokeBlack" data-item-index="6" data-renderer-id="0" transform="translate(483, 398)"></g><g id="g-root-char_qqb054ogeux0-stroke" data-item-order="1000000000" data-item-id="char_qqb054ogeux0" data-item-class="Icon Stroke Indexed InsideFill InsideColorFill" data-item-index="5" data-renderer-id="0" transform="translate(435, 206)"><g id="char_qqb054ogeux0-stroke" fill="none" stroke-linecap="round" stroke-linejoin="round" stroke-miterlimit="4" stroke="#e3cd09" stroke-width="2"><g><path d="M 52.857143 56.285713L 15.142858 56.285713C 15.142858 56.285713 11.714286 56.285713 11.714286 52.857143L 11.714286 15.142858C 11.714286 15.142858 11.714286 11.714286 15.142858 11.714286L 52.857143 11.714286C 52.857143 11.714286 56.285713 11.714286 56.285713 15.142858L 56.285713 52.857143C 56.285713 52.857143 56.285713 56.285713 52.857143 56.285713M 20.285715 20.285715L 27.142857 20.285715M 20.285715 28.857143L 35.714287 28.857143M 49.428574 28.857143L 39.142857 46L 27.142857 39.142857L 20.285715 49.428574"></path></g></g></g><g id="g-root-stac_18mkwhkoghpfq-stroke" data-item-order="1000000000" data-item-id="stac_18mkwhkoghpfq" data-item-class="Icon Stroke Indexed InsideFill InsideColorFill" data-item-index="3" data-renderer-id="0" transform="translate(243, 206)"><g id="stac_18mkwhkoghpfq-stroke" fill="none" stroke-linecap="round" stroke-linejoin="round" stroke-miterlimit="4" stroke="#3bc482" stroke-width="2"><g><path d="M 13.09 26.681999L 42.363998 26.681999C 42.363998 26.681999 44.453999 26.681999 44.453999 28.771999L 44.453999 51.773998C 44.453999 51.773998 44.453999 53.863998 42.363998 53.863998L 13.09 53.863998C 13.09 53.863998 11 53.863998 11 51.773998L 11 28.771999C 11 28.771999 11 26.681999 13.09 26.681999M 11 33.02L 44.453999 33.02M 11 46.751999L 44.453999 46.751999M 11 40.066002L 44.453999 40.066002M 26.681999 33.02L 26.681999 53.863998M 35.568001 33.02L 35.568001 53.863998M 19.364 20.4L 48.636002 20.4C 49.192223 20.399996 49.725544 20.6215 50.118103 21.015558C 50.510658 21.409616 50.730125 21.943783 50.728001 22.5L 50.728001 49.681999M 25.636 14.136L 54.91 14.136C 56.065056 14.136 57.001102 15.072944 56.999996 16.228001L 57 43.400002"></path></g></g></g><g id="g-root-moni_1lw62rcog998t-stroke" data-item-order="1000000000" data-item-id="moni_1lw62rcog998t" data-item-class="Icon Stroke Indexed Indexed_1 InsideFill InsideColorFill" data-item-index="1" data-renderer-id="0" transform="translate(51, 206)"><g id="moni_1lw62rcog998t-stroke" fill="none" stroke-linecap="round" stroke-linejoin="round" stroke-miterlimit="4" stroke="#4682e3" stroke-width="2"><g><path d="M 34.010002 47.799999C 34.184418 51.086899 35.243752 54.265594 37.076 57L 24.810001 57C 26.64225 54.265594 27.701586 51.086899 27.876001 47.800003M 20.209999 57L 41.676003 57M 50.875999 38.599998L 50.875999 44.723999C 50.878658 45.538887 50.556808 46.321308 49.981533 46.898457C 49.406258 47.475609 48.624889 47.800007 47.810001 47.799999L 14.076 47.799999C 12.383152 47.798897 11.011104 46.426846 11.01 44.734001L 11.01 20.200001C 11.01 18.506695 12.382695 17.134001 14.076 17.134001L 24.33 17.133999M 32.456001 11L 54.945999 11C 54.945999 11 56.989998 11 56.989998 13.044L 56.989998 31.444C 56.989998 31.444 56.989998 33.487999 54.945999 33.487999L 32.456001 33.487999C 32.456001 33.487999 30.412001 33.487999 30.412001 31.444L 30.412001 13.044C 30.412001 13.044 30.412001 11 32.456001 11M 30.412001 16.618L 56.990002 16.618M 30.412001 27.690001L 56.990002 27.690001M 30.412001 22.42L 56.990002 22.42M 43.700001 16.619999L 43.700001 33.489998M 50.099998 16.619999L 50.099998 33.489998"></path></g></g></g><g id="g-root-tx_generate_qu20zcog9a13-stroke" data-item-order="1000000000" data-item-id="tx_generate_qu20zcog9a13" data-item-class="Label Stroke Indexed ColorStrokeBlack" data-item-index="5" data-renderer-id="0" transform="translate(405, 134)"></g><g id="g-root-tx_identify_4pgepkog9897-stroke" data-item-order="1000000000" data-item-id="tx_identify_4pgepkog9897" data-item-class="Label Stroke Indexed Indexed_1 ColorStrokeBlack" data-item-index="1" data-renderer-id="0" transform="translate(3, 134)"></g><g id="g-root-tx_integrat_1ly1i0oog9895-stroke" data-item-order="1000000000" data-item-id="tx_integrat_1ly1i0oog9895" data-item-class="Label Stroke Indexed ColorStrokeBlack" data-item-index="3" data-renderer-id="0" transform="translate(195, 110)"></g><g id="g-root-data_hxsghkogq490-stroke" data-item-order="1000000000" data-item-id="data_hxsghkogq490" data-item-class="Icon Stroke Indexed InsideFill InsideColorFill" data-item-index="2" data-renderer-id="0" transform="translate(147, 326)"><g id="data_hxsghkogq490-stroke" fill="none" stroke-linecap="round" stroke-linejoin="round" stroke-miterlimit="4" stroke="#17b0e3" stroke-width="2"><g><path d="M 21 17L 47 17C 47 17 51 17 51 21L 51 47C 51 47 51 51 47 51L 21 51C 21 51 17 51 17 47L 17 21C 17 21 17 17 21 17M 43 17L 25 17L 27 11L 41 11L 43 17ZM 25 51L 43 51L 41 57L 27 57L 25 51ZM 40 41L 40 27M 44 37L 40 41L 36 37M 28 27L 28 41M 32 31L 28 27L 24 31"></path></g></g></g><g id="g-root-line_me8cjcogophq-stroke" data-item-order="1000000000" data-item-id="line_me8cjcogophq" data-item-class="Icon Stroke Indexed InsideFill InsideColorFill" data-item-index="4" data-renderer-id="0" transform="translate(339, 326)"><g id="line_me8cjcogophq-stroke" fill="none" stroke-linecap="round" stroke-linejoin="round" stroke-miterlimit="4" stroke="#93c131" stroke-width="2"><g><path d="M 13.007999 17L 55.007999 17C 55.007999 17 57.007999 17 57.007999 19L 57.007999 49C 57.007999 49 57.007999 51 55.007999 51L 13.007999 51C 13.007999 51 11.008 51 11.008 49L 11.008 19C 11.008 19 11.008 17 13.007999 17M 19 41L 24.142 32.43C 24.322607 32.128315 24.648384 31.943649 25 31.943649C 25.351616 31.943649 25.677393 32.128315 25.858 32.43L 30.284 39.799999C 30.450567 40.077888 30.741442 40.257866 31.064463 40.282898C 31.387482 40.307926 31.70261 40.174911 31.91 39.926003L 35.239998 35.926003C 35.429993 35.698166 35.711342 35.566452 36.007999 35.566452C 36.304657 35.566452 36.586006 35.698166 36.776001 35.926003L 40.085999 39.898003C 40.295769 40.149513 40.615395 40.282368 40.941643 40.253654C 41.267887 40.224937 41.559395 40.038288 41.722 39.753998L 49 27"></path></g></g></g><g id="g-root-runn_zlbg54ognaiz-stroke" data-item-order="1000000000" data-item-id="runn_zlbg54ognaiz" data-item-class="Icon Stroke Indexed InsideFill InsideColorFill" data-item-index="6" data-renderer-id="0" transform="translate(531, 326)"><g id="runn_zlbg54ognaiz-stroke" fill="none" stroke-linecap="round" stroke-linejoin="round" stroke-miterlimit="4" stroke="#dd8433" stroke-width="2"><g><path d="M 28 53L 23 53M 51 36.5C 51.276142 36.5 51.5 36.723858 51.5 37M 50.5 37C 50.5 36.723858 50.723858 36.5 51 36.5M 51 37.5C 50.723858 37.5 50.5 37.276142 50.5 37M 51.5 37C 51.5 37.276142 51.276142 37.5 51 37.5M 22.998001 49L 25 49M 23 53C 21.895432 53 21 52.104568 21 51C 21 49.895432 21.895432 49 23 49M 25 31C 29 31 32.688 34 35 41C 36 44 39 53 39 53L 47 53C 48.104568 53 49 53.895432 49 55C 49 56.104568 48.104568 57 47 57L 35 57C 35 57 31.954 52.029999 30.084 49C 27 44 21.25 41.082001 17.25 38.332001C 13.25 35.582001 10.546 29.452 14 25C 18.498001 19.200001 27.166 21.5 29.934 24.700001L 37.632 32.400002C 38.385223 33.179871 39.500633 33.492634 40.549522 33.218086C 41.598408 32.943542 42.417542 32.124405 42.692089 31.075521C 42.966637 30.026634 42.65387 28.911224 41.874001 28.158001L 29.874001 16.124001C 28.702053 14.9515 28.702499 13.050948 29.875 11.879C 31.047501 10.707052 32.948051 10.7075 34.120003 11.88L 54.624001 32.384003L 54.624001 32.384003C 56.246632 33.784367 57.124908 35.860287 56.999996 38C 57 41 55 43 51 43L 46 43L 40.987999 46.512001M 13.375999 25.936001C 11.895309 25.621548 10.880834 24.253269 11.010182 22.745092C 11.139531 21.236916 12.372178 20.061363 13.884789 20.003628C 15.397401 19.945896 16.716068 21.024071 16.959999 22.518002"></path></g></g></g><g id="g-root-tx_streamse_146rhiwog9ama-stroke" data-item-order="1000000000" data-item-id="tx_streamse_146rhiwog9ama" data-item-class="Label Stroke Indexed ColorStrokeBlack" data-item-index="2" data-renderer-id="0" transform="translate(105, 398)"></g><g id="g-root-tx_processd_93ehkoog998g-stroke" data-item-order="1000000000" data-item-id="tx_processd_93ehkoog998g" data-item-class="Label Stroke Indexed ColorStrokeBlack" data-item-index="4" data-renderer-id="0" transform="translate(297, 398)"></g><g id="g-root-tx_realtime_1lzag6wog9af8-stroke" data-item-order="1000000000" data-item-id="tx_realtime_1lzag6wog9af8" data-item-class="Label Stroke Title ColorStrokeBlack" data-item-index="none" data-renderer-id="0" transform="translate(147, 2)"></g></g></g></svg>