<?xml version="1.0" encoding="utf-8" standalone="yes"?>
<!DOCTYPE svg PUBLIC "-//W3C//DTD SVG 1.1//EN" "http://www.w3.org/Graphics/SVG/1.1/DTD/svg11.dtd">
<svg width="732" height="600" viewBox="0 0 732 600" style="fill:none;stroke:none;fill-rule:evenodd;clip-rule:evenodd;stroke-linecap:round;stroke-linejoin:round;stroke-miterlimit:1.5;" version="1.1" xmlns="http://www.w3.org/2000/svg" xmlns:xlink="http://www.w3.org/1999/xlink"><style id="fontImports">@import url("https://fonts.googleapis.com/css2?family=Roboto:wght@400;700&amp;display=block");</style><rect id="" x="0" y="0" width="732" height="600" style="fill: #ffffff;"></rect><g id="items" style="isolation: isolate"><g id="blend" style="mix-blend-mode:normal"><g id="g-root-3.cu_sy_1lpwpqeuklfrc-fill" data-item-order="999898181" data-item-id="3.cu_sy_1lpwpqeuklfrc" data-item-class="Part Indexed Fill Stroke" data-item-index="3" data-renderer-id="0" transform="translate(191, 74)"><g id="3.cu_sy_1lpwpqeuklfrc-fill" stroke="none" fill="#93c131"><g><path d="M 19.026398 43.655777C 0.444794 75.840561 11.471893 116.994477 43.656189 135.576065L 91.9505 163.458771L 91.9505 107.958969L 67.688416 93.951172C 58.492798 88.642166 55.342194 76.883866 60.651306 67.68837C 65.960297 58.492768 77.718506 55.341782 86.914093 60.651779L 111.195007 74.670075L 111.179993 74.696762L 197.636993 124.612976L 245.700989 96.863068L 135.906006 33.472779L 135.92099 33.445771L 110.945984 19.026764C 78.761902 0.444763 37.608002 11.471771 19.026398 43.655777Z"></path></g></g></g><g id="g-root-2.cu_sy_18f2og6ukle6h-fill" data-item-order="999898185" data-item-id="2.cu_sy_18f2og6ukle6h" data-item-class="Part Indexed Fill Stroke" data-item-index="2" data-renderer-id="0" transform="translate(282.32208251953125, 144.0899658203125)"><g id="2.cu_sy_18f2og6ukle6h-fill" stroke="none" fill="#3bc482"><g><path d="M 77.290008 232.910004C 114.453002 232.910004 144.580017 202.783203 144.580017 165.619995L 144.580017 109.855011L 96.515686 137.604523L 96.515686 165.619995C 96.515686 176.238098 87.907989 184.845703 77.290008 184.845703C 66.671905 184.845703 58.0643 176.238098 58.0643 165.619995L 58.0643 137.582489L 58.095092 137.582489L 58.095214 37.75L 10.030914 10L 10.030914 136.781494L 10 136.781494L 10 165.619995C 10 202.783295 40.1268 232.910004 77.290008 232.910004Z"></path></g></g></g><g id="g-root-1.cu_sy_qof51iuklddu-fill" data-item-order="999898189" data-item-id="1.cu_sy_qof51iuklddu" data-item-class="Part Indexed Indexed_1 Fill Stroke" data-item-index="1" data-renderer-id="0" transform="translate(339.9954833984375, 73.9998779296875)"><g id="1.cu_sy_qof51iuklddu-fill" stroke="none" fill="#17b0e3"><g><path d="M 169.415985 43.656159C 150.834015 11.472168 109.680389 0.44516 77.496094 19.026169L 29.201813 46.909165L 77.266083 74.659165L 101.52829 60.651169C 110.723999 55.342164 122.481995 58.493165 127.790985 67.688157C 133.100006 76.884156 129.949982 88.642151 120.753998 93.951172L 96.472809 107.970154L 96.457397 107.943161L 10 157.85936L 10 213.359162L 119.79599 149.968567L 119.811005 149.995362L 144.78598 135.576066C 176.970001 116.994462 187.998016 75.840165 169.415985 43.656159Z"></path></g></g></g><g id="g-root-tx_enhancin_hss4smukle6j-fill" data-item-order="1000000000" data-item-id="tx_enhancin_hss4smukle6j" data-item-class="Label Stroke Title ColorStrokeBlack" data-item-index="none" data-renderer-id="0" transform="translate(128, 2)"><g id="tx_enhancin_hss4smukle6j-fill" stroke="none" fill="#484848"><g><text style="font: 20px Roboto, sans-serif; white-space: pre;" font-weight="20px" font-size="Roboto," font-family="sans-serif"><tspan x="16.19" y="34" dominant-baseline="ideographic">Enhancing Supplier Management with Workmate</tspan></text></g></g></g><g id="g-root-tx_customiz_m9ul3auklfkf-fill" data-item-order="1000000000" data-item-id="tx_customiz_m9ul3auklfkf" data-item-class="Label Stroke Indexed" data-item-index="3" data-renderer-id="0" transform="translate(38, 74)"><g id="tx_customiz_m9ul3auklfkf-fill" stroke="none" fill="#93c131"><g><text style="font: bold 20px Roboto, sans-serif; white-space: pre;" font-weight="bold" font-size="20" font-family="Roboto, sans-serif"><tspan x="20.94" y="34" dominant-baseline="ideographic">Customized </tspan><tspan x="20.39" y="58" dominant-baseline="ideographic">Interactions</tspan></text></g></g></g><g id="g-root-tx_supplier_1q9h2diuklczt-fill" data-item-order="1000000000" data-item-id="tx_supplier_1q9h2diuklczt" data-item-class="Label Stroke Indexed Indexed_1" data-item-index="1" data-renderer-id="0" transform="translate(542, 98)"><g id="tx_supplier_1q9h2diuklczt-fill" stroke="none" fill="#17b0e3"><g><text style="font: bold 20px Roboto, sans-serif; white-space: pre;" font-weight="bold" font-size="20" font-family="Roboto, sans-serif"><tspan x="12" y="34" dominant-baseline="ideographic">Supplier 360</tspan></text></g></g></g><g id="g-root-tx_alignssu_24ldyuklddw-fill" data-item-order="1000000000" data-item-id="tx_alignssu_24ldyuklddw" data-item-class="Label Stroke Indexed ColorStrokeBlack" data-item-index="3" data-renderer-id="0" transform="translate(2, 122)"><g id="tx_alignssu_24ldyuklddw-fill" stroke="none" fill="#484848"><g><text style="font: 20px Roboto, sans-serif; white-space: pre;" font-weight="20px" font-size="Roboto," font-family="sans-serif"><tspan x="22.56" y="34" dominant-baseline="ideographic">Aligns suppliers </tspan><tspan x="43.75" y="58" dominant-baseline="ideographic">and purchase </tspan><tspan x="64.66" y="82" dominant-baseline="ideographic">orders with </tspan><tspan x="37.66" y="106" dominant-baseline="ideographic">organizational </tspan><tspan x="92.08" y="130" dominant-baseline="ideographic">strategy</tspan></text></g></g></g><g id="g-root-tx_provides_zlb3gmukldzi-fill" data-item-order="1000000000" data-item-id="tx_provides_zlb3gmukldzi" data-item-class="Label Stroke Indexed Indexed_1 ColorStrokeBlack" data-item-index="1" data-renderer-id="0" transform="translate(542, 122)"><g id="tx_provides_zlb3gmukldzi-fill" stroke="none" fill="#484848"><g><text style="font: 20px Roboto, sans-serif; white-space: pre;" font-weight="20px" font-size="Roboto," font-family="sans-serif"><tspan x="12" y="34" dominant-baseline="ideographic">Provides an </tspan><tspan x="12" y="58" dominant-baseline="ideographic">integrated view of </tspan><tspan x="12" y="82" dominant-baseline="ideographic">supplier relations </tspan><tspan x="12" y="106" dominant-baseline="ideographic">and risk </tspan><tspan x="12" y="130" dominant-baseline="ideographic">assessments</tspan></text></g></g></g><g id="g-root-tx_supplier_4j71omuklers-fill" data-item-order="1000000000" data-item-id="tx_supplier_4j71omuklers" data-item-class="Label Stroke Indexed" data-item-index="2" data-renderer-id="0" transform="translate(284, 398)"><g id="tx_supplier_4j71omuklers-fill" stroke="none" fill="#3bc482"><g><text style="font: bold 20px Roboto, sans-serif; white-space: pre;" font-weight="bold" font-size="20" font-family="Roboto, sans-serif"><tspan x="38.64" y="34" dominant-baseline="ideographic">Supplier </tspan><tspan x="16.76" y="58" dominant-baseline="ideographic">Management</tspan></text></g></g></g><g id="g-root-tx_leverage_1lrs4zquklerp-fill" data-item-order="1000000000" data-item-id="tx_leverage_1lrs4zquklerp" data-item-class="Label Stroke Indexed ColorStrokeBlack" data-item-index="2" data-renderer-id="0" transform="translate(278, 458)"><g id="tx_leverage_1lrs4zquklerp-fill" stroke="none" fill="#484848"><g><text style="font: 20px Roboto, sans-serif; white-space: pre;" font-weight="20px" font-size="Roboto," font-family="sans-serif"><tspan x="19.65" y="34" dominant-baseline="ideographic">Leverages AI-</tspan><tspan x="16.45" y="58" dominant-baseline="ideographic">generated risk </tspan><tspan x="34.65" y="82" dominant-baseline="ideographic">scores for </tspan><tspan x="38.47" y="106" dominant-baseline="ideographic">proactive </tspan><tspan x="23.65" y="130" dominant-baseline="ideographic">coordination</tspan></text></g></g></g><g id="g-root-3.cu_sy_1lpwpqeuklfrc-stroke" data-item-order="999898181" data-item-id="3.cu_sy_1lpwpqeuklfrc" data-item-class="Part Indexed Fill Stroke" data-item-index="3" data-renderer-id="0" transform="translate(191, 74)"><g id="3.cu_sy_1lpwpqeuklfrc-stroke" fill="none" stroke-linecap="round" stroke-linejoin="round" stroke-miterlimit="4" stroke="#ffffff" stroke-width="2"><g><path d="M 19.026398 43.656266C 0.444794 75.840561 11.471893 116.994477 43.656189 135.576065L 91.9505 163.458771L 91.9505 107.958969L 67.688416 93.951172C 58.492798 88.642166 55.342194 76.883866 60.651306 67.68837C 65.960297 58.492874 77.718506 55.34227 86.914093 60.651261L 111.19519 74.670075L 111.17981 74.696762L 197.637207 124.612976L 245.701416 96.863068L 135.905701 33.472473L 135.921082 33.445664L 110.946198 19.026367C 78.761902 0.444763 37.608002 11.47197 19.026398 43.656266Z"></path></g></g></g><g id="g-root-2.cu_sy_18f2og6ukle6h-stroke" data-item-order="999898185" data-item-id="2.cu_sy_18f2og6ukle6h" data-item-class="Part Indexed Fill Stroke" data-item-index="2" data-renderer-id="0" transform="translate(282.32208251953125, 144.0899658203125)"><g id="2.cu_sy_18f2og6ukle6h-stroke" fill="none" stroke-linecap="round" stroke-linejoin="round" stroke-miterlimit="4" stroke="#ffffff" stroke-width="2"><g><path d="M 77.290008 232.910004C 114.453186 232.910004 144.579895 202.783203 144.579895 165.619995L 144.579895 109.854615L 96.515686 137.604523L 96.515686 165.619995C 96.515686 176.238098 87.907989 184.845703 77.290008 184.845703C 66.671905 184.845703 58.0643 176.238098 58.0643 165.619995L 58.0643 137.582489L 58.095214 137.582489L 58.095214 37.750199L 10.030914 10.000305L 10.030914 136.781494L 10 136.781494L 10 165.619995C 10 202.783295 40.1268 232.910004 77.290008 232.910004Z"></path></g></g></g><g id="g-root-1.cu_sy_qof51iuklddu-stroke" data-item-order="999898189" data-item-id="1.cu_sy_qof51iuklddu" data-item-class="Part Indexed Indexed_1 Fill Stroke" data-item-index="1" data-renderer-id="0" transform="translate(339.9954833984375, 73.9998779296875)"><g id="1.cu_sy_qof51iuklddu-stroke" fill="none" stroke-linecap="round" stroke-linejoin="round" stroke-miterlimit="4" stroke="#ffffff" stroke-width="2"><g><path d="M 169.415985 43.656266C 150.83432 11.471955 109.680389 0.444764 77.496094 19.026368L 29.201813 46.909165L 77.266083 74.659058L 101.52829 60.651261C 110.723785 55.342255 122.482086 58.492859 127.791107 67.688355C 133.100098 76.883866 129.949493 88.642151 120.753998 93.951172L 96.472809 107.969971L 96.457397 107.943161L 10 157.85936L 10 213.359162L 119.795807 149.968567L 119.811188 149.995362L 144.786102 135.576066C 176.970428 116.994462 187.997589 75.840561 169.415985 43.656266Z"></path></g></g></g><g id="g-root-tx_enhancin_hss4smukle6j-stroke" data-item-order="1000000000" data-item-id="tx_enhancin_hss4smukle6j" data-item-class="Label Stroke Title ColorStrokeBlack" data-item-index="none" data-renderer-id="0" transform="translate(128, 2)"></g><g id="g-root-tx_customiz_m9ul3auklfkf-stroke" data-item-order="1000000000" data-item-id="tx_customiz_m9ul3auklfkf" data-item-class="Label Stroke Indexed" data-item-index="3" data-renderer-id="0" transform="translate(38, 74)"></g><g id="g-root-tx_supplier_1q9h2diuklczt-stroke" data-item-order="1000000000" data-item-id="tx_supplier_1q9h2diuklczt" data-item-class="Label Stroke Indexed Indexed_1" data-item-index="1" data-renderer-id="0" transform="translate(542, 98)"></g><g id="g-root-tx_alignssu_24ldyuklddw-stroke" data-item-order="1000000000" data-item-id="tx_alignssu_24ldyuklddw" data-item-class="Label Stroke Indexed ColorStrokeBlack" data-item-index="3" data-renderer-id="0" transform="translate(2, 122)"></g><g id="g-root-tx_provides_zlb3gmukldzi-stroke" data-item-order="1000000000" data-item-id="tx_provides_zlb3gmukldzi" data-item-class="Label Stroke Indexed Indexed_1 ColorStrokeBlack" data-item-index="1" data-renderer-id="0" transform="translate(542, 122)"></g><g id="g-root-tx_supplier_4j71omuklers-stroke" data-item-order="1000000000" data-item-id="tx_supplier_4j71omuklers" data-item-class="Label Stroke Indexed" data-item-index="2" data-renderer-id="0" transform="translate(284, 398)"></g><g id="g-root-tx_leverage_1lrs4zquklerp-stroke" data-item-order="1000000000" data-item-id="tx_leverage_1lrs4zquklerp" data-item-class="Label Stroke Indexed ColorStrokeBlack" data-item-index="2" data-renderer-id="0" transform="translate(278, 458)"></g></g></g></svg>