<?xml version="1.0" encoding="utf-8" standalone="yes"?>
<!DOCTYPE svg PUBLIC "-//W3C//DTD SVG 1.1//EN" "http://www.w3.org/Graphics/SVG/1.1/DTD/svg11.dtd">
<svg width="733" height="397" viewBox="0 0 733 397" style="fill:none;stroke:none;fill-rule:evenodd;clip-rule:evenodd;stroke-linecap:round;stroke-linejoin:round;stroke-miterlimit:1.5;" version="1.1" xmlns="http://www.w3.org/2000/svg" xmlns:xlink="http://www.w3.org/1999/xlink"><style id="fontImports"></style><rect id="" x="0" y="0" width="732.615" height="396.5" style="fill: #ffffff;"></rect><g id="items" style="isolation: isolate"><g id="blend" style="mix-blend-mode:normal"><g id="g-root-3.cu_sy_4njxmdswi8st-fill" data-item-order="999865222" data-item-id="3.cu_sy_4njxmdswi8st" data-item-class="Part Indexed Fill Stroke" data-item-index="3" data-renderer-id="0" transform="translate(2.5, 86)"><g id="3.cu_sy_4njxmdswi8st-fill" stroke="none" fill="#7fb0ff"><g><path d="M 298 82C 178.706 82 82 178.706 82 298L 10 298C 10 138.942 138.942 10 298 10L 442 10L 478 46L 442 82L 298 82Z"></path></g></g></g><g id="g-root-2.cu_sy_1qdtyb9swi70u-fill" data-item-order="999865226" data-item-id="2.cu_sy_1qdtyb9swi70u" data-item-class="Part Indexed Fill Stroke" data-item-index="2" data-renderer-id="0" transform="translate(74.5, 158)"><g id="2.cu_sy_1qdtyb9swi70u-fill" stroke="none" fill="#628acb"><g><path d="M 226 82C 146.471 82 82 146.471 82 226L 10 226C 10 106.7065 106.7065 10 226 10L 370 10L 406 46L 370 82L 226 82Z"></path></g></g></g><g id="g-root-1.cu_sy_1ly0g6tswi7t3-fill" data-item-order="999865230" data-item-id="1.cu_sy_1ly0g6tswi7t3" data-item-class="Part Indexed Indexed_1 Fill Stroke" data-item-index="1" data-renderer-id="0" transform="translate(146.5, 230)"><g id="1.cu_sy_1ly0g6tswi7t3-fill" stroke="none" fill="#466598"><g><path d="M 154 82C 114.235 82 82 114.235 82 154L 10 154C 10 74.471 74.471 10 154 10L 298 10L 334 46L 298 82L 154 82Z"></path></g></g></g><g id="g-root-tx_enhancin_18n6ewlswi688-fill" data-item-order="1000000000" data-item-id="tx_enhancin_18n6ewlswi688" data-item-class="Label Stroke Title" data-item-index="none" data-renderer-id="0" transform="translate(152.5, 2)"><g id="tx_enhancin_18n6ewlswi688-fill" stroke="none" fill="#484848"><g><text style="font: bold 25px Arial, Helvetica, sans-serif; white-space: pre;" font-weight="bold" font-size="25" font-family="Arial, Helvetica, sans-serif"><tspan x="15.59" y="41.8" dominant-baseline="ideographic">Enhancing Business Operations</tspan></text></g></g></g><g id="g-root-tx_continuo_1qf2whhswi96z-fill" data-item-order="1000000000" data-item-id="tx_continuo_1qf2whhswi96z" data-item-class="Label Stroke Indexed InsideFill InsideColorFill" data-item-index="3" data-renderer-id="0" transform="translate(278.5, 86)"><g id="tx_continuo_1qf2whhswi96z-fill" stroke="none" fill="#ffffff"><g><text style="font: 20px Arial, Helvetica, sans-serif; white-space: pre;" font-weight="20px" font-size="Arial," font-family="Helvetica, sans-serif"><tspan x="12" y="33.2" dominant-baseline="ideographic">Continuous </tspan><tspan x="12" y="57.2" dominant-baseline="ideographic">Process </tspan><tspan x="12" y="81.2" dominant-baseline="ideographic">Improvement</tspan></text></g></g></g><g id="g-root-line_18k27slsw6xov-fill" data-item-order="1000000000" data-item-id="line_18k27slsw6xov" data-item-class="Icon Stroke Indexed InsideFill InsideColorFill" data-item-index="3" data-renderer-id="0" transform="translate(230.5, 104)"></g><g id="g-root-tx_analyzes_4hb6r9swjldy-fill" data-item-order="1000000000" data-item-id="tx_analyzes_4hb6r9swjldy" data-item-class="Label Stroke Indexed" data-item-index="3" data-renderer-id="0" transform="translate(482.61474609375, 104)"><g id="tx_analyzes_4hb6r9swjldy-fill" stroke="none" fill="#484848"><g><text style="font: 15px Arial, Helvetica, sans-serif; white-space: pre;" font-weight="15px" font-size="Arial," font-family="Helvetica, sans-serif"><tspan x="12" y="26.8" dominant-baseline="ideographic">Analyzes processes to optimize </tspan><tspan x="12" y="44.8" dominant-baseline="ideographic">performance</tspan></text></g></g></g><g id="g-root-robo_zlaqydswdypu-fill" data-item-order="1000000000" data-item-id="robo_zlaqydswdypu" data-item-class="Icon Stroke Indexed InsideFill InsideColorFill" data-item-index="2" data-renderer-id="0" transform="translate(230.5, 176)"></g><g id="g-root-tx_intellig_4pfcvpswi7t6-fill" data-item-order="1000000000" data-item-id="tx_intellig_4pfcvpswi7t6" data-item-class="Label Stroke Indexed InsideFill InsideColorFill" data-item-index="2" data-renderer-id="0" transform="translate(278.5, 170)"><g id="tx_intellig_4pfcvpswi7t6-fill" stroke="none" fill="#ffffff"><g><text style="font: 20px Arial, Helvetica, sans-serif; white-space: pre;" font-weight="20px" font-size="Arial," font-family="Helvetica, sans-serif"><tspan x="12" y="33.2" dominant-baseline="ideographic">Intelligent Task </tspan><tspan x="12" y="57.2" dominant-baseline="ideographic">Automation</tspan></text></g></g></g><g id="g-root-tx_automate_m7yq5xswjm6l-fill" data-item-order="1000000000" data-item-id="tx_automate_m7yq5xswjm6l" data-item-class="Label Stroke Indexed" data-item-index="2" data-renderer-id="0" transform="translate(482.5, 176)"><g id="tx_automate_m7yq5xswjm6l-fill" stroke="none" fill="#484848"><g><text style="font: 15px Arial, Helvetica, sans-serif; white-space: pre;" font-weight="15px" font-size="Arial," font-family="Helvetica, sans-serif"><tspan x="12" y="26.8" dominant-baseline="ideographic">Automates tasks to scale </tspan><tspan x="12" y="44.8" dominant-baseline="ideographic">operations and reduce errors</tspan></text></g></g></g><g id="g-root-line_18lxjw5sw8dfw-fill" data-item-order="1000000000" data-item-id="line_18lxjw5sw8dfw" data-item-class="Icon Stroke Indexed Indexed_1 InsideFill InsideColorFill" data-item-index="1" data-renderer-id="0" transform="translate(230.5, 248)"></g><g id="g-root-tx_efficien_qvweetswi8ld-fill" data-item-order="1000000000" data-item-id="tx_efficien_qvweetswi8ld" data-item-class="Label Stroke Indexed Indexed_1 InsideFill InsideColorFill" data-item-index="1" data-renderer-id="0" transform="translate(278.5, 242)"><g id="tx_efficien_qvweetswi8ld-fill" stroke="none" fill="#ffffff"><g><text style="font: 20px Arial, Helvetica, sans-serif; white-space: pre;" font-weight="20px" font-size="Arial," font-family="Helvetica, sans-serif"><tspan x="12" y="33.2" dominant-baseline="ideographic">Efficient Process </tspan><tspan x="12" y="57.2" dominant-baseline="ideographic">Mining</tspan></text></g></g></g><g id="g-root-tx_extracts_18efrp1swjmys-fill" data-item-order="1000000000" data-item-id="tx_extracts_18efrp1swjmys" data-item-class="Label Stroke Indexed Indexed_1" data-item-index="1" data-renderer-id="0" transform="translate(482.5, 248)"><g id="tx_extracts_18efrp1swjmys-fill" stroke="none" fill="#484848"><g><text style="font: 15px Arial, Helvetica, sans-serif; white-space: pre;" font-weight="15px" font-size="Arial," font-family="Helvetica, sans-serif"><tspan x="12" y="26.8" dominant-baseline="ideographic">Extracts insights from logs to </tspan><tspan x="12" y="44.8" dominant-baseline="ideographic">identify inefficiencies</tspan></text></g></g></g><g id="g-root-3.cu_sy_4njxmdswi8st-stroke" data-item-order="999865222" data-item-id="3.cu_sy_4njxmdswi8st" data-item-class="Part Indexed Fill Stroke" data-item-index="3" data-renderer-id="0" transform="translate(2.5, 86)"><g id="3.cu_sy_4njxmdswi8st-stroke" fill="none" stroke-linecap="butt" stroke-linejoin="miter" stroke-miterlimit="4" stroke="#7fb0ff" stroke-width="1"><g><path d="M 82 298C 82 178.7065 178.7065 82 298 82L 442 82L 478 46L 442 10L 298 10C 138.942 10 10 138.942 10 298L 82 298Z"></path></g></g></g><g id="g-root-2.cu_sy_1qdtyb9swi70u-stroke" data-item-order="999865226" data-item-id="2.cu_sy_1qdtyb9swi70u" data-item-class="Part Indexed Fill Stroke" data-item-index="2" data-renderer-id="0" transform="translate(74.5, 158)"><g id="2.cu_sy_1qdtyb9swi70u-stroke" fill="none" stroke-linecap="butt" stroke-linejoin="miter" stroke-miterlimit="4" stroke="#628acb" stroke-width="1"><g><path d="M 82 226C 82 146.471 146.471 82 226 82L 370 82L 406 46L 370 10L 226 10C 106.7065 10 10 106.7065 10 226L 82 226Z"></path></g></g></g><g id="g-root-1.cu_sy_1ly0g6tswi7t3-stroke" data-item-order="999865230" data-item-id="1.cu_sy_1ly0g6tswi7t3" data-item-class="Part Indexed Indexed_1 Fill Stroke" data-item-index="1" data-renderer-id="0" transform="translate(146.5, 230)"><g id="1.cu_sy_1ly0g6tswi7t3-stroke" fill="none" stroke-linecap="butt" stroke-linejoin="miter" stroke-miterlimit="4" stroke="#466598" stroke-width="1"><g><path d="M 82 154C 82 114.2355 114.2355 82 154 82L 298 82L 334 46L 298 10L 154 10C 74.471 10 10 74.471 10 154L 82 154Z"></path></g></g></g><g id="g-root-tx_enhancin_18n6ewlswi688-stroke" data-item-order="1000000000" data-item-id="tx_enhancin_18n6ewlswi688" data-item-class="Label Stroke Title" data-item-index="none" data-renderer-id="0" transform="translate(152.5, 2)"></g><g id="g-root-tx_continuo_1qf2whhswi96z-stroke" data-item-order="1000000000" data-item-id="tx_continuo_1qf2whhswi96z" data-item-class="Label Stroke Indexed InsideFill InsideColorFill" data-item-index="3" data-renderer-id="0" transform="translate(278.5, 86)"></g><g id="g-root-line_18k27slsw6xov-stroke" data-item-order="1000000000" data-item-id="line_18k27slsw6xov" data-item-class="Icon Stroke Indexed InsideFill InsideColorFill" data-item-index="3" data-renderer-id="0" transform="translate(230.5, 104)"><g id="line_18k27slsw6xov-stroke" fill="none" stroke-linecap="butt" stroke-linejoin="miter" stroke-miterlimit="4" stroke="#ffffff" stroke-width="1"><g><path d="M 17.393499 27.959499C 17.393501 33.758492 22.094511 38.459503 27.893501 38.459503C 33.69249 38.459503 38.393501 33.758492 38.393501 27.959501C 38.393501 22.160511 33.69249 17.459501 27.893501 17.459501C 22.094511 17.459501 17.393501 22.160511 17.393501 27.959501ZM 20.393499 30.959499L 21.478001 29.3335C 21.707581 28.989035 22.172836 28.895714 22.5175 29.125L 23.5825 29.834499C 23.903069 30.04619 24.331764 29.981434 24.5755 29.6845L 27.367001 26.331999C 27.502007 26.17005 27.698946 26.072407 27.909576 26.062988C 28.120211 26.05357 28.325077 26.133247 28.473999 26.282499L 30.313 28.1215C 30.462082 28.270071 30.666733 28.349163 30.876982 28.339462C 31.087231 28.329765 31.28373 28.232166 31.418501 28.070499L 34.643501 24.202M 44.593002 30.3325C 44.970531 30.285334 45.252937 29.962955 45.25 29.5825L 45.25 26.411499C 45.252937 26.031044 44.970531 25.708668 44.593002 25.661499L 41.216499 25.24C 40.872322 23.586252 40.218315 22.012569 39.288998 20.601999L 41.3815 17.9095C 41.6133 17.61112 41.586945 17.186897 41.32 16.9195L 39.07 14.6695C 38.802601 14.402554 38.37838 14.3762 38.079998 14.608L 35.387497 16.708C 33.976685 15.778826 32.403126 15.124365 30.749498 14.778999L 30.3325 11.407C 30.285334 11.029468 29.962955 10.747065 29.5825 10.75L 26.411499 10.75C 26.031044 10.747065 25.708668 11.029468 25.661499 11.407L 25.24 14.782C 23.588459 15.128082 22.016998 15.782518 20.608 16.711L 17.915501 14.6185C 17.617121 14.3867 17.192898 14.413054 16.925501 14.68L 14.6755 16.93C 14.408553 17.197397 14.3822 17.62162 14.614 17.92L 16.714001 20.619999C 15.784682 22.030569 15.130678 23.604252 14.7865 25.257999L 11.41 25.679501C 11.032468 25.726667 10.750065 26.049044 10.753 26.429501L 10.753 29.606501C 10.750065 29.986956 11.032468 30.309334 11.41 30.356501L 14.7865 30.778C 15.130678 32.431747 15.784682 34.005432 16.714001 35.415997L 14.6185 38.084499C 14.3867 38.382881 14.413054 38.807102 14.68 39.074501L 16.93 41.324501C 17.197397 41.591446 17.62162 41.617798 17.92 41.386002L 20.619999 39.293499C 22.030815 40.222672 23.604372 40.877136 25.257999 41.222496L 25.679501 44.5975C 25.726667 44.975033 26.049044 45.257435 26.429501 45.254501L 29.606501 45.254501C 29.986956 45.257435 30.309334 44.975033 30.356501 44.5975L 30.778 41.2225C 32.431625 40.877136 34.005184 40.222672 35.416 39.293499L 38.108501 41.386002C 38.406879 41.617798 38.831104 41.591446 39.098499 41.324501L 41.348499 39.074501C 41.615448 38.807102 41.6418 38.382881 41.41 38.084499L 39.317501 35.391998C 40.246815 33.98143 40.900822 32.407745 41.244999 30.754Z"></path></g></g></g><g id="g-root-tx_analyzes_4hb6r9swjldy-stroke" data-item-order="1000000000" data-item-id="tx_analyzes_4hb6r9swjldy" data-item-class="Label Stroke Indexed" data-item-index="3" data-renderer-id="0" transform="translate(482.61474609375, 104)"></g><g id="g-root-robo_zlaqydswdypu-stroke" data-item-order="1000000000" data-item-id="robo_zlaqydswdypu" data-item-class="Icon Stroke Indexed InsideFill InsideColorFill" data-item-index="2" data-renderer-id="0" transform="translate(230.5, 176)"><g id="robo_zlaqydswdypu-stroke" fill="none" stroke-linecap="butt" stroke-linejoin="miter" stroke-miterlimit="4" stroke="#ffffff" stroke-width="1"><g><path d="M 10.75 24.25C 10.75 30.04899 18.473087 34.75 28 34.75C 37.526913 34.75 45.25 30.04899 45.25 24.25C 45.25 18.45101 37.526913 13.750001 28 13.750001C 18.473087 13.750001 10.75 18.45101 10.75 24.25ZM 45.25 24.25L 45.25 31.75C 45.25 37.549 37.526501 42.25 28 42.25C 18.473499 42.25 10.75 37.549 10.75 31.75L 10.75 24.25M 19.75 24.25C 19.75 26.321068 23.443651 28 28 28C 32.556351 28 36.25 26.321068 36.25 24.25C 36.25 22.178932 32.556351 20.5 28 20.5C 23.443651 20.5 19.75 22.178932 19.75 24.25ZM 28 23.875C 28.207108 23.875 28.375 24.042892 28.375 24.25C 28.375 24.457108 28.207108 24.625 28 24.625C 27.792892 24.625 27.625 24.457108 27.625 24.25C 27.625 24.042892 27.792892 23.875 28 23.875M 19.706501 18.372999C 22.327803 17.260324 25.152637 16.707518 28 16.75C 30.811831 16.70961 33.601986 17.247219 36.197502 18.3295M 24.3025 34.508499C 23.917 32.627499 25.719999 31 28 31C 30.280001 31 32.083 32.627499 31.6975 34.508499"></path></g></g></g><g id="g-root-tx_intellig_4pfcvpswi7t6-stroke" data-item-order="1000000000" data-item-id="tx_intellig_4pfcvpswi7t6" data-item-class="Label Stroke Indexed InsideFill InsideColorFill" data-item-index="2" data-renderer-id="0" transform="translate(278.5, 170)"></g><g id="g-root-tx_automate_m7yq5xswjm6l-stroke" data-item-order="1000000000" data-item-id="tx_automate_m7yq5xswjm6l" data-item-class="Label Stroke Indexed" data-item-index="2" data-renderer-id="0" transform="translate(482.5, 176)"></g><g id="g-root-line_18lxjw5sw8dfw-stroke" data-item-order="1000000000" data-item-id="line_18lxjw5sw8dfw" data-item-class="Icon Stroke Indexed Indexed_1 InsideFill InsideColorFill" data-item-index="1" data-renderer-id="0" transform="translate(230.5, 248)"><g id="line_18lxjw5sw8dfw-stroke" fill="none" stroke-linecap="butt" stroke-linejoin="miter" stroke-miterlimit="4" stroke="#ffffff" stroke-width="1"><g><path d="M 12.256 15.25L 43.756001 15.25C 43.756001 15.25 45.256001 15.25 45.256001 16.75L 45.256001 39.25C 45.256001 39.25 45.256001 40.75 43.756001 40.75L 12.256 40.75C 12.256 40.75 10.756 40.75 10.756 39.25L 10.756 16.75C 10.756 16.75 10.756 15.25 12.256 15.25M 16.75 33.25L 20.606501 26.8225C 20.741955 26.596237 20.986288 26.457737 21.25 26.457737C 21.513712 26.457737 21.758045 26.596237 21.893499 26.8225L 25.213001 32.349998C 25.337925 32.558418 25.556082 32.693398 25.798347 32.712173C 26.040611 32.730946 26.276958 32.631184 26.432499 32.4445L 28.93 29.4445C 29.072496 29.273624 29.283506 29.174837 29.506001 29.174837C 29.728495 29.174837 29.939503 29.273624 30.081999 29.4445L 32.564499 32.4235C 32.721825 32.612133 32.961548 32.711777 33.20623 32.690239C 33.450916 32.668701 33.669548 32.528717 33.7915 32.315498L 39.25 22.75"></path></g></g></g><g id="g-root-tx_efficien_qvweetswi8ld-stroke" data-item-order="1000000000" data-item-id="tx_efficien_qvweetswi8ld" data-item-class="Label Stroke Indexed Indexed_1 InsideFill InsideColorFill" data-item-index="1" data-renderer-id="0" transform="translate(278.5, 242)"></g><g id="g-root-tx_extracts_18efrp1swjmys-stroke" data-item-order="1000000000" data-item-id="tx_extracts_18efrp1swjmys" data-item-class="Label Stroke Indexed Indexed_1" data-item-index="1" data-renderer-id="0" transform="translate(482.5, 248)"></g></g></g></svg>