<?xml version="1.0" encoding="utf-8" standalone="yes"?>
<!DOCTYPE svg PUBLIC "-//W3C//DTD SVG 1.1//EN" "http://www.w3.org/Graphics/SVG/1.1/DTD/svg11.dtd">
<svg width="536" height="528" viewBox="0 0 536 528" style="fill:none;stroke:none;fill-rule:evenodd;clip-rule:evenodd;stroke-linecap:round;stroke-linejoin:round;stroke-miterlimit:1.5;" version="1.1" xmlns="http://www.w3.org/2000/svg" xmlns:xlink="http://www.w3.org/1999/xlink"><style id="fontImports">@import url("https://fonts.googleapis.com/css2?family=Roboto:wght@400;700&amp;display=block");</style><rect id="" x="0" y="0" width="535.014" height="528" style="fill: #ffffff;"></rect><g id="items" style="isolation: isolate"><g id="blend" style="mix-blend-mode:normal"><g id="g-root-4.cu_sy_1lt0qmdswntaa-fill" data-item-order="999863813" data-item-id="4.cu_sy_1lt0qmdswntaa" data-item-class="Part Indexed Fill Stroke" data-item-index="4" data-renderer-id="0" transform="translate(379.982421875, 258.49609375)"></g><g id="g-root-3.cu_sy_zmjp39swnsi3-fill" data-item-order="999863817" data-item-id="3.cu_sy_zmjp39swnsi3" data-item-class="Part Indexed Fill Stroke" data-item-index="3" data-renderer-id="0" transform="translate(234.3671875, 138.671875)"></g><g id="g-root-2.cu_sy_9095fpswnsi4-fill" data-item-order="999863821" data-item-id="2.cu_sy_9095fpswnsi4" data-item-class="Part Indexed Fill Stroke" data-item-index="2" data-renderer-id="0" transform="translate(127.666015625, 260.51953125)"></g><g id="g-root-1.cu_sy_1heg6o5swnvgt-fill" data-item-order="999863825" data-item-id="1.cu_sy_1heg6o5swnvgt" data-item-class="Part Indexed Indexed_1 Fill Stroke" data-item-index="1" data-renderer-id="0" transform="translate(19.998046875, 198.5)"></g><g id="g-root-tx_achievin_hv9y2tswl0y5-fill" data-item-order="1000000000" data-item-id="tx_achievin_hv9y2tswl0y5" data-item-class="Label Stroke Title ColorStrokeBlack" data-item-index="none" data-renderer-id="0" transform="translate(122, 2)"><g id="tx_achievin_hv9y2tswl0y5-fill" stroke="none" fill="#484848"><g><text style="font: 20px Roboto, sans-serif; white-space: pre;" font-weight="20px" font-size="Roboto," font-family="sans-serif"><tspan x="12.9" y="34" dominant-baseline="ideographic">Achieving Process Optimization</tspan></text></g></g></g><g id="g-root-tx_integrat_1uo1j9hswl1qa-fill" data-item-order="1000000000" data-item-id="tx_integrat_1uo1j9hswl1qa" data-item-class="Label Stroke Indexed ColorStrokeBlack" data-item-index="3" data-renderer-id="0" transform="translate(248, 74)"><g id="tx_integrat_1uo1j9hswl1qa-fill" stroke="none" fill="#484848"><g><text style="font: 20px Roboto, sans-serif; white-space: pre;" font-weight="20px" font-size="Roboto," font-family="sans-serif"><tspan x="36.67" y="34" dominant-baseline="ideographic">Integrate AI </tspan><tspan x="14.13" y="58" dominant-baseline="ideographic">Decision-Making</tspan></text></g></g></g><g id="g-root-tx_identify_v6qgg5swkzd8-fill" data-item-order="1000000000" data-item-id="tx_identify_v6qgg5swkzd8" data-item-class="Label Stroke Indexed Indexed_1 ColorStrokeBlack" data-item-index="1" data-renderer-id="0" transform="translate(2, 158)"><g id="tx_identify_v6qgg5swkzd8-fill" stroke="none" fill="#484848"><g><text style="font: 20px Roboto, sans-serif; white-space: pre;" font-weight="20px" font-size="Roboto," font-family="sans-serif"><tspan x="11.86" y="34" dominant-baseline="ideographic">Identify Processes</tspan></text></g></g></g><g id="g-root-1_dkg5hhsw5kwc-fill" data-item-order="1000000000" data-item-id="1_dkg5hhsw5kwc" data-item-class="Icon Stroke Indexed InsideFill InsideColorFill" data-item-index="3" data-renderer-id="0" transform="translate(302, 206)"></g><g id="g-root-comp_m980xxswl1xc-fill" data-item-order="1000000000" data-item-id="comp_m980xxswl1xc" data-item-class="Icon Stroke Indexed Indexed_1 InsideFill InsideColorFill" data-item-index="1" data-renderer-id="0" transform="translate(62, 242)"></g><g id="g-root-1_1um6405sw6yv6-fill" data-item-order="1000000000" data-item-id="1_1um6405sw6yv6" data-item-class="Icon Stroke Indexed InsideFill InsideColorFill" data-item-index="2" data-renderer-id="0" transform="translate(182, 314)"></g><g id="g-root-1_qoevnpswjmry-fill" data-item-order="1000000000" data-item-id="1_qoevnpswjmry" data-item-class="Icon Stroke Indexed InsideFill InsideColorFill" data-item-index="4" data-renderer-id="0" transform="translate(422, 302)"></g><g id="g-root-tx_continuo_8ydznpswl0ch-fill" data-item-order="1000000000" data-item-id="tx_continuo_8ydznpswl0ch" data-item-class="Label Stroke Indexed ColorStrokeBlack" data-item-index="4" data-renderer-id="0" transform="translate(380, 410)"><g id="tx_continuo_8ydznpswl0ch-fill" stroke="none" fill="#484848"><g><text style="font: 20px Roboto, sans-serif; white-space: pre;" font-weight="20px" font-size="Roboto," font-family="sans-serif"><tspan x="25.16" y="34" dominant-baseline="ideographic">Continuous </tspan><tspan x="17.06" y="58" dominant-baseline="ideographic">Improvement</tspan></text></g></g></g><g id="g-root-tx_establis_18hkhqdswl0y3-fill" data-item-order="1000000000" data-item-id="tx_establis_18hkhqdswl0y3" data-item-class="Label Stroke Indexed ColorStrokeBlack" data-item-index="2" data-renderer-id="0" transform="translate(146, 434)"><g id="tx_establis_18hkhqdswl0y3-fill" stroke="none" fill="#484848"><g><text style="font: 20px Roboto, sans-serif; white-space: pre;" font-weight="20px" font-size="Roboto," font-family="sans-serif"><tspan x="26.84" y="34" dominant-baseline="ideographic">Establish </tspan><tspan x="15.54" y="58" dominant-baseline="ideographic">Automation </tspan><tspan x="22.18" y="82" dominant-baseline="ideographic">Guardrails</tspan></text></g></g></g><g id="g-root-4.cu_sy_1lt0qmdswntaa-stroke" data-item-order="999863813" data-item-id="4.cu_sy_1lt0qmdswntaa" data-item-class="Part Indexed Fill Stroke" data-item-index="4" data-renderer-id="0" transform="translate(379.982421875, 258.49609375)"><g id="4.cu_sy_1lt0qmdswntaa-stroke" fill="none" stroke-linecap="round" stroke-linejoin="round" stroke-miterlimit="4" stroke="#93c131" stroke-width="2"><g><path d="M 142.0319 61.3492L 124.3864 73.3584L 124.3781 81.7465L 141.9999 93.7905C 140.9614 96.9605 140.6582 97.8863 140.1228 99.521C 139.8444 100.3713 139.5031 101.4133 138.963 103.0626L 117.5953 102.4534C 116.8634 103.4539 116.2969 104.2284 115.781 104.9335C 114.8084 106.263 114.0161 107.346 112.6362 109.2335L 119.7811 129.2896C 117.7196 130.7773 116.7675 131.4646 115.8153 132.1519C 114.8632 132.8392 113.9111 133.5265 111.8496 135.0142L 94.9228 122.0185C 92.3691 122.842 91.0614 123.2635 89.1345 123.8846L 86.9079 124.6023L 80.8474 145.0096L 71.0515 144.9999L 65.0312 124.5807C 62.4863 123.7545 61.1795 123.3305 59.2626 122.7084C 58.6104 122.4968 57.8876 122.2623 57.0214 121.9812L 40.0691 134.9435C 38.0105 133.4517 37.0597 132.7625 36.109 132.0734C 35.1582 131.3842 34.2074 130.695 32.1489 129.2032L 39.3333 109.1613C 38.611 108.1697 38.0501 107.3999 37.54 106.6996C 36.5626 105.3581 35.7713 104.272 34.3876 102.3714L 13.0188 102.9385C 11.9508 99.657 11.6651 98.7787 11.0969 97.0322C 10.8302 96.2124 10.5013 95.2013 10 93.6604L 27.6455 81.6512L 27.6538 73.2631L 10.032 61.2191C 11.1036 57.9481 11.3923 57.0665 11.961 55.33C 12.2301 54.5083 12.5619 53.4952 13.069 51.947L 34.4367 52.5562C 35.1627 51.5636 35.726 50.7935 36.2386 50.0929C 37.2169 48.7557 38.01 47.6715 39.3957 45.7761L 32.2508 25.72C 34.3123 24.2323 35.2644 23.545 36.2166 22.8577C 37.1687 22.1704 38.1208 21.4831 40.1823 19.9954L 57.1091 32.9911C 59.6344 32.1768 60.9413 31.7555 62.8334 31.1457L 65.124 30.4073L 71.1845 10L 80.9804 10.0096L 87.0006 30.4289C 90.4115 31.5362 91.5982 31.9211 95.0105 33.0284L 111.9628 20.0661C 114.0214 21.5579 114.9722 22.2471 115.9229 22.9362C 116.8737 23.6254 117.8245 24.3146 119.883 25.8063L 112.6986 45.8483C 113.4302 46.8526 113.9961 47.6295 114.5116 48.3369C 115.4799 49.6661 116.2699 50.7503 117.6443 52.6381L 139.0132 52.0711C 140.0452 55.2423 140.3467 56.1691 140.8786 57.8041C 141.1554 58.6551 141.4947 59.698 142.0319 61.3492ZM 40.0158 77.4696C 39.9962 97.3515 56.0983 113.4854 75.9803 113.505C 95.8622 113.5246 111.9961 97.4224 112.0157 77.5405C 112.0353 57.6586 95.9331 41.5246 76.0512 41.5051C 56.1693 41.4855 40.0353 57.5876 40.0158 77.4696Z"></path></g></g></g><g id="g-root-3.cu_sy_zmjp39swnsi3-stroke" data-item-order="999863817" data-item-id="3.cu_sy_zmjp39swnsi3" data-item-class="Part Indexed Fill Stroke" data-item-index="3" data-renderer-id="0" transform="translate(234.3671875, 138.671875)"><g id="3.cu_sy_zmjp39swnsi3-stroke" fill="none" stroke-linecap="round" stroke-linejoin="round" stroke-miterlimit="4" stroke="#17b0e3" stroke-width="2"><g><path d="M 10.5453 92.4539C 10.6663 91.1566 10.787301 89.8592 11.090501 86.6126L 11.0893 86.6101L 30.564201 84.5056C 31.8017 80.5354 32.1527 79.4104 33.026901 76.6083L 33.833301 74.0233L 19.013801 61.2016L 20.8669 57.9007C 22.1321 55.647 22.3982 55.173 24.7571 50.9728L 43.403501 56.979L 50.650501 48.7347L 42.323 30.9885C 44.0014 29.7383 45.032601 28.9702 45.8323 28.3746C 47.523501 27.115 48.178401 26.6272 51.727301 23.9831L 66.3209 37.0621C 68.696701 35.9705 70.0012 35.371 71.305701 34.7715C 72.610201 34.172 73.914801 33.5725 76.290501 32.481L 75.8937 12.8776C 79.0732 12.1631 80.343301 11.8777 81.6135 11.5922C 82.883401 11.3067 84.1534 11.021 87.3318 10.306L 95.3486 28.1958C 97.9917 28.1655 99.429801 28.1489 100.880901 28.1322C 102.300901 28.1158 103.733201 28.0993 106.318801 28.0697L 113.9226 10C 118.77 10.9721 119.201201 11.0587 121.916001 11.6038C 122.779801 11.7773 123.8748 11.9972 125.416901 12.3068L 125.4718 31.9139C 127.872501 32.9505 129.190401 33.5198 130.508401 34.089C 131.826301 34.6582 133.144201 35.2274 135.5449 36.264L 149.8341 22.8529C 152.4917 24.7387 153.5536 25.4921 154.615401 26.2457C 155.677301 26.9993 156.739101 27.753 159.3969 29.6396L 151.479901 47.5732C 153.251701 49.4978 154.224301 50.5544 155.197001 51.611C 156.169601 52.6676 157.142201 53.7242 158.914001 55.6488L 177.416901 49.2143C 179.079201 52.021 179.742801 53.1416 180.407 54.2632C 181.0705 55.3835 181.734501 56.5047 183.394901 59.3083L 168.874801 72.4683C 169.711401 74.9475 170.1706 76.3088 170.629801 77.6702C 171.0889 79.0315 171.5481 80.3929 172.384701 82.872L 191.903301 84.5269C 192.2814 87.766 192.432301 89.0602 192.583301 90.3544C 192.7343 91.6487 192.885301 92.9429 193.2633 96.182L 174.650601 102.2931C 174.4073 104.8984 174.273801 106.329 174.140301 107.7597C 174.006801 109.1904 173.873301 110.621 173.630001 113.2263L 190.789001 122.6846C 189.8187 125.7962 189.430601 127.0401 189.0427 128.2831C 188.6545 129.5273 188.266501 130.7707 187.295301 133.8851L 167.8092 131.8905C 166.526901 134.1744 165.823301 135.427 165.119101 136.6809C 164.4165 137.9318 163.713201 139.1839 162.433901 141.4624L 174.266301 157.0879L 171.8583 159.8272C 170.072401 161.8588 169.758201 162.2163 166.5228 165.8979L 149.5309 156.1425C 148.3796 157.0004 147.5133 157.6459 146.775601 158.1956C 144.826001 159.6484 143.773801 160.4324 140.730501 162.6994L 145.190001 181.792L 134.536701 186.6879L 122.9788 170.8575C 120.4278 171.4308 119.0272 171.7458 117.626601 172.0609C 116.226001 172.3759 114.825401 172.6909 112.2743 173.2642L 108.5897 192.5217L 96.868401 192.6565L 92.744501 173.4878C 90.181 172.9732 88.7736 172.6906 87.366101 172.4081C 85.958701 172.1255 84.551201 171.8429 81.987701 171.3284L 70.796601 187.421L 60.033501 182.7724L 64.052501 163.5824C 61.9201 162.0687 60.749101 161.2375 59.578101 160.4064C 58.407101 159.5752 57.236101 158.744 55.103701 157.2303L 38.341401 167.3755C 36.133501 164.9775 35.251301 164.0192 34.3692 163.061C 33.487001 162.1027 32.6049 161.1445 30.397 158.7465L 41.866301 142.8525C 40.531201 140.5982 39.799 139.3621 39.065901 138.1245C 38.334701 136.8904 37.602801 135.6549 36.271401 133.4067L 16.836401 135.8509C 15.559001 132.0655 15.221601 131.0653 14.672301 129.4371C 14.325101 128.4079 13.8932 127.1276 13.0857 124.7341L 30.021401 114.8824C 29.718201 112.2834 29.551601 110.8561 29.385 109.4289C 29.218501 108.0017 29.0519 106.5744 28.7487 103.9754L 10 98.2952C 10.303201 95.0486 10.4242 93.7512 10.5453 92.4539ZM 137.6305 101.3281C 137.6305 81.4462 121.5125 65.3281 101.6305 65.3281C 81.748601 65.3281 65.6305 81.4462 65.6305 101.3281C 65.6305 121.2101 81.748601 137.3281 101.6305 137.3281C 121.5125 137.3281 137.6305 121.2101 137.6305 101.3281Z"></path></g></g></g><g id="g-root-2.cu_sy_9095fpswnsi4-stroke" data-item-order="999863821" data-item-id="2.cu_sy_9095fpswnsi4" data-item-class="Part Indexed Fill Stroke" data-item-index="2" data-renderer-id="0" transform="translate(127.666015625, 260.51953125)"><g id="2.cu_sy_9095fpswnsi4-stroke" fill="none" stroke-linecap="round" stroke-linejoin="round" stroke-miterlimit="4" stroke="#3bc482" stroke-width="2"><g><path d="M 89.6808 10.0047C 87.6353 10.007 86.6659 10.0081 82.7207 10.0129L 82.7246 10.0135L 76.7729 32.1055C 74.7393 32.7047 73.4339 33.0894 72.1286 33.4742C 70.8232 33.8589 69.5179 34.2436 67.4843 34.8428L 50.4758 19.5173C 48.9055 20.5285 47.8961 21.1786 47.0861 21.7003C 45.3831 22.7972 44.5609 23.3267 41.26 25.4517L 48.2078 47.2557L 46.6897 49.0114C 45.0191 50.9436 44.0682 52.0434 41.8768 54.5765L 19.2779 50.8683C 18.0754 53.5086 17.5405 54.6834 17.0042 55.8613C 16.4702 57.0343 15.9348 58.2103 14.7371 60.8398L 32.3798 75.4331C 32.0808 77.5334 31.8888 78.8806 31.6967 80.229C 31.5051 81.5732 31.3134 82.9186 31.0154 85.0126L 10 94.1C 10.4168 96.9643 10.6025 98.2424 10.7882 99.5199C 10.974 100.7983 11.1596 102.0762 11.5768 104.9427L 34.3129 107.6917C 35.4674 110.2067 36.0817 111.5457 36.8613 113.2451C 37.2754 114.1478 37.7361 115.152 38.3492 116.4882L 25.591 135.4851C 28.6519 139.0056 28.9823 139.3856 30.979 141.6813C 31.4624 142.237 32.0433 142.905 32.7843 143.757L 53.3955 133.7887L 61.5506 139.0103L 61.0994 161.8855C 62.1951 162.2053 63.0517 162.4554 63.7634 162.6631C 66.6648 163.51 67.1576 163.6539 71.6255 164.9591L 83.5662 145.4394L 93.2515 145.4276L 105.2508 164.9186C 108.0296 164.1002 109.2693 163.7351 110.509 163.3698C 111.7488 163.0045 112.9885 162.6391 115.7676 161.8199L 115.2484 138.9456C 117.0303 137.7981 118.1744 137.0615 119.3185 136.325C 120.4626 135.5885 121.6067 134.852 123.3886 133.7044L 144.0291 143.6229L 151.198 135.3343L 138.3831 116.3673C 139.3869 114.1622 139.9801 112.8599 140.6322 111.4283C 141.1205 110.3561 141.642 109.2114 142.3937 107.5605L 165.1211 104.7573L 166.6653 93.9114L 145.6235 84.8747C 145.3559 83.034 145.1723 81.772 144.9988 80.5803C 144.7773 79.0581 144.5726 77.6508 144.2309 75.2989L 161.8297 60.6639C 160.6219 58.0315 160.0831 56.8575 159.5443 55.6834C 159.0055 54.5094 158.4667 53.3353 157.2589 50.7029L 134.6705 54.4649L 128.317 47.159L 135.1997 25.3385L 133.038 23.9548C 130.3345 22.2244 129.9734 21.9932 125.9656 19.4268L 109.003 34.7938C 104.9813 33.6185 103.8043 33.2749 99.8527 32.1213L 99.7057 32.0784L 93.6868 10L 89.6808 10.0047ZM 88.334 123.4796C 68.452 123.4796 52.334 107.3615 52.334 87.4796C 52.334 67.5976 68.452 51.4796 88.334 51.4796C 108.2159 51.4796 124.334 67.5976 124.334 87.4796C 124.334 107.3615 108.2159 123.4796 88.334 123.4796Z"></path></g></g></g><g id="g-root-1.cu_sy_1heg6o5swnvgt-stroke" data-item-order="999863825" data-item-id="1.cu_sy_1heg6o5swnvgt" data-item-class="Part Indexed Indexed_1 Fill Stroke" data-item-index="1" data-renderer-id="0" transform="translate(19.998046875, 198.5)"><g id="1.cu_sy_1heg6o5swnvgt-stroke" fill="none" stroke-linecap="round" stroke-linejoin="round" stroke-miterlimit="4" stroke="#4682e3" stroke-width="2"><g><path d="M 10 61.2794L 27.6337 73.306L 27.6337 81.694L 10 93.7207C 11.0354 96.8917 11.3377 97.8179 11.8714 99.4531C 12.1491 100.3036 12.4893 101.3459 13.0279 102.9958L 34.3961 102.4077C 35.127 103.4089 35.6928 104.1839 36.2079 104.8895C 37.1792 106.22 37.9705 107.3038 39.3486 109.1926L 32.1839 129.2416C 34.2439 130.7314 35.1954 131.4196 36.1468 132.1079C 37.0982 132.7961 38.0497 133.4843 40.1097 134.9741L 57.0493 121.9951C 59.6022 122.8211 60.9095 123.2439 62.8358 123.8668L 65.0617 124.5867L 71.1021 145L 80.898 145L 86.9383 124.5867C 89.4841 123.763 90.7913 123.3403 92.7088 122.7201C 93.3612 122.5091 94.0842 122.2753 94.9507 121.9951L 111.8903 134.9741C 113.9503 133.4843 114.9018 132.7961 115.8532 132.1079C 116.8046 131.4196 117.7561 130.7314 119.8161 129.2416L 112.6515 109.1926C 113.3747 108.2017 113.9364 107.4324 114.4472 106.7327C 115.4259 105.3922 116.2182 104.3068 117.6039 102.4076L 138.9721 102.9958C 140.0433 99.7153 140.3298 98.8373 140.8997 97.0914C 141.1672 96.2718 141.4972 95.261 142 93.7207L 124.3663 81.694L 124.3663 73.306L 142 61.2793C 140.9316 58.0072 140.6437 57.1254 140.0767 55.3883C 139.8085 54.5664 139.4777 53.553 138.9721 52.0042L 117.6038 52.5924C 116.8788 51.599 116.3162 50.8284 115.8043 50.1273C 114.8274 48.7891 114.0353 47.7042 112.6514 45.8074L 119.8161 25.7584C 117.7561 24.2686 116.8046 23.5804 115.8532 22.8921C 114.9018 22.2039 113.9503 21.5157 111.8903 20.0259L 94.9507 33.0049C 92.4262 32.1881 91.1197 31.7656 89.2282 31.1539L 86.9383 30.4133L 80.8979 10L 71.102 10.000001L 65.0617 30.4133C 61.6497 31.5173 60.4626 31.901 57.0493 33.0049L 40.1097 20.0259C 38.0497 21.5157 37.0982 22.2039 36.1468 22.8921C 35.1953 23.5804 34.2439 24.2686 32.1839 25.7584L 39.3485 45.8074C 38.616 46.811 38.0493 47.5873 37.5331 48.2942C 36.5635 49.6224 35.7725 50.7059 34.3961 52.5924L 13.0278 52.0042C 11.9927 55.1745 11.6903 56.101 11.1568 57.7354C 10.8791 58.5862 10.5388 59.6287 10 61.2794ZM 112.001 77.5C 112.001 97.3819 95.8829 113.5 76.001 113.5C 56.1191 113.5 40.001 97.3819 40.001 77.5C 40.001 57.6181 56.119 41.5 76.001 41.5C 95.8829 41.5 112.001 57.6181 112.001 77.5Z"></path></g></g></g><g id="g-root-tx_achievin_hv9y2tswl0y5-stroke" data-item-order="1000000000" data-item-id="tx_achievin_hv9y2tswl0y5" data-item-class="Label Stroke Title ColorStrokeBlack" data-item-index="none" data-renderer-id="0" transform="translate(122, 2)"></g><g id="g-root-tx_integrat_1uo1j9hswl1qa-stroke" data-item-order="1000000000" data-item-id="tx_integrat_1uo1j9hswl1qa" data-item-class="Label Stroke Indexed ColorStrokeBlack" data-item-index="3" data-renderer-id="0" transform="translate(248, 74)"></g><g id="g-root-tx_identify_v6qgg5swkzd8-stroke" data-item-order="1000000000" data-item-id="tx_identify_v6qgg5swkzd8" data-item-class="Label Stroke Indexed Indexed_1 ColorStrokeBlack" data-item-index="1" data-renderer-id="0" transform="translate(2, 158)"></g><g id="g-root-1_dkg5hhsw5kwc-stroke" data-item-order="1000000000" data-item-id="1_dkg5hhsw5kwc" data-item-class="Icon Stroke Indexed InsideFill InsideColorFill" data-item-index="3" data-renderer-id="0" transform="translate(302, 206)"><g id="1_dkg5hhsw5kwc-stroke" fill="none" stroke-linecap="round" stroke-linejoin="round" stroke-miterlimit="4" stroke="#17b0e3" stroke-width="2"><g><path d="M 20 37.400002C 15.581722 37.400002 12 40.98172 12 45.400002L 12 56.400002L 28 56.400002L 28 45.400002C 28 40.98172 24.418278 37.400002 20 37.400002ZM 16 38.391998L 16 25.864M 24 25.864L 24 38.391998M 14 21.392C 14 24.705708 16.686291 27.392 20 27.392C 23.313709 27.392 26 24.705708 26 21.392C 26 18.078293 23.313709 15.392 20 15.392C 16.686291 15.392 14 18.078293 14 21.392M 39.542 17.116001C 39.542 20.157986 42.008015 22.624001 45.049999 22.624001C 48.091984 22.624001 50.557999 20.157986 50.557999 17.116001C 50.557999 14.074016 48.091984 11.608 45.049999 11.608C 42.008015 11.608 39.542 14.074016 39.542 17.116001M 39.784 14.493999L 24.104 17.015999M 25.892 22.529999L 39.478001 20.344M 43.188 22.624001L 43.666 28.440001M 48.327999 28.056L 47.849998 22.25M 12 46.391998L 28 46.391998M 41.299999 28.586L 46.049999 28.243999L 50.548 27.92M 46.543999 34.248001L 46.049999 28.243999M 12 56.391998L 56 56.391998M 36.889999 56.400002L 36.889999 52.169998C 36.903168 51.224136 37.680122 50.467766 38.625999 50.48L 54.262001 50.48C 55.208652 50.466652 55.986839 51.223347 56 52.170002L 56 56.400002M 40.363998 50.48L 46.444 38.48L 52.526001 50.48L 40.363998 50.48ZM 19 21.248001C 19 21.800285 19.447716 22.248001 20 22.248001C 20.552284 22.248001 21 21.800285 21 21.248001C 21 20.695715 20.552284 20.248001 20 20.248001C 19.447716 20.248001 19 20.695715 19 21.248001M 52.880001 31.01L 55.212002 29.474001M 53.195999 35.746002L 55.138 37.23M 39.538002 32.152L 36.908001 31.212M 40.354 36.826L 38.82 38.728001"></path></g></g></g><g id="g-root-comp_m980xxswl1xc-stroke" data-item-order="1000000000" data-item-id="comp_m980xxswl1xc" data-item-class="Icon Stroke Indexed Indexed_1 InsideFill InsideColorFill" data-item-index="1" data-renderer-id="0" transform="translate(62, 242)"><g id="comp_m980xxswl1xc-stroke" fill="none" stroke-linecap="round" stroke-linejoin="round" stroke-miterlimit="4" stroke="#4682e3" stroke-width="2"><g><path d="M 11 17.133999C 10.999054 20.522383 13.745616 23.269712 17.133999 23.269712C 20.522383 23.269712 23.268946 20.522383 23.267998 17.133999C 23.268946 13.745616 20.522383 10.998286 17.133999 10.998286C 13.745616 10.998286 10.999054 13.745616 11 17.133999M 11 50.866001C 10.999054 54.254379 13.745616 57.001709 17.133999 57.001709C 20.522383 57.001709 23.268946 54.254379 23.267998 50.865997C 23.268946 47.477615 20.522383 44.730286 17.133999 44.730286C 13.745616 44.730286 10.999054 47.477615 11 50.865997M 17.133999 23.265999L 17.133999 44.734001M 44.731998 50.866001C 44.731052 54.254379 47.477615 57.001709 50.865997 57.001709C 54.254379 57.001709 57.000942 54.254379 56.999996 50.865997C 57.000942 47.477615 54.254379 44.730286 50.865997 44.730286C 47.477615 44.730286 44.731052 47.477615 44.731998 50.865997M 50.866001 44.734001L 50.866001 27.356001C 50.866001 21.710545 46.289455 17.134001 40.644001 17.134001L 32.466 17.133999M 38.599998 11L 32.466 17.133999L 38.599998 23.265999"></path></g></g></g><g id="g-root-1_1um6405sw6yv6-stroke" data-item-order="1000000000" data-item-id="1_1um6405sw6yv6" data-item-class="Icon Stroke Indexed InsideFill InsideColorFill" data-item-index="2" data-renderer-id="0" transform="translate(182, 314)"><g id="1_1um6405sw6yv6-stroke" fill="none" stroke-linecap="round" stroke-linejoin="round" stroke-miterlimit="4" stroke="#3bc482" stroke-width="2"><g><path d="M 17 15C 20.313709 15 23 17.686291 23 21L 23 52C 23 52.552284 22.552284 53 22 53L 12 53C 11.447716 53 11 52.552284 11 52L 11 21C 11 17.686291 13.686292 15 17 15ZM 51 15C 54.313709 15 57 17.686291 57 21L 57 52C 57 52.552284 56.552284 53 56 53L 46 53C 45.447716 53 45 52.552284 45 52L 45 21C 45 17.686291 47.686291 15 51 15ZM 23 29L 28.006001 29M 23 47L 28.006001 47M 40.006001 29L 45 29M 40.006001 47L 45 47M 34 15C 37.313709 15 40 17.686291 40 21L 40 52C 40 52.552284 39.552284 53 39 53L 29 53C 28.447716 53 28 52.552284 28 52L 28 21C 28 17.686291 30.686293 15 34 15Z"></path></g></g></g><g id="g-root-1_qoevnpswjmry-stroke" data-item-order="1000000000" data-item-id="1_qoevnpswjmry" data-item-class="Icon Stroke Indexed InsideFill InsideColorFill" data-item-index="4" data-renderer-id="0" transform="translate(422, 302)"><g id="1_qoevnpswjmry-stroke" fill="none" stroke-linecap="round" stroke-linejoin="round" stroke-miterlimit="4" stroke="#93c131" stroke-width="2"><g><path d="M 18.5 57L 35.5 30C 35.976421 29.377148 36.715828 29.01181 37.5 29.01181C 38.284172 29.01181 39.023575 29.377148 39.5 30L 56.5 57ZM 18.5 57L 11.5 57L 18.5 46C 18.989294 45.391399 19.719543 45.026276 20.5 45C 21.280457 45.026276 22.010706 45.391399 22.5 46L 23.799999 48.599998M 27.41 42.848L 32.096001 46.812C 32.890411 47.483448 34.066879 47.433884 34.802002 46.698002L 36.085999 45.414001C 36.867001 44.633236 38.132999 44.633236 38.914001 45.414001L 40.197998 46.698002C 40.933121 47.433884 42.109592 47.483448 42.903999 46.812L 47.599998 42.848M 37.5 29L 37.5 11M 37.5 11L 48.5 11C 49.052284 11 49.5 11.447716 49.5 12L 49.5 20C 49.5 20.552284 49.052284 21 48.5 21L 37.5 21M 49.5 15L 54.5 15C 55.052284 15 55.5 15.447716 55.5 16L 55.5 24C 55.5 24.552284 55.052284 25 54.5 25L 48.5 25C 47.947716 25 47.5 24.552284 47.5 24L 47.5 21"></path></g></g></g><g id="g-root-tx_continuo_8ydznpswl0ch-stroke" data-item-order="1000000000" data-item-id="tx_continuo_8ydznpswl0ch" data-item-class="Label Stroke Indexed ColorStrokeBlack" data-item-index="4" data-renderer-id="0" transform="translate(380, 410)"></g><g id="g-root-tx_establis_18hkhqdswl0y3-stroke" data-item-order="1000000000" data-item-id="tx_establis_18hkhqdswl0y3" data-item-class="Label Stroke Indexed ColorStrokeBlack" data-item-index="2" data-renderer-id="0" transform="translate(146, 434)"></g></g></g></svg>